<?xml version="1.0" encoding="UTF-8" standalone="no"?>
<svg
   xmlns:dc="http://purl.org/dc/elements/1.1/"
   xmlns:cc="http://creativecommons.org/ns#"
   xmlns:rdf="http://www.w3.org/1999/02/22-rdf-syntax-ns#"
   xmlns:svg="http://www.w3.org/2000/svg"
   xmlns="http://www.w3.org/2000/svg"
   xmlns:sodipodi="http://sodipodi.sourceforge.net/DTD/sodipodi-0.dtd"
   xmlns:inkscape="http://www.inkscape.org/namespaces/inkscape"
   width="210mm"
   height="297mm"
   viewBox="0 0 210 297"
   version="1.1"
   id="svg8"
   inkscape:version="1.0 (4035a4fb49, 2020-05-01)"
   sodipodi:docname="logo.svg">
  <defs
     id="defs2" />
  <sodipodi:namedview
     id="base"
     pagecolor="#ffffff"
     bordercolor="#666666"
     borderopacity="1.0"
     inkscape:pageopacity="0.0"
     inkscape:pageshadow="2"
     inkscape:zoom="0.5"
     inkscape:cx="804.92301"
     inkscape:cy="585.35518"
     inkscape:document-units="mm"
     inkscape:current-layer="layer1"
     showgrid="false"
     inkscape:snap-intersection-paths="true"
     inkscape:snap-smooth-nodes="true"
     inkscape:snap-midpoints="true"
     inkscape:window-width="1920"
     inkscape:window-height="1017"
     inkscape:window-x="1672"
     inkscape:window-y="-8"
     inkscape:window-maximized="1"
     inkscape:document-rotation="0" />
  <metadata
     id="metadata5">
    <rdf:RDF>
      <cc:Work
         rdf:about="">
        <dc:format>image/svg+xml</dc:format>
        <dc:type
           rdf:resource="http://purl.org/dc/dcmitype/StillImage" />
        <dc:title />
      </cc:Work>
    </rdf:RDF>
  </metadata>
  <g
     inkscape:label="Layer 1"
     inkscape:groupmode="layer"
     id="layer1">
    <circle
       style="fill:none;fill-opacity:1;stroke-width:2.32405;stroke-linecap:round;stroke-linejoin:round;paint-order:markers stroke fill;stroke:none"
       id="path854"
       cx="105.43882"
       cy="108.9614"
       r="130.175"
       inkscape:export-filename="C:\Users\jordy\Desktop\logo2.png"
       inkscape:export-xdpi="12.49"
       inkscape:export-ydpi="12.49" />
    <g
       id="g1080"
       style="fill:#214478"
       transform="translate(419.1,-16.933333)"
       inkscape:export-filename="C:\Users\jordy\Desktop\logo2.png"
       inkscape:export-xdpi="12.49"
       inkscape:export-ydpi="12.49">
      <path
         transform="matrix(-0.79422627,-0.11880352,-0.11880351,-0.93140876,-379.98202,175.30739)"
         inkscape:transform-center-y="12.730148"
         inkscape:transform-center-x="3.571096"
         d="m -105.18652,145.01485 c -1.90702,3.30307 -125.2279,3.30307 -127.13492,0 -1.90703,-3.30306 59.75341,-110.102069 63.56746,-110.102069 3.81405,0 65.47448,106.799009 63.56746,110.102069 z"
         inkscape:randomized="0"
         inkscape:rounded="0.03"
         inkscape:flatsided="true"
         sodipodi:arg2="1.5707963"
         sodipodi:arg1="0.52359878"
         sodipodi:r2="36.700691"
         sodipodi:r1="73.401382"
         sodipodi:cy="108.31416"
         sodipodi:cx="-168.75398"
         sodipodi:sides="3"
         id="path815-5"
         style="opacity:1;fill:#214478;fill-opacity:1;stroke:#ffffff;stroke-width:3.5217793;stroke-linecap:square;stroke-linejoin:round;stroke-miterlimit:4;stroke-dasharray:none;stroke-opacity:1;paint-order:markers fill stroke"
         sodipodi:type="star" />
      <path
         sodipodi:nodetypes="cccc"
         inkscape:connector-curvature="0"
         id="path920"
         d="M -313.66841,52.991178 V 20.510417 c 0,0 69.02417,22.826674 101.0347,47.541416 -39.82384,-8.75505 -101.0347,-15.060655 -101.0347,-15.060655 z"
         style="fill:#214478;stroke:#ffffff;stroke-width:3;stroke-linecap:butt;stroke-linejoin:miter;stroke-miterlimit:4;stroke-dasharray:none;stroke-opacity:1" />
      <path
         transform="matrix(0.29422627,0.74722189,-0.7472219,0.56859124,-237.92895,158.98138)"
         inkscape:transform-center-y="12.677067"
         inkscape:transform-center-x="-3.6017423"
         d="m -105.18652,145.01485 c -1.90702,3.30307 -125.2279,3.30307 -127.13492,0 -1.90703,-3.30306 59.75341,-110.102069 63.56746,-110.102069 3.81405,0 65.47448,106.799009 63.56746,110.102069 z"
         inkscape:randomized="0"
         inkscape:rounded="0.03"
         inkscape:flatsided="true"
         sodipodi:arg2="1.5707963"
         sodipodi:arg1="0.52359878"
         sodipodi:r2="36.700691"
         sodipodi:r1="73.401382"
         sodipodi:cy="108.31416"
         sodipodi:cx="-168.75398"
         sodipodi:sides="3"
         id="path815-5-0"
         style="opacity:1;fill:#214478;fill-opacity:1;stroke:#ffffff;stroke-width:3.5217793;stroke-linecap:square;stroke-linejoin:round;stroke-miterlimit:4;stroke-dasharray:none;stroke-opacity:1;paint-order:markers fill stroke"
         sodipodi:type="star" />
      <path
         transform="matrix(0.5,-0.62841836,0.86602542,0.36281753,-323.09423,44.122815)"
         inkscape:transform-center-y="13.277136"
         inkscape:transform-center-x="0.03065176"
         d="m -105.18652,145.01485 c -1.90702,3.30307 -125.2279,3.30307 -127.13492,0 -1.90703,-3.30306 59.75341,-110.102069 63.56746,-110.102069 3.81405,0 65.47448,106.799009 63.56746,110.102069 z"
         inkscape:randomized="0"
         inkscape:rounded="0.03"
         inkscape:flatsided="true"
         sodipodi:arg2="1.5707963"
         sodipodi:arg1="0.52359878"
         sodipodi:r2="36.700691"
         sodipodi:r1="73.401382"
         sodipodi:cy="108.31416"
         sodipodi:cx="-168.75398"
         sodipodi:sides="3"
         id="path815-5-0-5"
         style="opacity:1;fill:#214478;fill-opacity:1;stroke:#ffffff;stroke-width:3.5217793;stroke-linecap:square;stroke-linejoin:round;stroke-miterlimit:4;stroke-dasharray:none;stroke-opacity:1;paint-order:markers fill stroke"
         sodipodi:type="star" />
      <path
         inkscape:transform-center-y="-18.350339"
         inkscape:transform-center-x="-1.1385757e-005"
         d="m -250.10093,162.83789 c -1.90703,3.30306 -125.2279,3.30306 -127.13493,0 -1.90702,-3.30306 59.75342,-110.102073 63.56746,-110.102073 3.81405,0 65.47449,106.799013 63.56747,110.102073 z"
         inkscape:randomized="0"
         inkscape:rounded="0.03"
         inkscape:flatsided="true"
         sodipodi:arg2="1.5707963"
         sodipodi:arg1="0.52359878"
         sodipodi:r2="36.700691"
         sodipodi:r1="73.401382"
         sodipodi:cy="126.1372"
         sodipodi:cx="-313.6684"
         sodipodi:sides="3"
         id="path815"
         style="opacity:1;fill:#214478;fill-opacity:1;stroke:#ffffff;stroke-width:3;stroke-linecap:square;stroke-linejoin:round;stroke-miterlimit:4;stroke-dasharray:none;stroke-opacity:1;paint-order:markers fill stroke"
         sodipodi:type="star" />
      <path
         sodipodi:nodetypes="cccc"
         inkscape:connector-curvature="0"
         id="path920-7"
         d="M -313.6684,52.735813 V 20.255052 c 0,0 -69.02417,22.826674 -101.0347,47.541416 39.82384,-8.755049 101.0347,-15.060655 101.0347,-15.060655 z"
         style="fill:#214478;stroke:#ffffff;stroke-width:3;stroke-linecap:butt;stroke-linejoin:miter;stroke-miterlimit:4;stroke-dasharray:none;stroke-opacity:1" />
      <path
         sodipodi:nodetypes="cccc"
         inkscape:connector-curvature="0"
         id="path920-2"
         d="m -250.10093,162.83789 28.12917,16.24038 c 0,0 -54.28057,48.36335 -91.68942,63.72791 27.49401,-30.11093 63.56025,-79.96829 63.56025,-79.96829 z"
         style="fill:#214478;stroke:#ffffff;stroke-width:3;stroke-linecap:butt;stroke-linejoin:miter;stroke-miterlimit:4;stroke-dasharray:none;stroke-opacity:1" />
      <path
         sodipodi:nodetypes="cccc"
         inkscape:connector-curvature="0"
         id="path920-2-4"
         d="m -377.23586,162.83789 -28.12917,16.24038 c 0,0 54.28057,48.36335 91.68942,63.72791 -27.49401,-30.11093 -63.56025,-79.96829 -63.56025,-79.96829 z"
         style="fill:#214478;stroke:#ffffff;stroke-width:3;stroke-linecap:butt;stroke-linejoin:miter;stroke-miterlimit:4;stroke-dasharray:none;stroke-opacity:1" />
      <path
         sodipodi:nodetypes="cccc"
         inkscape:connector-curvature="0"
         id="path920-2-4-3"
         d="m -250.10815,163.08076 28.12916,16.24039 c 0,0 14.74361,-71.19003 9.34528,-111.269317 -12.32982,38.865967 -37.47444,95.028927 -37.47444,95.028927 z"
         style="fill:#214478;stroke:#ffffff;stroke-width:3;stroke-linecap:butt;stroke-linejoin:miter;stroke-miterlimit:4;stroke-dasharray:none;stroke-opacity:1" />
      <path
         sodipodi:nodetypes="cccc"
         inkscape:connector-curvature="0"
         id="path920-2-4-3-9"
         d="m -377.23586,162.83789 -28.12916,16.24038 c 0,0 -14.74361,-71.19002 -9.34528,-111.269311 12.32982,38.865971 37.47444,95.028931 37.47444,95.028931 z"
         style="fill:#214478;stroke:#ffffff;stroke-width:3;stroke-linecap:butt;stroke-linejoin:miter;stroke-miterlimit:4;stroke-dasharray:none;stroke-opacity:1" />
    </g>
    <path
       style="fill:#ffffff;fill-opacity:1;stroke:none;stroke-width:0.74021858;stroke-linecap:square;stroke-linejoin:miter;stroke-miterlimit:4;stroke-dasharray:none;stroke-opacity:1;paint-order:stroke markers fill"
       d="m 100.48222,59.474252 c -0.30318,-0.0025 -0.565032,0.111814 -0.797564,0.268148 l -0.236945,-0.102517 0.04783,0.250356 c -0.348535,0.328174 -0.553815,0.801788 -0.45652,1.312995 0.271439,1.424901 0.192345,2.247813 -0.0045,3.614039 -1.448158,-1.000899 -2.964148,-1.677187 -4.487144,-1.70909 -0.180948,-0.0037 -0.362536,0.003 -0.543945,0.02179 h -7.3e-4 c -0.617088,0.06391 -1.073775,0.494815 -1.237072,1.004875 -0.163297,0.510071 -0.042,1.12636 0.42326,1.536773 h 7.52e-4 c 1.621056,1.429485 2.651287,2.658392 3.488376,4.029445 -2.892532,-1.470065 -5.794272,-2.517996 -8.283631,-2.638228 h -7.52e-4 c -0.703784,-0.03374 -1.25496,0.423387 -1.447058,0.981352 -0.192098,0.557965 -0.03863,1.257491 0.53686,1.664154 0.612136,0.432142 1.467471,1.022911 2.408143,1.718646 -0.662462,-0.17885 -1.307105,-0.281504 -1.932109,-0.269293 -0.09746,0.0019 -0.195377,0.007 -0.294154,0.01511 -0.66308,0.0552 -1.14227,0.531517 -1.287556,1.077749 -0.145264,0.546237 0.03346,1.196945 0.581628,1.574258 h 7.41e-4 c 0.860579,0.591937 3.456722,2.70517 5.414555,4.799644 -0.518714,-0.133889 -1.044559,-0.246029 -1.579801,-0.318442 -0.725623,-0.09802 -1.326037,0.343414 -1.549597,0.907907 -0.223527,0.564494 -0.08769,1.296899 0.508193,1.722288 1.300087,0.927647 2.630749,1.923833 3.909345,2.975792 -0.500917,0.03043 -1.007067,0.07051 -1.545375,0.228759 -0.603894,0.177501 -0.975413,0.695238 -1.03644,1.233434 -0.06097,0.538174 0.185057,1.126808 0.733864,1.435021 1.164413,0.653771 3.026994,2.11647 4.333167,4.078975 -0.713103,-0.08769 -1.435784,-0.182262 -2.0832,-0.178254 -0.474665,0.0034 -0.928456,0.03032 -1.356028,0.08174 -0.692981,0.08376 -1.159269,0.618121 -1.260203,1.19537 -0.100945,0.577237 0.156526,1.23788 0.779958,1.551876 v 7.41e-4 c 0.968384,0.487454 2.730571,1.595387 4.357263,2.965675 -0.07781,0.09612 -0.201474,0.205325 -0.248634,0.279422 -0.07377,0.115744 -0.122368,0.197634 -0.157031,0.262041 -1.91e-4,2.92e-4 -2.92e-4,9.88e-4 -7.3e-4,9.88e-4 -0.09993,0.05075 -0.221,0.110489 -0.372395,0.181891 -0.184788,0.08713 -0.388418,0.18178 -0.598066,0.298938 -0.02212,0.01235 -0.156201,0.03672 -0.340248,0.15894 -0.184047,0.122167 -0.35745,0.328919 -0.531706,0.677442 -0.08601,0.172044 -0.08758,0.35928 -0.103078,0.543361 -0.402431,0.251867 -1.236983,0.710868 -2.047415,1.677527 -0.500659,0.59717 -0.729878,1.27664 -0.804829,1.79746 -0.05951,0.41375 -0.08421,0.7087 -0.190492,1.1443 -0.209593,0.3082 -0.407103,0.63232 -0.481391,1.12214 -0.0393,0.25971 0.01976,0.5781 0.15702,0.89565 -0.05828,0.077 -0.122189,0.16021 -0.167912,0.22188 -0.04009,0.0539 -0.07433,0.10005 -0.09825,0.13233 -0.01201,0.0163 -0.02122,0.0294 -0.0274,0.0375 -0.576328,0.63618 -0.718212,1.42105 -0.717415,2.05049 9.88e-4,0.62706 0.128488,1.19266 0.263175,1.67448 -0.0067,-0.0256 0.0079,0.0601 7.41e-4,0.19335 -0.0079,0.13328 -0.02863,0.32468 -0.06793,0.57322 -0.07871,0.49796 -0.202069,1.21713 -0.15282,2.08605 0.0067,0.35529 0.01224,0.64397 0.112824,1.00373 0.03032,0.10836 0.136629,0.35191 0.330501,0.60113 -0.286519,0.76705 -0.13015,1.53005 0.109254,2.13884 0.01931,0.0493 0.03773,0.0789 0.05873,0.12319 -0.01246,0.009 -0.0219,0.0125 -0.03447,0.0223 -0.272607,0.21395 -0.479336,0.44382 -0.659274,0.66176 -0.09488,0.11493 -0.138077,0.15494 -0.234665,0.25591 -0.104313,0.10903 -0.321642,0.34523 -0.454824,0.69006 -0.11598,0.30037 -0.159423,0.55535 -0.168687,0.80062 -0.009,0.24524 0.0079,0.47521 10e-4,0.8096 -0.01415,0.74185 0.05513,1.13415 0.08242,1.28201 v 0.002 c 9.89e-4,-0.0285 -0.009,0.11447 -0.04604,0.34618 -0.205561,1.29301 -0.114576,2.95701 0.577418,4.84805 0.14286,0.44285 0.26441,0.74391 0.431659,1.06014 l -0.02852,0.058 v 0.0383 c -0.350982,0.80936 -0.154134,1.5847 -0.05457,1.97475 0.106222,0.41547 0.16278,0.62198 0.120684,0.96662 -0.08298,0.67896 -0.11827,1.25195 0.09477,1.8363 0.20244,0.5555 0.457115,0.80869 0.663293,1.13051 9.88e-4,0.002 0.0034,0.003 0.0034,0.006 v 7.4e-4 c 0.46987,0.73775 0.910793,1.62877 2.097168,3.63259 0.06659,0.1126 0.148363,0.21618 0.242503,0.30698 0.533233,0.51421 0.978064,1.03072 1.669507,1.42927 0.06973,0.0402 0.11516,0.0516 0.17347,0.0746 0.05008,0.16902 0.116103,0.40282 0.309852,0.86602 0.08365,0.19985 0.07523,0.19606 0.111612,0.39859 0.03503,0.19521 0.09432,0.54846 0.24193,1.01213 0.276571,0.86899 0.975065,1.39603 1.56279,1.67679 0.566414,0.27057 1.104127,0.40615 1.571953,0.55674 0.126423,0.0408 0.257853,0.0642 0.390563,0.0692 0.634683,0.0244 1.120914,-0.0656 1.180824,-0.0723 0.0167,-0.002 0.0158,-0.003 0.0291,-0.004 -0.008,2.8e-4 0.0374,0.0128 0.18629,0.0653 0.11667,0.0411 0.33136,0.0684 0.53783,0.0893 0.22575,0.25197 0.58567,0.60973 1.20072,0.86469 0.77755,0.32227 1.73334,0.30863 2.80673,0.0449 l 0.18629,0.0368 v -0.0642 -9.9e-4 c 0.0291,-0.008 0.0527,-0.004 0.0817,-0.0128 l -0.0817,0.014 c 0.33485,-0.0175 0.70142,-0.0327 0.99512,-0.0413 0.14694,-0.003 0.27576,-0.007 0.37123,-0.007 0.0954,-3e-4 0.19602,0.0117 0.13388,7.3e-4 0.65245,0.11071 1.16545,-0.0707 1.57866,-0.29721 0.0451,0.021 0.0764,0.0464 0.13464,0.0619 0.34074,0.0904 0.5712,0.11184 0.73751,0.10499 0.16629,-0.007 0.28055,-0.004 0.14554,-0.0268 0.57875,0.0936 1.01458,-0.0737 1.22864,-0.16679 0.67875,0.24108 1.35264,0.30237 1.95773,0.25419 0.54413,-0.0435 1.2493,-0.0778 1.87454,-0.80175 0.0747,-0.0865 0.1283,-0.20223 0.18609,-0.31292 0.10881,-0.0411 0.21866,-0.0784 0.3391,-0.14438 0.37764,-0.20674 0.66651,-0.41652 1.13342,-0.70882 0.2024,-0.12671 0.25136,-0.12093 0.4464,-0.11481 0.0835,0.003 0.17525,0.0144 0.29587,0.0321 0.003,7.4e-4 0.43502,0.12442 0.95821,-0.0278 0.19918,-0.0579 0.34976,-0.16858 0.50167,-0.27407 0.16091,0.0491 0.31963,0.10858 0.50091,0.0927 0.28336,-0.0248 0.49335,-0.12254 0.61068,-0.18667 0.44928,-0.24556 0.5979,-0.50963 0.61012,-0.52348 h 7.4e-4 c 0.0595,-0.0676 0.0885,-0.098 0.11878,-0.12967 0.41952,-0.18518 0.68659,-0.4841 0.79945,-0.64111 0.16881,-0.23477 0.26935,-0.4305 0.35767,-0.58218 0.17567,-0.30178 0.39459,-0.51043 0.36702,-0.49423 0.98209,-0.57756 1.41273,-1.45401 1.83264,-2.26699 0.2179,-0.42189 0.40512,-0.84786 0.54759,-1.25467 0.13532,-0.38639 0.26962,-0.77014 0.25972,-1.30038 -0.003,-0.19024 -0.0169,-0.48877 -0.18801,-0.83693 -0.0184,-0.0373 -0.0486,-0.0627 -0.0705,-0.0963 0.15134,-0.0854 0.2567,-0.16866 0.27713,-0.18438 0.0413,-0.0318 0.0643,-0.0481 0.0734,-0.0546 0.005,-0.003 0.006,-0.003 0.003,-0.003 -9.9e-4,9.9e-4 -0.003,0.002 -0.006,0.003 -10e-4,0.001 -0.003,0.002 -0.004,0.003 -2.9e-4,1.9e-4 -2.9e-4,2.9e-4 -7.3e-4,7.4e-4 0,0 -0.003,-0.003 -0.003,-0.003 0.65956,-0.32625 1.01752,-0.87094 1.24622,-1.29654 0.23259,-0.43277 0.395,-0.84869 0.58221,-1.25103 0.54457,-1.17042 0.57601,-2.10457 0.83695,-3.04389 0.22714,-0.81759 0.16861,-1.55615 0.0892,-2.14326 -0.0787,-0.58137 -0.16848,-1.05222 -0.16907,-1.65859 0,-0.44288 -0.0245,-0.8431 -0.15721,-1.26079 -0.064,-0.20124 -0.19055,-0.36229 -0.3043,-0.53189 0.19208,-0.31091 0.29216,-0.59257 0.32686,-0.68049 10e-4,-0.003 2.9e-4,-7.5e-4 10e-4,-0.003 0.52883,-0.5545 0.48337,-1.11116 0.51487,-1.36752 0.0491,-0.39952 0.0624,-0.81262 0.074,-1.23647 0.0231,-0.84573 0.0546,-1.79914 0.13772,-2.2125 0.36128,-1.79765 -0.19948,-3.26877 -0.68166,-4.86009 -0.1304,-0.43037 -0.28812,-0.81315 -0.55866,-1.16381 -0.22396,-0.29026 -0.58424,-0.52451 -1.00659,-0.65259 -0.0101,-0.0484 -0.0208,-0.0967 -0.0321,-0.14496 0.24536,-0.19885 0.4519,-0.42344 0.54089,-0.70707 0.11995,-0.38232 0.0922,-0.67815 0.0746,-0.86776 -0.04,-0.43188 -0.14405,-0.81701 -0.25113,-1.20875 -0.10723,-0.39257 -0.22669,-0.81623 -0.3219,-1.17223 -0.0952,-0.35601 -0.16622,-0.67562 -0.17175,-0.73081 -0.10948,-1.09531 -0.63845,-2.02419 -1.1328,-2.97102 -0.25238,-0.48334 -0.50917,-0.93786 -0.7356,-1.30993 -0.21078,-0.34637 -0.31876,-0.59092 -0.67991,-0.948459 -0.41715,-0.412956 -0.87649,-0.611308 -1.37669,-0.699239 -0.23508,-0.927131 -0.62545,-1.81577 -1.12862,-2.601892 -0.51843,-0.809949 -1.15779,-1.557816 -1.94607,-2.081291 0.50306,-0.382378 1.01968,-0.764047 1.56775,-1.074685 1.72588,-0.978198 3.25738,-1.509601 3.7242,-1.690729 0.58393,-0.226772 0.91128,-0.770616 0.92913,-1.309934 0.0179,-0.53933 -0.27235,-1.103374 -0.84001,-1.368267 -0.37024,-0.172729 -0.69567,-0.242728 -1.16915,-0.327447 -0.48829,-0.08736 -1.10126,-0.155999 -1.80799,-0.159513 -0.34522,-0.0022 -0.76899,0.08511 -1.15462,0.122032 0.29929,-0.249757 0.56616,-0.498245 0.9037,-0.750315 0.52216,-0.390192 0.68148,-1.031904 0.52883,-1.566989 -0.15267,-0.535075 -0.62663,-0.995794 -1.27609,-1.051723 -0.4235,-0.03627 -0.88441,-0.05367 -1.36214,-0.05143 0.81027,-0.636446 1.58962,-1.151196 2.18457,-1.340341 h 7.3e-4 c 0.76264,-0.243188 1.10058,-0.985766 0.99533,-1.62475 -0.0969,-0.58841 -0.58901,-1.117421 -1.28947,-1.189822 0.24739,-0.266454 0.4815,-0.528333 0.75029,-0.798121 1.02404,-1.027773 2.19155,-1.99884 3.20455,-2.464556 0.65708,-0.302217 0.93065,-0.984868 0.82585,-1.577331 -0.004,-0.02931 -0.0354,-0.04997 -0.0424,-0.07894 l 0.0789,-0.03638 -0.10252,-0.0079 c -0.15099,-0.53775 -0.58613,-1.020714 -1.25123,-1.074681 -0.21272,-0.01725 -0.42965,-0.02657 -0.65066,-0.02851 -0.28452,-0.0025 -0.59814,0.06029 -0.89451,0.08243 0.22061,-0.339163 0.30506,-0.744865 0.22012,-1.115804 -0.13835,-0.604206 -0.68603,-1.141333 -1.43921,-1.131677 -0.47475,0.0064 -0.92472,0.06705 -1.38148,0.113412 0.88241,-1.345378 2.04128,-2.688103 2.82242,-3.055368 0.60964,-0.286998 0.89054,-0.911435 0.82797,-1.478626 -0.0625,-0.567199 -0.47243,-1.114726 -1.12996,-1.261925 h -7.4e-4 c -0.36144,-0.08068 -0.72663,-0.115688 -1.08807,-0.113997 -0.29526,0.0013 -0.58639,0.03459 -0.87559,0.08052 0.14136,-0.33548 0.1982,-0.690811 0.0877,-1.017506 -0.17403,-0.514919 -0.64984,-0.944092 -1.28066,-0.987277 -0.1133,-0.0077 -0.22545,-0.01143 -0.3349,-0.0128 h -7.3e-4 c -1.01098,-0.0128 -1.98296,0.244773 -2.92379,0.6191 0.008,-0.07129 0.0182,-0.138221 0.0262,-0.210961 0.14569,-1.341167 0.27776,-2.866265 0.42211,-3.454902 0.24082,-0.982253 -0.59879,-1.921783 -1.6018,-1.792101 h -7.3e-4 c -1.33391,0.172526 -2.68839,0.848335 -3.89297,1.822764 -0.86696,0.701347 -1.6189,1.615073 -2.13656,2.675726 -0.27306,-0.212165 -0.54116,-0.42428 -0.85512,-0.636131 -0.51603,-0.34816 -1.19993,-0.329222 -1.6957,0.04724 -0.0519,0.03939 -0.0982,0.08581 -0.14842,0.127949 -0.36759,-0.540447 -0.77578,-1.135477 -1.35182,-1.838194 -0.90437,-1.103039 -1.90899,-2.257972 -3.25075,-2.838784 -0.13779,-0.05954 -0.28723,-0.07707 -0.43606,-0.09201 -0.0445,-0.0044 -0.0857,-0.02701 -0.13044,-0.02735 z m -0.0624,1.573112 c 0.62461,0.456711 1.30937,1.102595 1.93824,1.869745 0.78469,0.957255 1.40239,1.884788 1.73682,2.408333 -0.65548,1.007234 -1.26965,2.273821 -1.66778,3.424693 -0.54029,-0.795924 -1.17753,-1.718932 -2.33432,-2.749736 0.32144,-2.249157 0.51873,-3.381049 0.32704,-4.953035 z m 13.72458,1.044466 c -0.1534,0.906352 -0.2536,2.018846 -0.36855,3.077168 -0.07,0.644932 -0.15106,1.243281 -0.25417,1.680407 -0.0515,0.218558 -0.10982,0.396938 -0.16373,0.51008 -0.0539,0.113156 -0.10498,0.142052 -0.0746,0.127382 -0.46656,0.224874 -1.07936,0.717601 -1.6259,1.171082 -0.30957,0.256865 -0.38107,0.32602 -0.5646,0.487518 -0.33796,-1.321319 -0.70995,-1.994336 -1.39849,-2.972938 0.26993,-1.049077 1.03188,-2.048535 1.97341,-2.810166 0.80953,-0.65485 1.70539,-1.063629 2.47662,-1.270533 z m -18.910566,2.885529 c 1.690919,0.37277 3.957234,1.87143 5.846996,3.943761 1.87618,2.057449 3.28407,4.566957 3.58727,6.738829 -1.53198,-1.463778 -2.73637,-2.406147 -4.765051,-3.762454 -1.131434,-2.680388 -2.386023,-4.718475 -4.669215,-6.920136 z m 11.507706,0.696176 c 2.10855,1.463201 2.98206,2.594673 3.36825,4.538009 -1.28355,1.723936 -3.24727,4.182161 -4.18398,6.623888 -0.044,-0.04177 -0.048,-0.04492 -0.10499,-0.100833 0.0813,-1.241785 0.0381,-3.950942 -1.98604,-6.123353 0.14567,-0.948147 0.63208,-2.025153 1.23898,-2.960697 0.56383,-0.86917 1.19464,-1.567236 1.66778,-1.977051 z m 10.97559,1.180071 c -1.93006,1.759405 -4.65321,4.617729 -5.15368,8.355928 -1.31334,0.700687 -3.24684,1.817221 -4.94748,3.55073 -0.24971,-0.354182 -0.49395,-0.680675 -0.78952,-0.986709 0.0842,-0.495483 0.47434,-1.437558 1.14487,-2.541645 0.70974,-1.168644 1.69472,-2.514021 2.83465,-3.779472 2.05354,-2.2796 4.61941,-4.249975 6.91116,-4.598832 z m 2.7922,1.92617 c -1.64872,1.24149 -3.0704,3.361835 -3.75212,5.142205 -0.59962,0.116655 -1.37305,0.349317 -2.07956,0.592514 -0.42231,0.145369 -0.50921,0.182169 -0.76963,0.27886 0.32913,-1.333501 1.23884,-2.75384 2.45117,-3.879505 1.27533,-1.184155 2.82322,-1.988939 4.15014,-2.134074 z m -30.590398,0.247496 c 2.514275,0.508032 5.633153,1.836226 8.572811,3.609065 3.479127,2.098164 6.642137,4.750091 8.204837,7.058412 -1.5697,1.72779 -2.23748,2.675165 -2.61987,3.57884 -2.36194,-3.251898 -4.581505,-5.673583 -6.985179,-7.437679 -2.604924,-3.488069 -5.34568,-5.548181 -7.172599,-6.808638 z m -0.71856,4.051058 c 0.849114,0.190219 1.804732,0.506036 2.904838,1.074685 1.636562,0.845952 3.451254,2.071606 5.191354,3.547094 3.004166,2.547344 5.770966,5.846109 7.088846,9.187334 -1.67492,-1.775998 -4.968165,-4.98759 -8.274458,-6.495165 -1.344148,-2.788611 -4.850657,-5.754331 -6.91058,-7.313948 z m 29.946238,1.626471 c -1.22684,0.722097 -2.66413,1.653406 -4.16276,2.899495 -2.12766,1.769103 -4.08174,3.885457 -4.54106,6.037859 -2.19904,1.61991 -3.48426,2.969189 -4.37449,4.270253 -0.52328,-1.622055 -1.01878,-3.035393 -1.05461,-3.128826 0.54929,-1.738652 2.40439,-4.290864 5.16458,-6.391491 2.40689,-1.831759 5.50597,-3.263501 8.96834,-3.68729 z m 3.0196,2.032325 c -0.91768,0.611989 -1.79566,1.325789 -2.56593,2.098875 -1.06769,1.071552 -1.95549,2.122316 -2.56729,2.733284 -2.12756,0.523801 -3.08039,0.735908 -4.90982,1.467145 0.86103,-1.891753 2.43404,-3.415868 4.2888,-4.481199 1.89416,-1.087946 4.00898,-1.685294 5.75424,-1.818105 z m -29.934757,3.623028 c 3.066911,0.858081 6.008882,2.83187 8.301027,4.796969 1.35072,1.157989 2.47727,2.306244 3.27742,3.200329 0.40008,0.447065 0.71861,0.830531 0.9412,1.117735 0.11127,0.143579 0.1992,0.263635 0.25894,0.351723 0.0597,0.08803 0.095,0.166486 0.0807,0.12795 0.0297,0.08028 0.0935,0.357056 0.14843,0.705928 0.0548,0.348882 0.10948,0.784539 0.15415,1.254083 0.0646,0.676611 0.0672,1.362462 0.0715,2.024497 -1.11381,-0.848182 -2.48154,-1.196874 -3.6018,-1.183905 -0.95606,-5.654644 -5.492132,-9.391249 -9.631617,-12.395309 z m 25.913917,2.499741 c -1.36026,0.858569 -2.72722,2.142577 -3.97781,3.648472 -1.7725,2.134324 -3.29074,4.665521 -4.10519,6.922629 -0.62707,0.640622 -1.12756,1.440882 -1.42451,2.381565 -0.62855,0.245737 -1.1625,0.390473 -1.52834,0.4749 -0.0101,-0.343369 -0.034,-1.263167 -0.12241,-2.655081 -0.0516,-0.814374 -0.11891,-1.666497 -0.20618,-2.396668 -0.0755,-0.631505 -0.1696,-1.092628 -0.29722,-1.475567 3.03681,-5.404494 7.96755,-6.607174 11.66166,-6.90025 z M 94.104603,85.56354 c 1.113289,7.52e-4 2.076407,0.405497 3.145826,0.856267 0.491406,0.561922 1.170857,1.140024 1.84776,2.171187 0.622612,0.948431 1.221101,2.309467 1.604101,4.301592 -0.0869,-0.0494 -0.0725,-0.04873 -0.17099,-0.101393 -0.45578,-0.243435 -1.014533,-0.488836 -1.562206,-0.617369 -1.11522,-3.176333 -3.563551,-5.329645 -5.40116,-6.529798 0.174627,-0.01886 0.370902,-0.08062 0.536669,-0.08051 z m 24.130437,1.340734 v 1.8e-4 c 0.0894,-7.18e-4 0.16454,0.009 0.25227,0.009 -1.80735,1.450729 -3.17419,2.906433 -4.15186,4.430137 -0.71775,0.07602 -1.48807,0.337418 -2.25839,0.710924 0.89256,-1.893729 1.94521,-3.680181 2.64722,-4.507232 0.8203,-0.428313 2.23337,-0.635019 3.51076,-0.643575 z m 2.36949,3.299781 c 0.4239,0.0022 0.74296,0.05098 1.06915,0.09353 -0.75584,0.308336 -1.71331,0.731181 -2.79754,1.345697 -1.58821,0.90016 -3.22758,2.134964 -4.16946,3.702998 -9.9e-4,-0.01437 -0.003,-0.01628 -0.004,-0.03088 -0.038,-0.666998 0.0605,-1.770249 0.56881,-3.381479 1.84106,-1.382134 3.83525,-1.737158 5.33384,-1.729748 z m -26.387641,2.228183 c 2.77425,0.0067 6.545171,1.002822 8.266611,3.354318 -0.71656,0.554993 -1.35384,1.089742 -2.14633,1.798792 -1.779962,-2.300372 -4.304624,-4.09721 -6.120281,-5.15311 z m 19.498301,0.222629 c -0.12336,0.580426 -0.17653,1.212942 -0.17289,1.924271 0.004,0.879847 0.0359,1.844638 0.003,2.800592 -0.6699,0.178097 -1.57319,0.294806 -2.37429,0.219002 -0.447,-0.04222 -0.85125,-0.141087 -1.14012,-0.288226 -0.25636,-0.130599 -0.40028,-0.288282 -0.4791,-0.481974 0.29841,-1.309665 1.0334,-2.370696 1.9128,-3.108738 0.73719,-0.618705 1.54234,-0.937236 2.25053,-1.064927 z m -11.31355,1.563351 c 0.65257,0.0034 1.4537,0.183475 2.1377,0.593665 0.63509,0.380862 1.14744,0.973426 1.43005,1.801296 -0.0917,0.120741 -0.19821,0.244289 -0.42633,0.360897 -0.20678,0.105661 -0.49697,0.195916 -0.77746,0.288035 -0.50788,-1.384986 -1.56213,-2.322581 -2.39972,-3.039693 0.0138,-7.9e-5 0.0218,-0.0034 0.0357,-0.0034 z m 13.91526,1.25907 c 0.72883,0.119045 1.62774,0.846172 2.30027,1.896895 0.56634,0.884856 0.95286,1.95204 1.04121,2.915947 -1.76127,-1.47009 -3.25522,-2.522408 -4.66309,-2.858187 0.38069,-0.885776 0.8189,-1.557917 1.32161,-1.954655 z m -13.09648,1.360238 c 0.36174,0.509439 0.65485,0.938707 0.80654,1.530059 l 0.0612,0.239651 c -0.32099,-0.219462 -0.67533,-0.401275 -1.03147,-0.544136 -0.33021,-0.132463 -0.65136,-0.224717 -0.95898,-0.28918 0.35075,-0.303261 0.73594,-0.636345 1.12269,-0.936394 z m 5.15672,0.340809 c 0.0929,0.160625 0.17552,0.341314 0.48141,0.665954 0.41519,0.440676 1.0551,0.90802 1.84583,0.795847 0.0609,-0.0022 0.0482,0.0045 0.10207,0.0067 l -0.66349,0.709577 c -0.10678,-0.0079 -0.20323,-0.01965 -0.44449,-0.01965 -0.34394,-3.4e-5 -0.72228,-0.009 -1.0674,0.172314 -0.0842,0.04435 -0.57022,0.183126 -1.0152,0.289194 -0.22251,0.05311 -0.4446,0.1051 -0.63556,0.156448 -0.1417,0.03807 -0.24881,0.08028 -0.36148,0.128141 0.0861,-0.101282 0.18446,-0.204316 0.25284,-0.320366 0.12111,-0.205573 0.16992,-0.485298 0.11706,-0.762924 -0.0713,-0.374473 -0.22359,-0.994334 -0.30068,-1.313011 0.28022,-0.100608 0.626,-0.21743 1.01024,-0.325516 0.36475,-0.102517 0.53338,-0.144972 0.67877,-0.182655 z m -10.314045,0.300297 c 9.88e-4,-5.7e-5 0.02302,-0.0034 0.08915,0.03739 0.282948,0.175614 0.553388,0.378728 0.735572,0.54948 0.09106,0.08545 0.159613,0.164004 0.193366,0.212871 0.0034,0.0056 0.0056,0.01011 0.0079,0.01527 -0.01864,0.0832 -0.06659,0.26642 -0.138481,0.453476 -0.09084,0.236957 -0.218632,0.502613 -0.349433,0.694464 -0.222629,0.326541 -0.242862,0.367065 -0.289742,0.44334 -0.07108,0.0034 -0.166822,0.01258 -0.212298,0.0034 -0.0841,-0.01651 -0.174492,-0.05154 -0.348108,-0.216501 -0.430862,-0.409315 -0.808938,-0.656927 -1.314897,-0.682225 -0.06793,-0.0034 -0.112825,-0.02762 -0.179399,-0.04244 0.110602,-0.05693 0.224145,-0.114812 0.360145,-0.179016 0.183553,-0.08657 0.37436,-0.175941 0.542204,-0.266229 0.167845,-0.09028 0.306899,-0.149879 0.443921,-0.328009 0.144972,-0.18846 0.213377,-0.377223 0.30563,-0.522139 0.0923,-0.144927 0.151283,-0.173335 0.154157,-0.17347 z m 7.400035,0.794465 c 0.0943,0.369576 0.19797,0.758567 0.20675,0.821088 -0.0483,0.08478 -0.14844,0.275032 -0.31003,0.420958 -0.0982,0.08871 -0.17727,0.11516 -0.2037,0.114576 -0.0264,-7.29e-4 -0.0838,9.89e-4 -0.21536,-0.195848 -0.18761,-0.280736 -0.45115,-0.509754 -0.73138,-0.718751 l 0.28268,-0.08489 c 0.36482,-0.109815 0.67918,-0.217329 0.97104,-0.35709 z m 9.11502,0.193951 h 7.4e-4 c -0.008,7.41e-4 0.0546,0.01437 0.0679,0.01707 -0.091,0.02437 -0.16557,0.0676 -0.22798,0.106222 -0.0653,0.04031 -0.11563,0.08983 -0.17175,0.136371 -0.0446,-0.08882 -0.0896,-0.17237 -0.13579,-0.240606 0.14796,-0.0045 0.30496,-0.0056 0.46706,-0.01886 z m -1.65687,0.208098 c 0.25469,0.417545 0.40184,0.749495 0.45672,1.100683 0.0399,0.255131 9.9e-4,0.677231 -0.0154,1.041221 -0.20345,-0.13411 -0.43034,-0.31152 -0.63134,-0.42383 -0.30691,-0.17148 -0.7426,-0.433411 -1.23094,-0.742279 0.20529,-0.309301 0.64053,-0.836269 1.42086,-0.975795 z m -12.26681,0.07344 c 0.90887,0.05165 1.4412,0.368342 1.78847,0.656017 -1.16215,0.437996 -2.08853,0.702367 -2.95228,1.062647 0.01617,-0.32241 0.06973,-0.614658 0.202541,-0.855121 0.184227,-0.333903 0.501269,-0.6162 0.961269,-0.863543 z m 16.41063,0.942907 c 0.66063,0.494507 1.37205,1.103077 2.16275,1.845457 -0.1106,0.30163 -0.22192,0.60794 -0.3154,0.8054 -0.0359,0.0759 -0.0609,0.11071 -0.0904,0.16066 -0.11873,-0.0637 -0.26592,-0.12418 -0.3305,-0.20617 -0.10274,-0.13036 -0.21557,-0.37804 -0.41177,-0.82721 -0.21406,-0.49007 -0.45939,-0.71938 -0.62771,-0.83982 -0.16833,-0.12044 -0.20807,-0.11004 -0.35957,-0.41733 -0.0915,-0.18558 -0.081,-0.364997 -0.0274,-0.520987 z m -2.1402,0.0056 h 2e-4 c 0.007,-2.02e-4 0.054,0.0022 0.17387,0.09522 0.12024,0.09365 0.29204,0.269107 0.50893,0.530557 0.51233,0.6176 0.81512,0.93802 1.00544,1.17892 0.1818,0.23012 0.27124,0.39947 0.40759,0.75987 0.003,0.13367 0.008,0.25901 0.0121,0.30449 -0.0184,0.0333 -0.20273,0.30379 -0.63612,1.12748 -0.46158,0.87728 -0.65196,1.68402 -0.78359,2.17843 -0.022,0.0829 -0.0244,0.0765 -0.0452,0.13944 -0.0421,-0.0569 -0.13311,-0.1447 -0.1469,-0.17596 -0.0135,-0.0306 -0.0159,-0.044 -0.0171,-0.0497 l 0.0135,-0.15281 -0.13771,-0.12298 c -1.27861,-1.14529 -1.6356,-1.57175 -1.80413,-1.78618 -0.16857,-0.21443 -0.26523,-0.32691 -0.75013,-0.59118 -0.13361,-0.0728 -0.16461,-0.12499 -0.18016,-0.16927 -0.0156,-0.0442 -0.0201,-0.11657 0.0224,-0.24499 0.063,-0.1908 0.31013,-0.51757 0.5447,-0.83257 0.24045,0.15585 0.46893,0.29799 0.77861,0.55122 l 0.5495,0.44926 0.0539,-0.70766 c 0.0668,-0.87593 0.093,-1.49589 0.0393,-2.09294 0.10387,-0.127238 0.20564,-0.250516 0.27295,-0.310409 0.085,-0.07568 0.11644,-0.07815 0.11818,-0.07826 z m -19.073718,0.282694 c 0.0056,0.04008 0.01224,0.03435 0.0067,0.126603 -0.03054,0.51016 -0.01808,0.71282 -0.05277,0.79812 -0.03481,0.0853 -0.179163,0.24666 -0.667683,0.64953 -0.467164,0.38522 -0.68026,0.4494 -0.926075,0.64531 -0.122931,0.098 -0.237911,0.24042 -0.316556,0.40986 -0.0786,0.16944 -0.135888,0.36669 -0.205595,0.6478 -0.134271,0.54154 -0.248903,0.94037 -0.341393,1.12862 -0.03672,0.0749 -0.0512,0.0839 -0.05446,0.0891 -0.238775,-0.0665 -0.407765,-0.0122 -0.566514,0.0237 -0.0034,7.3e-4 -0.0034,7.3e-4 -0.0067,9.9e-4 0.05513,-0.10869 0.04671,-0.12503 0.177097,-0.31596 l 0.0347,-0.0503 0.01617,-0.0589 c 0.20208,-0.72218 0.223583,-1.20566 0.272348,-1.54461 0.04873,-0.33893 0.0969,-0.52553 0.397255,-0.88361 0.633459,-0.75554 1.178808,-1.02331 1.693794,-1.35297 0.144096,-0.0923 0.292234,-0.19193 0.419038,-0.26259 0.06647,-0.03706 0.07759,-0.03548 0.120696,-0.05087 z m 8.176928,0.299493 c 0.42331,0.29753 0.75706,0.47128 0.97274,0.57015 -0.0529,0.0473 -0.0286,0.0296 -0.12241,0.0958 -0.57283,0.40448 -1.149,1.01336 -1.66529,1.51917 -0.25816,0.25289 -0.50062,0.4794 -0.70058,0.63422 -0.19997,0.15479 -0.36869,0.21561 -0.37412,0.21593 -0.33106,0.0198 -0.56864,0.0258 -0.64645,-0.004 -0.0388,-0.0153 -0.0529,-0.0221 -0.0869,-0.0777 -0.0339,-0.0556 -0.0777,-0.16952 -0.10476,-0.36264 l -0.0158,-0.11161 -0.0746,-0.0837 c -0.25158,-0.28181 -0.50694,-0.73998 -0.88421,-1.1881 1.04103,-0.33315 2.12927,-0.63091 3.70241,-1.20685 z m 6.55407,0.12547 c 0.5972,0.38478 0.99308,0.60588 1.3499,0.80482 -0.21134,0.38167 -0.33386,0.72194 -0.38386,0.95037 -0.0328,0.14969 -0.0573,0.25319 -0.0813,0.30813 -0.0239,0.0549 -0.0331,0.0715 -0.0994,0.11457 -0.14483,0.0942 -0.25168,0.17887 -0.31481,0.22073 -0.003,0.003 -0.002,9.9e-4 -0.005,0.003 -0.009,-0.008 -0.008,-0.006 -0.0231,-0.0208 -0.0704,-0.0704 -0.18577,-0.21586 -0.34005,-0.44143 l -0.0577,-0.0843 -0.0933,-0.043 c -0.29091,-0.1337 -0.55675,-0.48345 -0.8048,-0.8884 -0.16941,-0.27657 -0.34041,-0.55326 -0.5495,-0.79889 3.1e-4,-6e-5 3.1e-4,5e-5 7.4e-4,0 0.37525,-0.07 0.93864,-0.10993 1.40271,-0.1249 z m 10.30122,0.40758 c 0.20058,0.0578 0.44217,0.12671 0.49191,0.17596 0.001,9.9e-4 0.20283,0.2684 0.40452,0.5998 0.20169,0.33138 0.44359,0.75839 0.67745,1.20627 0.46771,0.89571 0.89673,1.93496 0.93391,2.30697 0.062,0.62004 0.35042,1.47401 0.54949,2.20253 0.083,0.30356 0.13115,0.54532 0.1618,0.74592 -0.008,-0.0117 -0.0118,-9.9e-4 -0.0207,-0.0146 -0.10656,-0.16072 -0.21369,-0.43235 -0.34616,-0.70765 l -0.0248,-0.0521 -0.0401,-0.0419 c -0.69127,-0.73093 -1.18117,-1.12587 -1.5513,-1.45126 -0.37015,-0.3254 -0.61503,-0.56831 -0.91135,-1.07393 -0.35262,-0.60166 -0.77171,-0.87241 -1.08139,-1.00067 -0.15483,-0.0642 -0.27658,-0.1005 -0.32934,-0.12489 0,0 -2.1e-4,0 -2.1e-4,0 3e-5,-0.0286 7.5e-4,-0.0718 0.0124,-0.12623 0.0276,-0.12645 0.0824,-0.30343 0.15033,-0.50033 0.0813,-0.23558 0.17711,-0.51324 0.27234,-0.78168 0.0417,0.0356 0.0814,0.0692 0.12356,0.10533 l 0.54222,0.46533 0.0674,-0.71149 c 0.0375,-0.39534 -0.0279,-0.80982 -0.0817,-1.22138 z m -13.50692,0.25725 c 0.18779,-0.007 0.41579,0.12051 0.47242,0.24558 0.18981,0.41913 0.41619,1.20789 1.65076,1.94129 0.60948,0.36204 1.16064,0.5876 1.42278,0.75738 0.0953,0.0619 0.13564,0.10948 0.14879,0.12393 -0.006,0.012 -0.021,0.0374 -0.0622,0.0915 -0.28886,0.37952 -0.32148,0.62234 -0.36454,0.71129 -0.043,0.089 -0.16335,0.25174 -0.79011,0.70785 -1.33976,0.97501 -1.96991,1.99316 -2.12392,2.7964 -0.0217,0.1133 -0.0456,0.12552 -0.0406,0.12126 0.004,-0.003 0.007,0.003 -0.0486,0.003 -0.11128,0.003 -0.35752,-0.0775 -0.67304,-0.0559 -0.0129,9.9e-4 -0.0117,7.4e-4 -0.0173,7.4e-4 -0.004,-0.007 -0.007,-0.009 -0.0163,-0.0245 -0.0592,-0.10072 -0.16926,-0.36551 -0.40507,-0.68032 l -0.007,-0.008 -0.006,-0.008 c -0.99994,-1.19179 -1.89746,-1.62128 -2.16583,-1.99827 -0.2264,-0.31802 -0.58976,-0.67377 -0.85685,-0.99456 -0.13353,-0.1604 -0.23953,-0.31215 -0.28076,-0.39897 -0.003,-0.009 -0.001,-0.003 -0.003,-0.0101 0.18216,-0.20973 0.49327,-0.59989 0.89874,-1.04141 0.43357,-0.47216 0.95013,-0.95118 1.28143,-1.12079 0.4145,-0.21218 0.73557,-0.34619 1.01826,-0.49172 0.2827,-0.14553 0.53744,-0.31396 0.74171,-0.57435 0.0434,-0.0554 0.11411,-0.0901 0.22682,-0.094 z m -9.734927,0.0787 c 0.04402,1e-4 0.125367,0.028 0.265656,0.14364 0.140335,0.11562 0.318038,0.30314 0.533637,0.51736 0.392584,0.39006 0.809602,0.63789 1.10068,0.86123 0.291111,0.22332 0.430502,0.37614 0.459214,0.62637 0.0265,0.2311 -0.106447,0.6958 -0.434916,1.13895 -0.328525,0.44315 -0.832317,0.87107 -1.463316,1.12442 -1.448518,0.58154 -1.884107,1.16029 -2.633838,2.30754 l -0.03649,0.0565 -0.0146,0.0655 c -0.06355,0.28479 -0.09612,0.31205 -0.148598,0.43664 -0.04491,-0.10331 -0.08163,-0.1569 -0.126052,-0.29836 -0.08702,-0.27747 -0.167698,-0.60578 -0.234677,-0.91691 -0.07433,-0.34514 -0.166362,-0.57151 -0.241358,-0.72715 -0.07501,-0.15565 -0.109927,-0.21466 -0.12375,-0.2783 -0.02751,-0.12725 9.89e-4,-0.50366 0.325707,-1.73031 0.314647,-1.19081 0.63703,-1.58695 0.976974,-1.85942 0.339922,-0.27247 0.817215,-0.4448 1.275317,-1.03031 0.297635,-0.38044 0.460135,-0.43739 0.520399,-0.43723 z m 20.412737,2.65084 c 0.1192,-0.004 0.46852,0.14055 0.8205,0.40204 0.352,0.26151 0.72048,0.60676 1.01711,0.88974 0.50989,0.4864 0.68566,0.8319 0.71857,1.18924 0.0329,0.35734 -0.0947,0.79138 -0.34751,1.3985 -0.22675,0.54442 -0.40924,1.22122 -0.60037,1.73682 -0.0956,0.25779 -0.19604,0.4744 -0.27598,0.59004 -0.0324,0.0469 -0.0568,0.0711 -0.0699,0.0824 -0.16892,-0.008 -0.30678,0.0545 -0.42784,0.11424 -0.0265,-0.0625 -0.0281,-0.0543 -0.0643,-0.16009 l -0.0212,-0.0614 -0.04,-0.0503 c -0.33913,-0.42372 -0.82871,-0.90864 -1.22635,-1.36941 -0.19882,-0.23039 -0.37331,-0.45368 -0.48866,-0.64281 -0.1154,-0.18915 -0.15867,-0.34355 -0.15779,-0.39477 0.008,-0.47414 -0.2796,-0.75978 -0.32208,-0.83331 -0.0212,-0.0367 -0.0235,-0.0172 -0.0127,-0.0861 0.0101,-0.069 0.0633,-0.22377 0.21093,-0.47069 0.34414,-0.57578 0.56966,-1.17879 0.77576,-1.63124 0.10308,-0.22624 0.20194,-0.4139 0.28977,-0.53306 0.0877,-0.11915 0.15068,-0.15614 0.18513,-0.16506 0.009,-0.002 0.0208,-0.003 0.0368,-0.004 z m -16.65525,1.08006 h 2e-4 c 0.008,0.008 0.10959,0.0305 0.33776,0.22683 0.25478,0.21908 0.61614,0.59247 1.10606,1.15654 0.79159,0.91141 1.43475,1.22142 1.82308,1.48149 0.38833,0.26009 0.57072,0.42002 0.76101,1.33977 0.0914,0.44161 0.065,0.71419 -0.0101,0.91328 -0.0757,0.19908 -0.21049,0.35165 -0.4263,0.52576 -0.43166,0.34821 -1.16983,0.72232 -1.80167,1.55799 -0.61402,0.81213 -0.88897,1.55769 -1.08635,1.87224 -0.0987,0.15728 -0.12157,0.15333 -0.1224,0.1534 -9.9e-4,7e-5 -0.13758,-0.0229 -0.3961,-0.22434 -0.32363,-0.25219 -0.62703,-0.35435 -0.8974,-0.3372 0.004,-0.0678 0.003,-0.0481 0.0101,-0.12987 l 0.008,-0.10679 -0.0497,-0.0947 c -0.48135,-0.9082 -0.98376,-1.2977 -1.401541,-1.51975 -0.417792,-0.22205 -0.655759,-0.27018 -0.911545,-0.62523 -0.353666,-0.49088 -0.725702,-0.71528 -0.966622,-0.88553 -0.24092,-0.17025 -0.357551,-0.25189 -0.473171,-0.63919 -0.09544,-0.31965 -0.0034,-0.82129 0.222045,-1.25657 0.22493,-0.43529 0.588275,-0.78409 0.791433,-0.85875 0.469017,-0.17238 1.192304,-0.64261 1.904172,-1.14909 0.355929,-0.25323 0.696529,-0.51227 0.969109,-0.74247 0.27258,-0.2302 0.46643,-0.3749 0.59693,-0.63498 0.009,-0.0173 0.007,-0.0118 0.0138,-0.0229 z m 11.14927,0.0497 c 0.007,0.003 0.002,-0.008 0.0892,0.0691 0.12643,0.11093 0.31517,0.3265 0.55427,0.67437 0.59836,0.87055 1.10496,1.18866 1.41858,1.37669 0.31361,0.18801 0.37107,0.15568 0.50034,0.66537 0.26295,1.03702 0.0181,2.37394 -0.46592,3.23115 -0.34658,0.61364 -0.37556,1.45544 -0.43358,2.15721 -0.0291,0.35089 -0.0597,0.66573 -0.10252,0.85206 -0.0162,0.0709 -0.0289,0.0943 -0.0368,0.11341 -0.16502,0.0211 -0.32503,0.0507 -0.46036,0.10005 -0.18334,0.067 -0.35931,0.12985 -0.50091,0.14918 -0.1416,0.0193 -0.22897,0.008 -0.32572,-0.0575 -0.0967,-0.0657 -0.22709,-0.21707 -0.34619,-0.56039 l -0.009,-0.0254 -0.012,-0.0242 c -0.30788,-0.59031 -0.69239,-0.84919 -1.00737,-1.09093 -0.31497,-0.24175 -0.60578,-0.4869 -0.97159,-1.21242 -0.41465,-0.8223 -0.8649,-1.22791 -1.08425,-1.51362 -0.10971,-0.14284 -0.16207,-0.24036 -0.1863,-0.37963 -0.0241,-0.1393 -0.0164,-0.34194 0.0697,-0.66712 0.19245,-0.72562 0.25568,-1.06871 0.32515,-1.20322 0.0348,-0.0671 0.0638,-0.10352 0.15932,-0.17825 0.0956,-0.0748 0.2554,-0.17556 0.49439,-0.31959 0.49712,-0.29955 0.9905,-0.64787 1.38455,-0.96682 0.19702,-0.15946 0.36885,-0.3111 0.50702,-0.45059 0.13817,-0.13952 0.24388,-0.24616 0.31902,-0.4227 0.0563,-0.13213 0.0864,-0.24371 0.12126,-0.31596 z m -19.615553,1.02077 c 0.01179,-7.5e-4 0.03919,0.0146 0.122796,0.14114 0.111387,0.16881 0.256763,0.5177 0.389979,1.07888 0.348467,1.46801 0.71189,2.14787 0.828914,2.50112 0.05861,0.1766 0.06468,0.23236 0.03032,0.3542 -0.03413,0.12186 -0.142254,0.32692 -0.365107,0.65678 -0.424215,0.62789 -0.813633,0.88329 -1.17051,1.06379 -0.353733,0.17892 -0.727869,0.25723 -1.014051,0.61356 -2.2e-5,-7.4e-4 0,-7.4e-4 0,-0.001 v -0.009 l -7.41e-4,-0.008 c -0.04312,-0.6583 0.04929,-1.21606 0.13216,-1.74045 0.08298,-0.52442 0.166958,-1.0269 0.02268,-1.54347 -0.111163,-0.3978 -0.195433,-0.82246 -0.195849,-1.18447 -3.03e-4,-0.362 0.07882,-0.64044 0.247298,-0.82471 0.195444,-0.21377 0.371037,-0.4992 0.560395,-0.73501 0.189358,-0.2358 0.391585,-0.35943 0.403363,-0.36034 0.0022,-1.9e-4 0.0034,-0.002 0.0079,-0.002 z m 28.788933,1.46045 c 0.003,-0.004 -0.002,0.004 2.8e-4,0.004 0.003,1.1e-4 0.14129,0.0463 0.32035,0.20676 0.17909,0.16054 0.39821,0.40822 0.63977,0.70097 0.86542,1.04876 1.09098,2.15398 0.89032,2.90676 -0.0988,0.37094 -0.28844,0.60359 -0.55925,0.93946 -0.2708,0.33588 -0.60808,0.76042 -0.87136,1.4312 -0.27953,0.71206 -0.20842,1.36483 -0.14556,1.79878 0.0117,0.0787 0.0101,0.0956 0.0187,0.15894 l -0.0171,-0.0218 c -0.82011,-1.07098 -1.61009,-2.04238 -1.62474,-2.90083 -0.0101,-0.57215 -0.12286,-0.83934 -0.14612,-0.97274 -0.0232,-0.13342 -0.0221,-0.27143 0.20081,-0.88899 0.22435,-0.62142 0.45243,-1.122 0.63727,-1.52586 0.18484,-0.40388 0.33303,-0.69169 0.38463,-0.99455 0.0671,-0.39378 0.15553,-0.64859 0.22321,-0.76295 0.0338,-0.0571 0.0453,-0.0759 0.0486,-0.0805 z m -5.30839,2.00287 c 0.0828,0.0645 0.15967,0.12025 0.28076,0.23295 0.64966,0.6047 1.29488,1.22107 1.74658,1.83819 0.45169,0.61711 0.70038,1.21304 0.64281,1.81391 -0.0714,0.74572 -0.0466,1.17166 -0.0661,1.49736 -0.0196,0.32572 -0.0693,0.57171 -0.31768,1.10681 -0.28749,0.61949 -0.42213,1.31647 -0.55369,1.88123 -0.0658,0.2824 -0.13046,0.53162 -0.19893,0.7071 -0.0685,0.17547 -0.14447,0.2569 -0.15472,0.26317 -0.24845,0.15218 -0.35144,0.37116 -0.44201,0.55196 -0.0338,0.0675 -0.0442,0.0834 -0.0729,0.14058 -0.0694,-0.10296 -0.12849,-0.16686 -0.26376,-0.47299 l -0.0231,-0.0521 -0.0375,-0.0424 c -0.76495,-0.86977 -1.13356,-1.20422 -1.26518,-1.39122 -0.0658,-0.0935 -0.0863,-0.14298 -0.11516,-0.28077 -0.0289,-0.13777 -0.0531,-0.3569 -0.0922,-0.69789 -0.15426,-1.34448 -0.20637,-2.68917 0.0466,-3.30229 0.30216,-0.73216 0.89699,-1.68531 0.93946,-2.79085 0.0143,-0.37187 -0.0356,-0.73591 -0.0533,-1.00259 z m -9.07642,0.46648 c 0.0241,0.0101 0.009,10e-4 0.074,0.043 0.0915,0.0591 0.26661,0.27002 0.43187,0.56212 0.16526,0.2921 0.33391,0.65825 0.50397,1.0238 0.17006,0.36557 0.34066,0.72965 0.52826,1.03645 0.18758,0.3068 0.37436,0.58646 0.72831,0.70039 0.21531,0.0693 0.67698,0.42939 1.03835,0.87998 0.36138,0.45057 0.6451,0.99864 0.69732,1.33785 0.042,0.27234 0.12703,0.46849 0.18439,0.59253 0.0573,0.12403 0.0665,0.14677 0.0661,0.17577 -7.5e-4,0.0579 -0.12963,0.40999 -0.80425,1.34224 -0.71306,0.9854 -1.18824,2.07946 -1.56948,2.94061 -0.19061,0.43058 -0.35906,0.80355 -0.50818,1.06322 -0.14911,0.25966 -0.29303,0.37421 -0.29606,0.37525 -0.522,0.18147 -0.68018,0.68487 -0.77249,0.92684 -0.0144,0.0376 -7.4e-4,0.0162 -0.0135,0.0393 -0.37093,-0.20643 -0.72342,-0.23196 -0.88726,-0.28325 -0.0871,-0.0273 -0.11564,-0.0459 -0.14612,-0.0843 -0.0304,-0.0384 -0.0752,-0.1246 -0.0977,-0.32437 -0.0256,-0.22673 -0.0217,-0.34866 -0.0156,-0.39725 0.006,-0.0486 -0.008,-0.006 0.012,-0.0419 0.0198,-0.0359 0.0847,-0.2001 0.077,-0.33107 -0.008,-0.13043 -0.0406,-0.24887 -0.10251,-0.44391 -0.60282,-2.13326 -1.19003,-2.9556 -2.1226,-4.05489 -0.47653,-0.56172 -0.84719,-0.92081 -1.02246,-1.20857 -0.17529,-0.28775 -0.21985,-0.48481 -0.0705,-0.98671 0.13548,-0.45497 0.51964,-0.91317 1.06074,-1.42104 0.54108,-0.50789 1.22368,-1.06099 1.88543,-1.7466 0.55537,-0.5754 0.8311,-1.09376 0.99817,-1.43673 0.0682,-0.13989 0.10915,-0.21974 0.14251,-0.27885 z m -11.791137,0.55962 c 0.01752,0.0128 0.0439,0.0343 0.08669,0.082 0.740242,0.82772 1.082477,1.574 2.203312,2.15397 0.50689,0.26228 0.975783,0.54695 1.223104,0.84786 0.247297,0.3009 0.334274,0.56794 0.109815,1.09054 -0.269777,0.62798 -0.394594,0.95078 -0.559822,1.16496 -0.165228,0.21421 -0.410988,0.39073 -1.015208,0.72277 -1.284423,0.70588 -1.392172,1.27039 -1.49488,1.38894 -0.143871,0.16604 -0.181127,0.30226 -0.263747,0.4682 -0.08264,0.16592 -0.178747,0.33909 -0.278479,0.45901 -0.09971,0.11994 -0.185114,0.17363 -0.265466,0.18552 -0.07871,0.0117 -0.206414,-0.003 -0.433961,-0.17366 -0.400467,-0.393 -0.688176,-0.52757 -0.90217,-0.67706 -0.218249,-0.15245 -0.43587,-0.34959 -0.856839,-1.01348 -0.431076,-0.67985 -0.748036,-1.23558 -0.915756,-1.66222 -0.16771,-0.42666 -0.176008,-0.69087 -0.101394,-0.86011 0.01168,-0.0254 0.154011,-0.20138 0.372967,-0.38079 0.218957,-0.1794 0.507104,-0.38478 0.804234,-0.59863 0.594305,-0.42772 1.226563,-0.83726 1.516697,-1.39047 0.198454,-0.37842 0.335869,-0.87431 0.491923,-1.27416 0.07804,-0.19993 0.160569,-0.37289 0.227974,-0.47011 0.02369,-0.0343 0.03941,-0.0512 0.05109,-0.0631 z m 29.340137,1.02897 c 0.0101,0.009 0.0231,0.0237 0.0445,0.0513 0.0665,0.0862 0.16473,0.27263 0.25725,0.57798 0.49802,1.64365 0.88876,2.72788 0.6392,3.96978 -0.14888,0.74074 -0.15098,1.69984 -0.17349,2.52288 -0.0117,0.41153 -0.0267,0.78793 -0.0605,1.06379 -0.0339,0.27587 -0.14878,0.4448 -0.0734,0.37773 -0.19509,0.17369 -0.26083,0.37231 -0.32857,0.54396 -0.0678,0.17163 -0.12918,0.32603 -0.17598,0.3961 -0.0205,0.0308 -0.0228,0.041 -0.0221,0.0446 -9.9e-4,-0.001 -0.003,-0.003 -0.009,-0.003 -0.0257,-0.002 -0.19758,-0.0716 -0.44564,-0.27715 -0.05,-0.0606 -0.16264,-0.26449 -0.25723,-0.53972 -0.0976,-0.28386 -0.18915,-0.63633 -0.26434,-0.99512 -0.15036,-0.71756 -0.22848,-1.49909 -0.20808,-1.75633 0.0227,-0.28489 -0.0575,-0.54249 -0.14728,-0.8205 -0.0897,-0.27802 -0.19976,-0.57031 -0.28689,-0.85876 -0.17423,-0.5769 -0.23244,-1.08283 0.009,-1.42393 0.35704,-0.50401 0.66858,-1.0018 0.89988,-1.43558 0.2313,-0.43379 0.39213,-0.7712 0.41733,-1.11046 9.9e-4,-0.0137 0.0463,-0.16047 0.10891,-0.2473 0.0345,-0.0476 0.0626,-0.0687 0.0764,-0.079 z m -33.985064,0.90753 c -0.0034,0.004 -0.01347,0.0184 -0.01696,0.0229 -0.0056,0.008 -0.01168,0.0127 -0.0155,0.0167 l -0.0034,-0.003 c 0.0056,-0.008 0.01617,-0.0189 0.03672,-0.035 z m 29.443414,2.86372 c 0.1154,0.16844 0.24975,0.37741 0.44832,0.75816 0.45687,0.87597 0.98222,1.26425 1.30382,1.56947 0.32159,0.30523 0.4825,0.48011 0.49057,1.26135 0.004,0.43854 0.0303,0.74555 0.0394,0.95515 0.009,0.20959 -9.8e-4,0.29801 -0.0272,0.36263 -0.0523,0.12923 -0.32661,0.37817 -1.14565,1.06626 -0.81405,0.68395 -1.22941,1.02179 -1.50041,1.2893 -0.27103,0.26749 -0.39448,0.49245 -0.52273,0.78529 v 7.6e-4 c -0.0551,0.12615 -0.0941,0.25632 -0.13522,0.38442 -0.0158,-0.0473 -0.0155,-0.0275 -0.0316,-0.0824 -0.2446,-0.83999 -0.59142,-1.25146 -0.81936,-1.49201 -0.114,-0.12026 -0.17949,-0.19239 -0.20866,-0.24673 -0.0292,-0.0543 -0.0493,-0.10802 -0.0387,-0.27292 0.0295,-0.4703 -0.0361,-0.77203 -0.0406,-0.97773 -0.003,-0.20568 0.0154,-0.35465 0.24615,-0.73136 l 0.007,-0.0126 0.007,-0.0128 c 0.68376,-1.34023 0.99294,-1.57262 1.4882,-2.77266 0.25432,-0.61627 0.35302,-1.11927 0.40031,-1.48955 0.0272,-0.21243 0.0267,-0.23604 0.0393,-0.34198 z m -19.51034,0.0927 c -10e-4,9e-5 0.036,-0.003 0.14439,0.0824 0.10824,0.086 0.2653,0.25339 0.45844,0.51124 0.57977,0.77401 0.85809,1.28361 1.1554,1.73453 0.29732,0.45093 0.62621,0.84094 1.22561,1.25964 0.46556,0.32523 0.85746,0.96209 1.0741,1.72783 0.21663,0.76576 0.2601,1.65008 0.0963,2.42766 -0.0958,0.45498 -0.0957,0.76544 -0.0546,0.99322 0.0345,0.19124 0.0711,0.26577 0.0826,0.2796 -0.0101,0.0144 -0.0131,0.0217 -0.0533,0.0649 -0.12031,0.12906 -0.37751,0.3621 -0.81705,0.74917 -0.92686,0.81617 -1.33679,1.59685 -1.56584,2.15108 -0.11459,0.27712 -0.1903,0.49897 -0.24616,0.6107 -0.024,0.0481 -0.0373,0.0622 -0.0414,0.0674 -0.25522,0.0337 -0.40773,0.077 -0.39762,0.0775 -0.001,-0.002 -0.0648,-0.0189 -0.26661,-0.10634 -0.32813,-0.31324 -0.69711,-0.3498 -0.88878,-0.36971 -0.20339,-0.0211 -0.33026,-0.0202 -0.72718,-0.42937 -0.449692,-0.46352 -0.687804,-0.64998 -0.855694,-0.7901 -0.167912,-0.14011 -0.270574,-0.2311 -0.55734,-0.60341 -0.313479,-0.407 -0.483333,-0.54549 -0.570714,-0.67687 -0.08736,-0.13137 -0.171887,-0.34651 -0.330501,-1.00679 -0.178546,-0.74333 -0.534614,-1.29357 -0.742275,-1.85559 -0.20765,-0.56203 -0.305765,-1.13207 -0.0201,-2.04628 0.289764,-0.92722 0.653423,-1.35751 1.109089,-1.76533 0.455688,-0.40782 1.030478,-0.78363 1.610804,-1.49145 0.378851,-0.46209 0.639281,-0.90702 0.844211,-1.21104 0.1024,-0.15202 0.1924,-0.26728 0.2559,-0.32745 0.0634,-0.0601 0.0797,-0.057 0.0783,-0.057 z m 12.92836,0.62218 h 1.9e-4 c 0.0322,0.04 0.0903,0.14012 0.14248,0.31597 0.16034,0.54127 0.528,1.32654 0.95267,2.07478 0.42466,0.74823 0.86305,1.43028 1.32945,1.7812 0.22542,0.1696 0.46582,0.63189 0.63001,1.12671 0.16417,0.49481 0.26122,0.98356 0.37849,1.30265 0.15819,0.43043 0.5147,0.60587 0.74535,0.79698 0.23066,0.1911 0.35331,0.31581 0.34751,0.59367 -0.0101,0.5027 0.12779,1.10514 0.19643,1.65746 0.0344,0.27615 0.0511,0.5354 0.0358,0.73386 -0.0154,0.19846 -0.0658,0.32008 -0.10734,0.36684 -0.53186,0.59969 -0.6843,1.02816 -1.1116,1.34148 -0.34221,0.25095 -0.49493,0.57922 -0.62522,0.79929 -0.1303,0.22005 -0.19968,0.32085 -0.39305,0.37714 -0.4421,0.12874 -0.70921,0.43712 -0.90541,0.58776 -0.0981,0.0752 -0.16882,0.10746 -0.1989,0.11283 -0.0301,0.005 -0.04,0.0153 -0.12987,-0.0474 -0.2764,-0.19307 -0.45329,-0.37658 -0.6962,-0.5166 -0.12144,-0.07 -0.28057,-0.13091 -0.45901,-0.11644 -0.17845,0.0145 -0.33742,0.10105 -0.46878,0.21287 -0.23923,0.20369 -0.32437,0.43946 -0.36932,0.56287 -3e-4,-0.001 0.007,0.0117 -0.009,-0.0227 -0.0505,-0.11295 -0.1363,-0.41087 -0.33661,-0.8448 l -0.002,-0.003 -0.002,-0.003 c -0.29374,-0.60183 -0.40013,-0.90442 -0.56461,-1.20913 -0.16445,-0.30474 -0.3764,-0.57085 -0.81569,-1.02193 -0.88062,-0.90416 -1.72449,-1.6059 -2.03711,-2.60609 -0.0935,-0.29952 -0.19925,-0.48268 -0.30086,-0.61431 0.0824,-0.1126 0.19287,-0.25982 0.38521,-0.54701 0.48148,-0.719 0.69756,-1.53525 0.95036,-2.2274 0.2528,-0.69215 0.5244,-1.23143 1.03031,-1.52778 1.38404,-0.8107 1.69717,-2.20101 2.0438,-2.91881 0.0962,-0.19917 0.20121,-0.35652 0.28498,-0.44584 0.0677,-0.0721 0.082,-0.0686 0.0787,-0.071 z m -21.936505,1.6672 c 7.41e-4,0.003 0.001,0.004 0.01752,0.026 0.04132,0.0542 0.1126,0.20185 0.166789,0.45367 0.147296,0.6842 0.465233,1.09056 0.590801,1.40767 0.125558,0.3171 0.164892,0.56819 -0.206953,1.26691 -0.385364,0.72414 -0.593351,0.89926 -0.771918,1.08538 -0.08927,0.093 -0.198645,0.22361 -0.251127,0.39726 -0.05255,0.17362 -0.05266,0.34688 -0.0375,0.58581 0.02987,0.47394 0.12202,1.09456 0.180544,1.61806 0.02931,0.26175 0.04974,0.4992 0.05165,0.66407 7.3e-4,0.0714 -0.0034,0.12504 -0.0056,0.15777 -0.112286,0.12947 -0.09185,0.20496 -0.110152,0.29166 -0.0045,0.0255 -0.0079,0.054 -0.01258,0.0802 -0.04559,-0.12086 -0.04941,-0.0907 -0.100833,-0.24997 l -0.0034,-0.007 -0.0034,-0.007 c -0.602726,-1.62998 -0.655501,-2.98658 -0.49976,-3.96614 0.04256,-0.26756 0.0631,-0.43545 0.06804,-0.57321 0.0045,-0.13776 -0.01168,-0.24974 -0.0274,-0.33164 -0.03133,-0.16382 -0.06782,-0.28809 -0.05457,-0.97714 0.01347,-0.70948 0.0347,-0.96054 0.04491,-0.98729 0.0045,-0.0135 0.0056,-0.0165 0.07097,-0.0849 0.06546,-0.0685 0.177927,-0.17998 0.323225,-0.35595 0.133092,-0.16121 0.267599,-0.30045 0.378492,-0.38749 0.109366,-0.0858 0.187809,-0.10554 0.191245,-0.10622 z m 2.748403,2.56039 c 0.05188,0.13953 0.101057,0.32855 0.214027,0.52577 0.194872,0.34027 -0.05446,-0.0194 0.48751,0.76428 0.166059,0.2401 0.199475,0.80712 0.239651,1.43425 0.0402,0.62714 0.12037,1.36394 0.714361,1.82366 0.38597,0.29874 0.461774,0.51503 0.482154,0.77978 0.02032,0.26474 -0.06265,0.59687 -0.102517,0.9953 -0.05592,0.55881 -0.496257,1.05535 -1.174147,1.81085 l -0.05805,0.0642 -0.02313,0.0838 c -0.148082,0.53312 -0.294367,0.88999 -0.415411,1.10435 -0.06221,0.11016 -0.06557,0.0953 -0.103191,0.13407 -0.0174,-0.21322 -0.08163,-0.39141 -0.183025,-0.59501 -0.1147,-0.23057 -0.265252,-0.48111 -0.428807,-0.73253 -0.327111,-0.50282 -0.702582,-1.0008 -0.943098,-1.28506 -0.353071,-0.41726 -0.272214,-0.77203 -0.224347,-1.2166 0.03694,-0.34362 -0.04559,-0.74489 -0.102516,-1.2384 -0.05682,-0.49351 -0.09746,-1.03552 -0.04548,-1.4136 0.106222,-0.77354 0.534064,-1.16831 0.81992,-1.68901 0.235823,-0.42956 0.559789,-1.06004 0.846139,-1.3501 z m 28.610682,1.54596 h 2e-4 c 0.0161,0.009 0.003,10e-4 0.0218,0.0121 0.13703,0.083 0.33735,0.21946 0.60877,0.40585 0.58654,0.40276 1.01311,0.53341 1.16438,0.64816 0.0756,0.0574 0.10578,0.0903 0.14631,0.21786 0.0406,0.12751 0.0713,0.35315 0.0715,0.7088 7.4e-4,0.78485 0.11539,1.38936 0.18494,1.90247 0.0695,0.5131 0.0961,0.92389 -0.0389,1.40957 -0.31761,1.14328 -0.35075,1.93959 -0.73328,2.76178 -0.21303,0.45782 -0.37627,0.86221 -0.53477,1.15711 -0.15847,0.29494 -0.30281,0.45998 -0.44831,0.52999 -0.0497,0.0239 -0.0647,0.0437 -0.10622,0.0691 -0.0222,-0.13323 -0.0427,-0.24237 -0.0726,-0.48389 l -0.006,-0.0455 -0.0162,-0.043 c -0.52593,-1.34911 -0.58769,-1.91499 -0.98193,-2.61012 -0.22204,-0.39151 -0.53858,-0.63704 -0.8138,-0.86238 -0.27524,-0.22534 -0.51317,-0.42939 -0.68166,-0.72354 -0.25689,-0.44849 -0.60102,-0.63252 -0.63381,-0.67074 -0.003,-0.004 -0.006,-0.004 -0.008,-0.003 9.9e-4,-0.003 0.003,-0.0117 0.006,-0.0362 0.007,-0.0712 0.0546,-0.24583 0.18264,-0.52404 0.30951,-0.67226 0.23954,-1.21642 0.22492,-1.53007 -0.007,-0.15684 9.9e-4,-0.24326 0.0299,-0.30871 0.0288,-0.0655 0.0862,-0.14625 0.27885,-0.26621 0.4393,-0.2736 0.87372,-0.46318 1.25294,-0.67745 0.37923,-0.21429 0.74405,-0.48015 0.86967,-0.93029 0.0165,-0.0591 0.0195,-0.0628 0.0328,-0.10622 z m -15.92866,2.60475 c 0.003,0.002 0.0101,0.009 0.0299,0.0266 0.0387,0.0359 0.10207,0.12169 0.16868,0.2408 0.13322,0.23819 0.27929,0.59603 0.5124,0.92913 0.68121,0.9735 1.93035,1.85116 3.20627,3.67581 0.61511,0.87967 0.70542,1.49352 0.59749,2.00918 -0.10791,0.51566 -0.45074,0.97325 -0.84306,1.43367 -0.81156,0.9524 -1.46932,1.89443 -1.70681,2.86737 -0.0408,0.13169 -0.0826,0.20334 -0.11015,0.23525 -0.0282,0.0327 -0.0396,0.0411 -0.0989,0.0565 -0.11833,0.0308 -0.4313,0.0165 -0.91498,-0.0316 -2.9e-4,-5e-5 -0.0374,-0.008 -0.10925,-0.0826 -0.0719,-0.0745 -0.16342,-0.20291 -0.25725,-0.3613 -0.18765,-0.31674 -0.38766,-0.74427 -0.63785,-1.12499 -0.25017,-0.38071 -0.56812,-0.76027 -1.06627,-0.83389 -0.49813,-0.0737 -1.00596,0.21188 -1.52815,0.81745 -0.46571,0.54006 -0.80198,0.77285 -0.92244,0.81457 -0.0143,0.004 -0.0128,0.003 -0.0193,0.006 -0.003,-0.006 -0.004,-0.007 -0.0101,-0.0188 -0.0423,-0.0926 -0.0802,-0.34468 -0.0805,-0.59672 -2.9e-4,-0.25206 0.0224,-0.50598 0.0363,-0.67075 0.0321,-0.3815 -0.0386,-0.71966 -0.16141,-1.11524 -0.12275,-0.39556 -0.29864,-0.86961 -0.5166,-1.60179 -0.20542,-0.69008 -0.16805,-1.02736 0.002,-1.44687 0.16991,-0.41951 0.5201,-0.92388 0.92895,-1.73875 0.37596,-0.74931 0.6303,-0.94838 1.02993,-1.23956 0.39964,-0.29114 0.94508,-0.65402 1.6785,-1.55262 0.46512,-0.56986 0.75933,-0.69549 0.78359,-0.69619 0.006,-2e-4 0.006,-0.003 0.009,-7.5e-4 z m -15.697979,0.96243 c -2.58e-4,0.002 -3.25e-4,0.006 -7.52e-4,0.007 -0.0034,0.0167 -0.009,0.0134 7.52e-4,-0.007 z m -0.949037,0.93927 c -7.3e-4,0.003 -0.0022,0.0128 -0.0034,0.0221 l -7.3e-4,-1.9e-4 c 9.89e-4,-0.008 9.89e-4,-0.0135 0.0034,-0.022 z m 28.942506,1.19612 c 0.21733,0.35655 0.58057,0.74919 0.9672,1.18735 0.40261,0.45629 0.80879,0.94301 0.98613,1.27839 0.23242,0.43957 0.53109,0.83713 0.73751,1.20455 0.20638,0.36741 0.3085,0.67631 0.25475,0.95992 -0.1512,0.79782 -0.35728,1.32727 -0.65507,1.58841 -0.26907,0.236 -0.49488,0.57118 -0.75318,0.90294 -0.25829,0.33175 -0.53967,0.6499 -0.78664,0.80902 -0.35347,0.22771 -0.66513,0.46584 -0.83197,0.50148 -0.0834,0.0179 -0.11622,0.0179 -0.20007,-0.0375 -0.0838,-0.0554 -0.21658,-0.19588 -0.36339,-0.47988 -0.22242,-0.46591 -0.62813,-1.20891 -1.06494,-1.91507 -0.43988,-0.71115 -0.86683,-1.35916 -1.28506,-1.69514 -0.31337,-0.2517 -0.53484,-0.46891 -0.56402,-0.53419 -0.0146,-0.0327 -0.0144,-0.004 -0.002,-0.0353 0.0127,-0.0298 0.0722,-0.11756 0.22072,-0.23411 0.74884,-0.58745 1.38191,-1.33602 2.03881,-1.90609 0.33166,-0.2878 0.5094,-0.40163 0.68415,-0.56343 0.17473,-0.16183 0.30675,-0.36402 0.45117,-0.68836 0.0652,-0.14654 0.11621,-0.24832 0.16564,-0.34312 z m -21.664516,0.004 c 0.159097,0.16349 0.173728,0.19354 0.39666,0.39955 0.528764,0.48858 1.128391,1.02265 1.758626,1.16994 0.45815,0.10712 0.71055,0.16276 0.89893,0.35841 0.18839,0.19566 0.38318,0.62306 0.52444,1.57445 0.15143,1.01994 0.42915,1.81401 0.57685,2.47737 0.14768,0.66337 0.17751,1.16448 -0.0989,1.74468 -0.65036,1.36511 -0.59599,1.65666 -0.74533,2.13541 -0.077,0.24672 -0.1969,0.54684 -0.30142,0.82605 -0.0781,0.20868 -0.12227,0.39081 -0.15951,0.58141 -0.0513,-0.10734 -0.0768,-0.12552 -0.14,-0.28859 l -0.0333,-0.0861 -0.0705,-0.0605 c -0.575714,-0.49529 -0.922945,-0.65704 -1.209128,-0.7369 -0.286204,-0.0798 -0.433781,-0.0779 -0.900058,-0.35479 -0.246545,-0.14638 -0.393707,-0.24533 -0.473576,-0.32133 -0.07984,-0.0759 -0.112285,-0.12591 -0.161983,-0.26987 -0.09937,-0.28788 -0.191458,-0.9094 -0.515447,-2.1396 -0.327963,-1.24526 -0.668862,-1.90844 -0.860668,-2.36032 -0.191806,-0.45192 -0.251565,-0.63438 -0.108356,-1.22445 0.154561,-0.63717 0.235384,-0.86058 0.357843,-1.07219 0.122481,-0.21163 0.325482,-0.45625 0.693127,-1.0353 0.328907,-0.51802 0.483131,-0.95702 0.571882,-1.31721 z m -6.16524,0.34274 c -0.01011,0.009 0.01696,0.0118 0.153382,0.14364 0.172235,0.16642 0.409674,0.42954 0.719335,0.74113 0.352868,0.3551 0.563359,0.95307 0.750696,1.53792 0.09353,0.29242 0.182587,0.57854 0.30581,0.83638 0.123233,0.25783 0.288057,0.50934 0.575508,0.64453 0.194445,0.0915 0.47599,0.42417 0.704592,0.8819 0.228613,0.45773 0.418847,1.0218 0.54948,1.52701 0.141817,0.5484 0.351353,1.13324 0.517367,1.62782 0.08309,0.24729 0.155145,0.47242 0.201968,0.65008 0.04682,0.17767 0.05917,0.32091 0.05873,0.32629 -0.0034,0.0269 -0.04649,0.098 -0.166789,0.14669 -0.120337,0.0486 -0.268576,0.0407 -0.334701,0.003 -0.295042,-0.17006 -0.73565,-0.60592 -1.280291,-1.13167 -1.131322,-1.91476 -1.563734,-2.79424 -2.100021,-3.63622 -0.27593,-0.4332 -0.43487,-0.62301 -0.492495,-0.78111 -0.0576,-0.15811 -0.07186,-0.38493 0.0022,-0.9892 0.08444,-0.69209 -0.06075,-1.23641 -0.163914,-1.63985 -0.102966,-0.40343 -0.146218,-0.61424 -0.04301,-0.81992 0.02167,-0.0433 0.02751,-0.0464 0.04244,-0.0679 z m 22.265266,2.82777 c 8e-5,1.1e-4 9.9e-4,10e-4 9.9e-4,10e-4 l -0.32742,0.0812 0.34445,-0.0572 c 0.003,0.004 0.0155,0.0217 0.0204,0.0289 -0.0101,0.0638 -0.0838,0.10095 -0.1467,0.13694 l -0.0923,-0.008 c -0.0619,-0.0491 -0.12582,-0.0999 -0.12603,-0.10005 0,0 0,-1.9e-4 0,-1.9e-4 a 0.16536119,0.16536119 0 0 1 -0.002,-0.0147 z m -0.0647,0.52349 c 0.12268,0.17084 0.18168,0.26805 0.43244,0.56937 0.40899,0.49142 0.90172,1.0299 1.41417,1.28028 0.36272,0.17723 0.88345,0.79741 1.3021,1.65861 0.41674,0.85729 0.73476,1.93598 0.76409,3.00142 0.0299,1.08587 -0.0833,1.71043 -0.21344,2.05395 -0.12904,0.34051 -0.26446,0.39309 -0.28135,0.398 -0.0374,0.0101 -0.0101,-7.3e-4 -0.18075,-0.0256 -0.12962,-0.019 -0.30285,-0.0446 -0.50511,-0.0509 -0.4037,-0.0128 -0.93484,0.0542 -1.47385,0.3917 -0.50397,0.3155 -0.80092,0.52384 -1.04064,0.65507 -0.22942,0.12561 -0.41072,0.18331 -0.71016,0.21823 -0.0785,-0.006 -0.25461,-0.0705 -0.52938,-0.20178 -0.26877,-0.12838 -0.58961,-0.30103 -0.89643,-0.47318 -0.61286,-0.34386 -1.19587,-0.70092 -1.1971,-0.70154 l 0.0248,0.0131 c 0,0 -0.38953,-0.23599 -0.71264,-0.67304 -0.32069,-0.43377 -0.57239,-1.04686 -0.30315,-1.84736 0.28887,-0.85882 0.6659,-1.70577 1.05041,-2.38024 0.38652,-0.67796 0.78266,-1.16686 1.06016,-1.3258 0.38761,-0.22202 0.78911,-0.62367 1.1462,-1.06014 0.35751,-0.43699 0.64837,-0.8779 0.77385,-1.24435 0.0465,-0.13561 0.0485,-0.1669 0.0746,-0.25475 z m -0.58333,0.46838 0.13887,0.35384 -0.41314,0.12984 0.0597,-0.13903 c 0.0821,-0.12072 0.15404,-0.23689 0.2146,-0.34465 z m 10.89241,1.30878 0.0287,0.0586 c -0.009,-0.0165 -0.0318,-0.0565 -0.032,-0.0568 9.9e-4,-7.4e-4 0.002,-9.9e-4 0.003,-0.002 z m -18.57262,1.97916 c 0,0 0.009,0.0157 0.0101,0.0188 -7.3e-4,-9.9e-4 -0.003,-9.9e-4 -0.003,-0.003 z m 0.15702,0.22816 c 0.031,0.0393 0.05,0.0664 0.0989,0.123 0.18546,0.2145 0.50632,0.54819 1.06321,1.05153 0.55168,0.49866 0.95387,0.87088 1.21411,1.29063 0.25876,0.41738 0.39387,0.89295 0.39476,1.6519 9.9e-4,0.78215 -0.0323,1.10217 -0.0661,1.29904 -0.034,0.19797 -0.0799,0.31846 -0.0922,0.63746 -0.007,0.18772 -0.21335,0.47159 -0.51794,0.70038 -0.30833,0.2316 -0.63721,0.34626 -0.76945,0.32381 -0.53945,-0.0916 -1.30224,-0.0101 -1.95659,0.0268 7.5e-4,8e-5 0.009,0.001 0.0128,0.002 -0.009,7.5e-4 -0.0257,0.002 -0.0509,0.003 0.0148,-0.002 0.0333,-0.004 0.0344,-0.006 -0.008,2.9e-4 -0.0162,1e-4 -0.0243,7.4e-4 l -0.0467,0.003 -0.0291,0.009 -0.0146,0.004 h -7.3e-4 -7.5e-4 c -1.01558,0.31847 -1.63277,0.26216 -2.02391,0.10005 -0.3993,-0.1655 -0.60068,-0.44214 -0.80596,-0.67552 -0.12476,-0.14185 -0.22418,-0.52528 -0.27045,-0.98116 -0.0454,-0.44802 -0.0483,-0.934 -0.0565,-1.2713 -0.003,-0.1188 0.0427,-0.37171 0.13294,-0.67611 0.0894,-0.30175 0.21859,-0.65099 0.36872,-0.9842 0.15036,-0.33357 0.3218,-0.65115 0.49002,-0.88802 0.17252,-0.24294 0.32357,-0.37132 0.41465,-0.39783 0.42458,-0.12362 1.05016,-0.47902 1.62724,-0.81628 0.47278,-0.27634 0.74155,-0.44774 0.87386,-0.53115 z m 16.45807,0.097 c -0.0997,0.25433 -0.20534,0.51736 -0.34619,0.79008 -0.36381,0.7044 -0.8807,1.38035 -1.13532,1.53007 -0.51325,0.30186 -0.80576,0.78157 -1.02018,1.14986 -0.10723,0.18414 -0.19657,0.34472 -0.26183,0.4355 -0.031,0.0431 -0.0511,0.058 -0.0546,0.0622 -0.20081,0.0322 -0.32609,0.1411 -0.43473,0.23928 0.0175,-0.19366 0.0399,-0.43671 0.057,-0.83217 0.11644,-0.35889 0.22611,-0.74066 0.36376,-1.03873 0.14296,-0.30956 0.30231,-0.49705 0.46705,-0.5579 0.3517,-0.12995 0.82752,-0.37962 1.28202,-0.69199 0.44457,-0.30553 0.86122,-0.65061 1.0831,-1.08616 z m -25.402697,3.05402 c 0.494909,0.0327 1.215322,0.11423 1.775088,0.42747 0.92173,0.5158 1.270466,1.10951 1.647119,1.60773 0.16311,0.21576 0.47839,0.6735 0.64723,1.00621 -0.28573,-0.0692 -0.56606,-0.13473 -0.75625,-0.11341 -0.245984,0.0275 -0.446515,0.0706 -0.865463,0.0595 -0.496785,-0.15842 -0.958728,-0.28875 -1.287545,-0.44583 -0.343392,-0.16402 -0.527282,-0.32551 -0.60897,-0.58219 -0.113767,-0.3574 -0.1456,-0.56187 -0.184956,-0.7811 -0.0393,-0.21923 -0.08927,-0.45774 -0.224347,-0.78052 -0.106334,-0.254 -0.0914,-0.2484 -0.141906,-0.39783 z m 12.817437,2.18821 c 0.0101,0.004 0.003,-7.6e-4 0.0183,0.009 0.75196,0.46191 1.3455,0.95224 2.26259,1.32448 0.30839,0.12515 0.50542,0.1845 0.72105,0.25589 -0.0967,0.0276 -0.0925,0.0495 -0.21766,0.0595 -0.36581,0.0292 -0.81806,-0.0143 -1.21297,-0.15646 -0.51292,-0.1848 -0.89963,-0.12579 -1.12804,-0.0254 -0.22841,0.10038 -0.21635,0.14332 -0.40929,0.11217 -0.29164,-0.0473 -0.45499,-0.0338 -0.55791,-0.0314 0.004,-0.0268 0.007,-0.0382 0.0129,-0.0595 0.26161,-0.36584 0.31487,-0.80413 0.39629,-1.13723 0.0398,-0.16259 0.0826,-0.28571 0.11457,-0.35094 z m 3.66051,2.39953 v 2e-4 2e-4 l -0.003,-2e-4 c 9.9e-4,7e-5 0.003,-3e-4 0.003,-2e-4 z m -0.64338,0.0799 c 0.003,9.9e-4 0.0273,0.009 0.0307,0.0101 0.003,9.9e-4 0.004,0.003 0.008,0.003 l -0.002,0.003 c -0.008,-0.003 -0.0195,-0.008 -0.0363,-0.0194 z m -7.30554,0.84709 0.0706,0.32953 -0.003,7.6e-4 -0.0744,-0.32994 c 0.002,-8e-5 0.003,-2.8e-4 0.006,-2.8e-4 z m -0.0592,0.003 0.0738,0.34503 -0.0267,0.003 -0.0849,-0.0849 v -0.26202 c 0.0123,-7.4e-4 0.0255,-9.9e-4 0.0379,-0.002 z m -0.0593,0.003 -0.0532,0.0437 -0.002,-0.0288 c 0.0185,-0.004 0.0367,-0.009 0.0551,-0.0149 z"
       id="path831-5-4-4-1-3-5-9-7-3"
       inkscape:connector-curvature="0"
       inkscape:export-filename="C:\Users\jordy\Desktop\logo2.png"
       inkscape:export-xdpi="12.49"
       inkscape:export-ydpi="12.49" />
    <flowRoot
       xml:space="preserve"
       id="flowRoot994"
       style="font-style:normal;font-weight:normal;font-size:40px;line-height:1.25;font-family:sans-serif;letter-spacing:0px;word-spacing:0px;fill:#000000;fill-opacity:1;stroke:none"
       transform="matrix(0.69837827,1.2096266,-0.93083773,0.53741944,2380.2989,3187.3378)"
       inkscape:export-filename="C:\Users\jordy\Desktop\logo2.png"
       inkscape:export-xdpi="12.49"
       inkscape:export-ydpi="12.49"><flowRegion
         id="flowRegion996"><rect
           id="rect998"
           width="726"
           height="428"
           x="-2744"
           y="318.51968" /></flowRegion><flowPara
         id="flowPara1000"
         style="font-style:normal;font-variant:normal;font-weight:normal;font-stretch:normal;font-family:'Palatino Linotype';-inkscape-font-specification:'Palatino Linotype';fill:#ffffff">14</flowPara></flowRoot>
    <flowRoot
       xml:space="preserve"
       id="flowRoot994-1"
       style="font-style:normal;font-variant:normal;font-weight:normal;font-stretch:normal;font-size:40px;line-height:1.25;font-family:'Palatino Linotype';-inkscape-font-specification:'Palatino Linotype';letter-spacing:0px;word-spacing:0px;fill:#000000;fill-opacity:1;stroke:none"
       transform="matrix(0.69837823,-1.2096266,0.93083776,0.53741941,1639.4921,-3415.9315)"
       inkscape:export-filename="C:\Users\jordy\Desktop\logo2.png"
       inkscape:export-xdpi="12.49"
       inkscape:export-ydpi="12.49"><flowRegion
         id="flowRegion996-6"
         style="font-style:normal;font-variant:normal;font-weight:normal;font-stretch:normal;font-family:'Palatino Linotype';-inkscape-font-specification:'Palatino Linotype'"><rect
           id="rect998-0"
           width="726"
           height="428"
           x="-2744"
           y="318.51968"
           style="font-style:normal;font-variant:normal;font-weight:normal;font-stretch:normal;font-family:'Palatino Linotype';-inkscape-font-specification:'Palatino Linotype'" /></flowRegion><flowPara
         id="flowPara1000-8"
         style="font-style:normal;font-variant:normal;font-weight:normal;font-stretch:normal;font-family:'Palatino Linotype';-inkscape-font-specification:'Palatino Linotype';fill:#ffffff">2</flowPara></flowRoot>
    <flowRoot
       xml:space="preserve"
       id="flowRoot994-1-3"
       style="font-style:normal;font-variant:normal;font-weight:normal;font-stretch:normal;font-size:40px;line-height:1.25;font-family:'Palatino Linotype';-inkscape-font-specification:'Palatino Linotype';letter-spacing:0px;word-spacing:0px;fill:#000000;fill-opacity:1;stroke:none"
       transform="matrix(-1.3967565,0,-1.4792901e-8,-1.0748389,-3713.468,542.86604)"
       inkscape:export-filename="C:\Users\jordy\Desktop\logo2.png"
       inkscape:export-xdpi="12.49"
       inkscape:export-ydpi="12.49"><flowRegion
         id="flowRegion996-6-3"
         style="font-style:normal;font-variant:normal;font-weight:normal;font-stretch:normal;font-family:'Palatino Linotype';-inkscape-font-specification:'Palatino Linotype'"><rect
           id="rect998-0-3"
           width="726"
           height="428"
           x="-2744"
           y="318.51968"
           style="font-style:normal;font-variant:normal;font-weight:normal;font-stretch:normal;font-family:'Palatino Linotype';-inkscape-font-specification:'Palatino Linotype'" /></flowRegion><flowPara
         id="flowPara1000-8-3"
         style="font-style:normal;font-variant:normal;font-weight:normal;font-stretch:normal;font-family:'Palatino Linotype';-inkscape-font-specification:'Palatino Linotype';fill:#ffffff">8</flowPara></flowRoot>
  </g>
</svg>
