<?xml version="1.0" encoding="UTF-8" standalone="no"?>
<svg
   xmlns:dc="http://purl.org/dc/elements/1.1/"
   xmlns:cc="http://creativecommons.org/ns#"
   xmlns:rdf="http://www.w3.org/1999/02/22-rdf-syntax-ns#"
   xmlns:svg="http://www.w3.org/2000/svg"
   xmlns="http://www.w3.org/2000/svg"
   xmlns:sodipodi="http://sodipodi.sourceforge.net/DTD/sodipodi-0.dtd"
   xmlns:inkscape="http://www.inkscape.org/namespaces/inkscape"
   sodipodi:docname="blinded.svg"
   inkscape:version="1.0 (4035a4fb49, 2020-05-01)"
   id="svg8"
   version="1.1"
   viewBox="0 0 119.394 101.087"
   height="101.087mm"
   width="119.394mm">
  <defs
     id="defs2" />
  <sodipodi:namedview
     inkscape:window-maximized="1"
     inkscape:window-y="-8"
     inkscape:window-x="1672"
     inkscape:window-height="1017"
     inkscape:window-width="1920"
     showgrid="false"
     inkscape:document-rotation="0"
     inkscape:current-layer="layer1"
     inkscape:document-units="mm"
     inkscape:cy="597.27101"
     inkscape:cx="743.16876"
     inkscape:zoom="0.49497475"
     inkscape:pageshadow="2"
     inkscape:pageopacity="0.0"
     borderopacity="1.0"
     bordercolor="#666666"
     pagecolor="#ffffff"
     id="base" />
  <metadata
     id="metadata5">
    <rdf:RDF>
      <cc:Work
         rdf:about="">
        <dc:format>image/svg+xml</dc:format>
        <dc:type
           rdf:resource="http://purl.org/dc/dcmitype/StillImage" />
        <dc:title></dc:title>
      </cc:Work>
    </rdf:RDF>
  </metadata>
  <g
     id="layer1"
     inkscape:groupmode="layer"
     inkscape:label="Layer 1">
    <path
       d="m 112.13244,0 c -7.99784,1.622676 -16.718874,8.088103 -27.561448,16.749764 -2.149392,1.717054 -4.353651,3.52886 -6.593165,5.409787 -5.887516,-1.40535 -12.026458,-2.141154 -18.276889,-2.14147 -0.05537,-5.9e-5 -0.110892,-5.9e-5 -0.166264,0 a 3.4992593,3.4992593 0 0 0 -0.0038,0 c -9.452284,0.01986 -18.646899,1.718798 -27.096278,4.876913 -3.428675,-3.213139 -6.514316,-6.146073 -9.116623,-8.652332 -3.090141,-3.275004 -6.844235,-7.519158 -7.208754,-5.36739 0.124858,0.843543 -0.639653,1.841692 -2.462357,3.208463 -6.935199,2.047449 -5.4536,2.351667 2.575001,9.528124 1.844081,1.776019 3.936176,3.770601 6.197457,5.907329 C 13.747861,34.353986 6.259757,40.902214 0.640515,48.861409 a 3.4992593,3.4992593 0 0 0 0,4.036036 C 6.530429,61.239773 14.472944,68.030947 23.678368,72.924256 13.620501,82.994991 6.916966,90.003632 6.916966,90.003632 l 7.394554,7.07117 c 0,0 7.909084,-8.27008 19.426184,-19.737507 8.138536,2.871804 16.933452,4.40306 25.959493,4.40306 6.706971,0 13.28605,-0.845691 19.563351,-2.458197 10.395668,8.262968 20.730648,15.880684 30.121062,21.804572 l 5.45884,-8.652738 C 107.4308,87.759652 99.227006,81.839056 90.796716,75.305974 102.09398,70.349774 111.83834,62.692445 118.75387,52.897445 a 3.4992593,3.4992593 0 0 0 0,-4.036036 C 111.57821,38.69777 101.35744,30.83427 89.515656,25.90338 c 0.48185,-0.389921 0.96433,-0.780243 1.43984,-1.160101 C 101.41936,16.38416 111.0656,10.656922 114.16666,10.027746 Z M 59.542156,27.016096 h 0.0038 c 0.04923,-4.9e-5 0.09832,-5.1e-5 0.147558,0 a 3.4992593,3.4992593 0 0 0 0.0038,0 c 3.910166,1.3e-5 7.766451,0.318099 11.527853,0.931489 -0.537944,0.469546 -1.076014,0.939367 -1.616077,1.414484 -3.015237,-1.404074 -6.372873,-2.190102 -9.911776,-2.190102 -6.654,0 -12.683744,2.770877 -16.997496,7.21582 -1.519127,-1.386925 -3.006682,-2.751124 -4.441719,-4.07594 6.715319,-2.129862 13.902323,-3.279856 21.284174,-3.295751 z m 23.773129,4.026477 c 11.349011,4.021826 21.216765,10.888582 28.190745,19.836854 -6.74185,8.650184 -16.188004,15.354311 -27.06223,19.424522 -2.0213,-1.61566 -4.046968,-3.257201 -6.070266,-4.915985 2.976145,-3.842873 4.802977,-8.620881 4.959214,-13.804413 a 3.4989094,3.4989094 0 0 0 0.0707,-0.703709 3.4989094,3.4989094 0 0 0 -0.0707,-0.700799 3.4989094,3.4989094 0 0 0 0,-0.0017 c -0.16457,-5.474068 -2.192658,-10.495791 -5.469642,-14.442021 1.838746,-1.605965 3.658952,-3.173954 5.452179,-4.692777 z m -23.618088,3.127826 c 1.374818,0 2.708076,0.167345 3.98408,0.476343 -3.423608,3.089643 -6.8508,6.247403 -10.239731,9.414235 -1.620242,-1.438308 -3.222658,-2.867592 -4.785052,-4.272546 -0.272257,-0.244823 -0.532689,-0.482111 -0.803051,-0.72574 3.019608,-3.026531 7.202064,-4.892292 11.843754,-4.892292 z m -31.865159,0.427296 c 2.929523,2.728675 6.088631,5.638981 9.417974,8.667713 -0.815811,2.391831 -1.259028,4.953469 -1.259028,7.614434 0,2.944037 0.543859,5.76516 1.533362,8.370517 -3.013023,2.931909 -5.884767,5.758193 -8.605779,8.454482 C 20.586121,63.616837 13.349478,57.886629 7.887943,50.879012 13.110373,44.178148 19.956169,38.643961 27.832038,34.597695 Z m 44.841996,5.72527 c 2.335137,2.872363 3.732192,6.54232 3.732192,10.556877 -10e-7,3.800647 -1.252144,7.292234 -3.366829,10.090926 -2.638687,-2.206414 -5.26,-4.429133 -7.848867,-6.650525 a 6.4823688,6.4823688 0 0 0 0.98885,-3.441231 6.4823688,6.4823688 0 0 0 -1.119366,-3.641164 c 2.539224,-2.337516 5.083812,-4.651542 7.61402,-6.914883 z m -29.527501,8.265772 c 0.934677,0.837756 1.86951,1.675273 2.823564,2.524291 -0.922638,0.880008 -1.82812,1.750689 -2.736691,2.623216 -0.158151,-0.928162 -0.245237,-1.881199 -0.245238,-2.856402 0,-0.778152 0.05683,-1.542066 0.158365,-2.291105 z m 10.531523,9.313645 c 3.452269,3.008819 6.990134,6.042015 10.569347,9.060924 -1.445726,0.404412 -2.970399,0.625564 -4.550206,0.625564 -4.435557,0 -8.448929,-1.706826 -11.431837,-4.499078 1.7739,-1.71198 3.581466,-3.443668 5.412696,-5.18741 z M 43.270815,67.940519 c 4.267128,4.110424 10.061315,6.645536 16.426382,6.645536 3.82407,0 7.436827,-0.916753 10.634189,-2.540501 0.643221,0.530802 1.287071,1.059941 1.931562,1.587814 -4.088664,0.729234 -8.295089,1.108975 -12.565751,1.108975 -7.03682,2e-6 -13.899012,-1.031042 -20.346866,-2.959483 1.27878,-1.258808 2.584869,-2.538583 3.920484,-3.842341 z"
       style="color:#000000;font-style:normal;font-variant:normal;font-weight:normal;font-stretch:normal;font-size:medium;line-height:normal;font-family:sans-serif;font-variant-ligatures:normal;font-variant-position:normal;font-variant-caps:normal;font-variant-numeric:normal;font-variant-alternates:normal;font-variant-east-asian:normal;font-feature-settings:normal;font-variation-settings:normal;text-indent:0;text-align:start;text-decoration:none;text-decoration-line:none;text-decoration-style:solid;text-decoration-color:#000000;letter-spacing:normal;word-spacing:normal;text-transform:none;writing-mode:lr-tb;direction:ltr;text-orientation:mixed;dominant-baseline:auto;baseline-shift:baseline;text-anchor:start;white-space:normal;shape-padding:0;shape-margin:0;inline-size:0;clip-rule:nonzero;display:inline;overflow:visible;visibility:visible;opacity:1;isolation:auto;mix-blend-mode:normal;color-interpolation:sRGB;color-interpolation-filters:linearRGB;solid-color:#000000;solid-opacity:1;vector-effect:none;fill:#000000;fill-opacity:1;fill-rule:nonzero;stroke:none;stroke-width:6.99782;stroke-linecap:round;stroke-linejoin:round;stroke-miterlimit:4;stroke-dasharray:none;stroke-dashoffset:0;stroke-opacity:1;paint-order:markers stroke fill;color-rendering:auto;image-rendering:auto;shape-rendering:auto;text-rendering:auto;enable-background:accumulate;stop-color:#000000;stop-opacity:1"
       id="path878" />
  </g>
</svg>
