<?xml version="1.0" encoding="UTF-8" standalone="no"?>
<svg
   xmlns:dc="http://purl.org/dc/elements/1.1/"
   xmlns:cc="http://creativecommons.org/ns#"
   xmlns:rdf="http://www.w3.org/1999/02/22-rdf-syntax-ns#"
   xmlns:svg="http://www.w3.org/2000/svg"
   xmlns="http://www.w3.org/2000/svg"
   xmlns:sodipodi="http://sodipodi.sourceforge.net/DTD/sodipodi-0.dtd"
   xmlns:inkscape="http://www.inkscape.org/namespaces/inkscape"
   sodipodi:docname="charmed.svg"
   inkscape:version="1.0 (4035a4fb49, 2020-05-01)"
   id="svg8"
   version="1.1"
   viewBox="0 0 27.226 25.819"
   height="25.819mm"
   width="27.226mm">
  <defs
     id="defs2" />
  <sodipodi:namedview
     inkscape:window-maximized="1"
     inkscape:window-y="-8"
     inkscape:window-x="1672"
     inkscape:window-height="1017"
     inkscape:window-width="1920"
     inkscape:object-paths="true"
     inkscape:snap-bbox="true"
     showgrid="false"
     inkscape:document-rotation="0"
     inkscape:current-layer="layer1"
     inkscape:document-units="mm"
     inkscape:cy="344.84378"
     inkscape:cx="190.27406"
     inkscape:zoom="0.70710678"
     inkscape:pageshadow="2"
     inkscape:pageopacity="0.0"
     borderopacity="1.0"
     bordercolor="#666666"
     pagecolor="#ffffff"
     id="base" />
  <metadata
     id="metadata5">
    <rdf:RDF>
      <cc:Work
         rdf:about="">
        <dc:format>image/svg+xml</dc:format>
        <dc:type
           rdf:resource="http://purl.org/dc/dcmitype/StillImage" />
        <dc:title></dc:title>
      </cc:Work>
    </rdf:RDF>
  </metadata>
  <g
     id="layer1"
     inkscape:groupmode="layer"
     inkscape:label="Layer 1">
    <path
       sodipodi:nodetypes="cczczcccccccc"
       d="M 6.783295,9.9371842e-6 C 3.0332187,0.01281293 -3.6160383e-5,3.0564705 0,6.8065688 1.2612834e-5,8.3082313 0.9355101,10.315726 1.4124748,10.95778 c 0.4769648,0.642053 7.4837993,8.052569 11.9834842,14.860801 4.644534,-7.54355 11.378046,-13.386005 12.421266,-14.859345 1.04322,-1.4733397 1.38785,-3.0680916 1.408826,-4.1526672 3.7e-5,-3.7500979 -3.033218,-6.7937554 -6.783294,-6.8065588628158 -0.0078,-1.32495789e-5 -0.01551,-1.32495789e-5 -0.02326,0 C 16.873386,2.4376354e-5 13.921415,2.7226244 13.635195,6.2571612 l -0.02217,0.1972467 -0.02217,-0.1972467 C 13.304635,2.722625 10.352665,2.5237782e-5 6.8065593,9.9371842e-6 c -0.00775,-1.32495789e-5 -0.01551,-1.32495789e-5 -0.023264,0 z"
       style="fill:#000000;stroke:none;stroke-width:0.176548;stroke-linecap:round;stroke-linejoin:round;paint-order:markers stroke fill"
       id="circle835" />
  </g>
</svg>
