<?xml version="1.0" encoding="UTF-8" standalone="no"?>
<svg
   xmlns:dc="http://purl.org/dc/elements/1.1/"
   xmlns:cc="http://creativecommons.org/ns#"
   xmlns:rdf="http://www.w3.org/1999/02/22-rdf-syntax-ns#"
   xmlns:svg="http://www.w3.org/2000/svg"
   xmlns="http://www.w3.org/2000/svg"
   xmlns:sodipodi="http://sodipodi.sourceforge.net/DTD/sodipodi-0.dtd"
   xmlns:inkscape="http://www.inkscape.org/namespaces/inkscape"
   sodipodi:docname="deafened.svg"
   inkscape:version="1.0 (4035a4fb49, 2020-05-01)"
   id="svg895"
   version="1.1"
   viewBox="0 0 136.81 163.371"
   height="163.371mm"
   width="136.81mm">
  <defs
     id="defs889" />
  <sodipodi:namedview
     inkscape:window-maximized="1"
     inkscape:window-y="-8"
     inkscape:window-x="1672"
     inkscape:window-height="1017"
     inkscape:window-width="1920"
     showgrid="false"
     inkscape:document-rotation="0"
     inkscape:current-layer="layer1"
     inkscape:document-units="mm"
     inkscape:cy="699.7657"
     inkscape:cx="530.22606"
     inkscape:zoom="0.49497475"
     inkscape:pageshadow="2"
     inkscape:pageopacity="0.0"
     borderopacity="1.0"
     bordercolor="#666666"
     pagecolor="#ffffff"
     id="base" />
  <metadata
     id="metadata892">
    <rdf:RDF>
      <cc:Work
         rdf:about="">
        <dc:format>image/svg+xml</dc:format>
        <dc:type
           rdf:resource="http://purl.org/dc/dcmitype/StillImage" />
        <dc:title></dc:title>
      </cc:Work>
    </rdf:RDF>
  </metadata>
  <g
     id="layer1"
     inkscape:groupmode="layer"
     inkscape:label="Layer 1">
    <path
       d="M 11.843721,0 0.95911457,10.320301 c 0,0 12.01731443,12.780956 25.73744643,28.312484 -2.447037,3.619518 -4.755663,7.612975 -6.8802,12.01942 a 5,5 0 0 0 2.332158,6.676078 5,5 0 0 0 6.673493,-2.332157 c 1.493123,-3.096845 3.06592,-5.94396 4.701005,-8.562784 2.472868,2.854841 4.942531,5.742117 7.359759,8.611359 -4.096565,3.558752 -7.907856,7.731352 -11.37915,12.019423 a 5,5 0 0 0 0.740521,7.033678 5,5 0 0 0 7.033165,-0.740524 c 3.117972,-3.851614 6.590871,-7.51691 10.048997,-10.537341 5.358275,6.584749 10.116648,12.775946 13.516488,17.839738 -2.391704,2.404962 -4.820677,4.960167 -7.266223,7.617624 -0.228214,-0.08848 -0.440301,-0.179864 -0.635103,-0.273368 -0.43333,-0.207997 -0.488225,-0.290444 -0.683678,-0.429948 0.253799,-0.269155 0.477967,-0.547809 1.351338,-1.148252 a 5,5 0 0 0 1.289325,-6.953064 5,5 0 0 0 -6.953062,-1.287259 c -3.746942,2.576023 -6.594665,6.078794 -6.18567,10.402466 0.326422,3.450731 2.476061,5.790566 4.944401,7.370606 -5.882817,6.73225 -11.761271,13.82893 -17.372065,20.7269 C 13.132534,136.60127 0,154.49393 0,154.49393 l 12.091768,8.87698 c 0,0 12.94834,-17.63785 28.876791,-37.22047 7.230716,-8.88953 15.242447,-18.22709 22.765536,-26.39477 2.834753,-0.11701 5.754351,-0.53193 8.666136,-1.25987 0.172283,-0.0431 0.341164,-0.091 0.511079,-0.13746 1.313313,1.81905 2.660121,3.65377 4.025077,5.49424 -0.380836,0.38754 -0.805566,0.79418 -1.280025,1.21181 -2.942396,2.58992 -7.490557,5.57004 -12.152746,8.24394 -9.32438,5.34781 -19.060334,9.57822 -19.060334,9.57822 a 5,5 0 0 0 -2.599841,6.57635 5,5 0 0 0 6.574274,2.59932 c 0,0 10.108387,-4.36993 20.060793,-10.07794 4.976201,-2.854 9.924031,-6.01525 13.785204,-9.41389 0.25114,-0.22106 0.497639,-0.44344 0.740005,-0.66663 0.749234,0.97847 1.501362,1.95403 2.254644,2.92799 -1.231209,2.64481 -2.195946,5.13148 -2.994649,7.48275 -3.005132,8.84669 -3.775416,15.02569 -8.240324,21.84362 -2.966302,4.52955 -5.798269,7.02104 -8.075993,8.20312 -2.277724,1.18209 -3.973764,1.24349 -5.734534,0.75189 -3.521541,-0.98321 -7.571632,-5.41053 -9.449035,-11.04273 a 5,5 0 0 0 -6.32468,-3.16208 5,5 0 0 0 -3.16208,6.32416 c 2.658314,7.97493 8.106841,15.24106 16.246554,17.51366 4.069858,1.1363 8.744445,0.71575 13.029179,-1.50792 4.284733,-2.22368 8.207679,-6.06094 11.835971,-11.60136 5.661355,-8.64491 6.671611,-16.24156 9.343615,-24.10757 0.188727,-0.55559 0.387958,-1.118 0.594796,-1.68517 16.841189,21.19641 32.401119,38.95266 32.401119,38.95266 l 11.29699,-9.8671 c 0,0 -18.16427,-20.86467 -36.095989,-43.75081 2.750129,-4.02012 6.345249,-8.49325 11.180199,-13.61261 14.18131,-15.015509 14.92284,-33.805191 10.10894,-49.066256 -0.59444,-1.884503 -1.25983,-3.723003 -1.98644,-5.508707 0.83117,-1.312773 1.64933,-2.618841 2.43964,-3.90519 9.11962,-14.84364 15.13861,-27.6680773 15.13861,-27.6680773 L 123.23434,3.0411581 c 0,0 -4.84772,10.3026059 -12.37444,22.9324499 C 106.83128,20.52812 102.31098,16.285398 97.884463,13.722677 92.372941,10.531796 84.911884,8.6359517 76.499722,8.8516557 71.452427,8.9810777 66.061121,9.8710777 60.544625,11.696961 52.40529,14.390965 44.082887,19.238768 36.457207,26.787511 23.071881,11.743629 11.843721,0 11.843721,0 Z m 65.960314,18.950265 c 6.379875,0.04473 11.776708,1.520687 15.068849,3.426663 3.208078,1.857311 7.929046,6.680001 12.059726,13.054502 -1.86427,2.818984 -3.82062,5.643941 -5.841502,8.392768 C 95.008014,37.321849 88.535832,33.599193 82.134521,31.763437 78.51359,30.725032 74.826499,30.190735 71.332079,29.97233 60.848821,29.317118 52.101728,31.511771 52.101728,31.511771 a 5,5 0 0 0 -3.736723,6.001702 5,5 0 0 0 6.002218,3.738271 c 0,0 14.121913,-2.997364 25.009842,0.125058 5.443964,1.561211 9.719212,4.253535 12.148095,9.412346 0.256749,0.545317 0.492998,1.12949 0.70797,1.749764 -3.115535,3.671525 -6.262098,6.968651 -9.312095,9.622152 -1.079048,-2.180656 -2.313527,-4.39578 -3.682979,-6.64559 -3.126335,-5.136123 -7.342685,-8.605787 -12.112956,-9.902237 -1.192567,-0.324112 -2.39119,-0.51335 -3.587892,-0.583944 -3.342397,-0.197173 -6.66854,0.52646 -9.793203,1.781286 C 50.230598,42.592425 46.614667,38.365003 43.039233,34.26199 49.703095,27.524653 56.839916,23.455886 63.687583,21.189404 68.61363,19.558953 73.438858,18.919662 77.804035,18.950265 Z M 112.25361,51.45009 c 3.42635,12.360056 2.53158,25.659498 -8.41396,37.248888 -4.144691,4.388501 -7.513167,8.454922 -10.27792,12.242142 -2.919548,-3.82876 -5.775021,-7.650534 -8.477518,-11.381214 1.53234,-2.49143 2.442946,-5.311 2.622577,-8.274947 0.07572,-1.249362 0.05758,-2.513462 -0.04857,-3.792016 1.30184,-0.900033 2.583757,-1.863902 3.845243,-2.884062 -0.272834,1.04126 -0.57372,2.112309 -0.910022,3.220993 a 5,5 0 0 0 3.334163,6.236311 5,5 0 0 0 6.236317,-3.333647 c 2.04121,-6.729259 3.10635,-12.686397 3.30728,-17.954458 3.09287,-3.605472 6.02285,-7.435408 8.78241,-11.32799 z m -49.769568,3.543451 c 0.718708,0.0057 1.389938,0.09752 2.017963,0.268203 2.009677,0.546182 4.029639,1.895568 6.19497,5.452896 1.607638,2.641118 2.932184,5.18274 3.985805,7.567496 -0.880469,0.666059 -1.773261,1.37024 -2.677358,2.110467 -3.224972,-4.674618 -7.15196,-9.855705 -11.437027,-15.22491 0.673343,-0.121066 1.311841,-0.178912 1.915647,-0.174152 z"
       style="color:#000000;font-style:normal;font-variant:normal;font-weight:normal;font-stretch:normal;font-size:medium;line-height:normal;font-family:sans-serif;font-variant-ligatures:normal;font-variant-position:normal;font-variant-caps:normal;font-variant-numeric:normal;font-variant-alternates:normal;font-variant-east-asian:normal;font-feature-settings:normal;font-variation-settings:normal;text-indent:0;text-align:start;text-decoration:none;text-decoration-line:none;text-decoration-style:solid;text-decoration-color:#000000;letter-spacing:normal;word-spacing:normal;text-transform:none;writing-mode:lr-tb;direction:ltr;text-orientation:mixed;dominant-baseline:auto;baseline-shift:baseline;text-anchor:start;white-space:normal;shape-padding:0;shape-margin:0;inline-size:0;clip-rule:nonzero;display:inline;overflow:visible;visibility:visible;opacity:1;isolation:auto;mix-blend-mode:normal;color-interpolation:sRGB;color-interpolation-filters:linearRGB;solid-color:#000000;solid-opacity:1;vector-effect:none;fill:#000000;fill-opacity:1;fill-rule:nonzero;stroke:none;stroke-width:10;stroke-linecap:round;stroke-linejoin:miter;stroke-miterlimit:4;stroke-dasharray:none;stroke-dashoffset:0;stroke-opacity:1;color-rendering:auto;image-rendering:auto;shape-rendering:auto;text-rendering:auto;enable-background:accumulate;stop-color:#000000;stop-opacity:1"
       id="path1472" />
  </g>
</svg>
