<?xml version="1.0" encoding="UTF-8" standalone="no"?>
<svg
   xmlns:dc="http://purl.org/dc/elements/1.1/"
   xmlns:cc="http://creativecommons.org/ns#"
   xmlns:rdf="http://www.w3.org/1999/02/22-rdf-syntax-ns#"
   xmlns:svg="http://www.w3.org/2000/svg"
   xmlns="http://www.w3.org/2000/svg"
   xmlns:sodipodi="http://sodipodi.sourceforge.net/DTD/sodipodi-0.dtd"
   xmlns:inkscape="http://www.inkscape.org/namespaces/inkscape"
   sodipodi:docname="grappled.svg"
   inkscape:version="1.0 (4035a4fb49, 2020-05-01)"
   id="svg2100"
   version="1.1"
   viewBox="0 0 112.352 90.637001"
   height="90.637001mm"
   width="112.352mm">
  <defs
     id="defs2094" />
  <sodipodi:namedview
     inkscape:window-maximized="1"
     inkscape:window-y="-8"
     inkscape:window-x="1672"
     inkscape:window-height="1017"
     inkscape:window-width="1920"
     inkscape:snap-global="false"
     showgrid="false"
     inkscape:document-rotation="0"
     inkscape:current-layer="layer1"
     inkscape:document-units="mm"
     inkscape:cy="454.97492"
     inkscape:cx="75.26112"
     inkscape:zoom="0.35"
     inkscape:pageshadow="2"
     inkscape:pageopacity="0.0"
     borderopacity="1.0"
     bordercolor="#666666"
     pagecolor="#ffffff"
     id="base" />
  <metadata
     id="metadata2097">
    <rdf:RDF>
      <cc:Work
         rdf:about="">
        <dc:format>image/svg+xml</dc:format>
        <dc:type
           rdf:resource="http://purl.org/dc/dcmitype/StillImage" />
        <dc:title></dc:title>
      </cc:Work>
    </rdf:RDF>
  </metadata>
  <g
     id="layer1"
     inkscape:groupmode="layer"
     inkscape:label="Layer 1">
    <path
       d="m 28.960472,0.00159189 c -2.54276,0.04647 -5.060846,1.11043601 -6.845863,3.14537601 l -1.851425,2.110477 c -1.297663,1.479348 -2.033554,3.276121 -2.230424,5.1177961 -2.482074,0.09131 -4.924853,1.15006 -6.668437,3.137764 l -1.8519496,2.111001 c -3.360033,3.830472 -2.969588,9.787081 0.8608836,13.147114 l 9.422215,8.265009 -14.8607426,7.880758 c -4.50152102,2.387181 -6.25329,8.094421 -3.866103,12.595936 l 1.315735,2.48108 c 0.982817,1.85329 2.52881,3.23895 4.321217,4.06295 -0.396662,2.02481 -0.138034,4.18736 0.890279,6.12645 l 1.31521,2.48002 c 0.884683,1.66825 2.2260516,2.95775 3.7923496,3.79997 -0.245345,1.85338 0.05366,3.79137 0.984505,5.54666 l 1.315735,2.48108 c 2.387187,4.50152 8.093104,6.25276 12.594624,3.86558 l 31.599417,-16.75732 19.09614,16.75102 c 3.83047,3.36003 9.78655,2.97011 13.14658,-0.86036 l 1.85169,-2.11101 c 1.29775,-1.47944 2.03386,-3.27625 2.23069,-5.11779 2.48206,-0.0916 4.924972,-1.1502 6.668432,-3.13776 l 1.85117,-2.11048 c 3.36003,-3.83047 2.97038,-9.78787 -0.8601,-13.1479 l -9.656332,-8.470256 13.891722,-7.366859 c 4.50152,-2.387185 6.25303,-8.093106 3.86584,-12.594623 l -1.31574,-2.481076 c -0.88467,-1.668238 -2.22576,-2.957816 -3.79182,-3.799959 0.24543,-1.853637 -0.0534,-3.79189 -0.98424,-5.54719 l -1.31521,-2.480028 c -0.98282,-1.853295 -2.52898,-3.239304 -4.321482,-4.063476 0.39676,-2.024624 0.1383,-4.187093 -0.89001,-6.1261851 l -1.31574,-2.480816 c -1.6412,-3.094792 -4.85178,-4.890091 -8.16081,-4.934071 -1.50411,-0.01999 -3.02867,0.321971 -4.43539,1.067969 L 54.123738,18.831587 35.262246,2.2866079 C 33.466712,0.71159389 31.204083,-0.03941611 28.960472,0.00159189 Z m 0.203409,7.55609201 c 0.370546,0.01476 0.743511,0.166061 1.07453,0.456426 L 98.158468,67.592253 c 0.75661,0.66369 0.82038,1.64021 0.15669,2.39682 l -1.85116,2.11048 c -0.6637,0.75661 -1.63996,0.82039 -2.39657,0.15669 l -67.92005,-59.5784 C 25.390762,12.01415 25.326994,11.037894 25.990685,10.281278 l 1.851163,-2.1104771 c 0.373326,-0.425596 0.845618,-0.632094 1.322033,-0.613117 z m 59.990217,1.53673 c 0.5969,-0.0087 1.14037,0.318092 1.46455,0.9293871 l 1.31573,2.481078 c 0.47153,0.889167 0.18392,1.823459 -0.70524,2.294989 L 65.239628,28.582404 60.250448,24.20581 88.322608,9.3190839 c 0.27786,-0.147353 0.56017,-0.220706 0.83149,-0.22467 z M 18.413071,17.924246 c 0.370405,0.01492 0.743511,0.166061 1.07453,0.456427 l 67.920577,59.57919 c 0.75662,0.66369 0.82039,1.63837 0.15669,2.39499 l -1.85195,2.11126 c -0.66369,0.75662 -1.63837,0.82039 -2.39499,0.15669 L 15.397091,23.04388 c -0.756615,-0.663691 -0.82117,-1.639161 -0.157479,-2.395777 l 1.85195,-2.111264 c 0.373327,-0.425596 0.845274,-0.631776 1.321509,-0.612593 z m 77.268257,3.840644 c 0.5969,-0.0087 1.14037,0.318082 1.46455,0.929388 l 1.31521,2.480027 c 0.25001,0.471453 0.28468,0.955232 0.13149,1.376627 -0.41374,0.147326 -0.82137,0.324345 -1.21941,0.535428 l -21.08929,11.183875 -4.57187,-4.010459 23.13783,-12.270215 c 0.27786,-0.147354 0.56017,-0.220707 0.83149,-0.224671 z m 6.543502,11.888854 c 0.41247,0.119987 0.77244,0.415361 1.01233,0.867712 l 1.31573,2.481076 c 0.47153,0.88916 0.18471,1.823198 -0.70446,2.294727 l -16.449172,8.723273 -4.57135,-4.009931 18.497722,-9.809615 c 0.31369,-0.166357 0.61268,-0.350166 0.8992,-0.547242 z m -76.302648,8.756606 4.989189,4.376599 -19.500854,10.341364 c -0.889163,0.47153 -1.8239806,0.18524 -2.2955146,-0.70393 l -1.315735,-2.481079 c -0.471527,-0.88916 -0.184445,-1.824244 0.704718,-2.295774 z m 11.461565,10.05397 4.571869,4.010463 -24.402116,12.94054 c -0.313507,0.16626 -0.612057,0.35006 -0.898416,0.54698 -0.413044,-0.11998 -0.773387,-0.41568 -1.013376,-0.86823 l -1.31521,-2.48003 c -0.471532,-0.88917 -0.184445,-1.82451 0.704717,-2.29604 z m 11.115641,9.750823 4.57134,4.00993 -29.041703,15.40089 c -0.889163,0.47153 -1.8232,0.18497 -2.294727,-0.70419 l -1.315734,-2.48107 c -0.249901,-0.47124 -0.284857,-0.95442 -0.132021,-1.37532 0.414113,-0.14739 0.822097,-0.3247 1.220461,-0.53595 z"
       style="color:#000000;font-style:normal;font-variant:normal;font-weight:normal;font-stretch:normal;font-size:medium;line-height:normal;font-family:sans-serif;font-variant-ligatures:normal;font-variant-position:normal;font-variant-caps:normal;font-variant-numeric:normal;font-variant-alternates:normal;font-variant-east-asian:normal;font-feature-settings:normal;font-variation-settings:normal;text-indent:0;text-align:start;text-decoration:none;text-decoration-line:none;text-decoration-style:solid;text-decoration-color:#000000;letter-spacing:normal;word-spacing:normal;text-transform:none;writing-mode:lr-tb;direction:ltr;text-orientation:mixed;dominant-baseline:auto;baseline-shift:baseline;text-anchor:start;white-space:normal;shape-padding:0;shape-margin:0;inline-size:0;clip-rule:nonzero;display:inline;overflow:visible;visibility:visible;opacity:1;isolation:auto;mix-blend-mode:normal;color-interpolation:sRGB;color-interpolation-filters:linearRGB;solid-color:#000000;solid-opacity:1;vector-effect:none;fill:#000000;fill-opacity:1;fill-rule:nonzero;stroke:none;stroke-width:7.6185;stroke-linecap:round;stroke-linejoin:round;stroke-miterlimit:4;stroke-dasharray:none;stroke-dashoffset:0;stroke-opacity:1;paint-order:markers stroke fill;color-rendering:auto;image-rendering:auto;shape-rendering:auto;text-rendering:auto;enable-background:accumulate;stop-color:#000000;stop-opacity:1"
       id="path2686" />
  </g>
</svg>
