<?xml version="1.0" encoding="UTF-8" standalone="no"?>
<svg
   xmlns:dc="http://purl.org/dc/elements/1.1/"
   xmlns:cc="http://creativecommons.org/ns#"
   xmlns:rdf="http://www.w3.org/1999/02/22-rdf-syntax-ns#"
   xmlns:svg="http://www.w3.org/2000/svg"
   xmlns="http://www.w3.org/2000/svg"
   xmlns:sodipodi="http://sodipodi.sourceforge.net/DTD/sodipodi-0.dtd"
   xmlns:inkscape="http://www.inkscape.org/namespaces/inkscape"
   sodipodi:docname="poisoned.svg"
   inkscape:version="1.0 (4035a4fb49, 2020-05-01)"
   id="svg2728"
   version="1.1"
   viewBox="0 0 93.748 93.748001"
   height="93.748001mm"
   width="93.748001mm">
  <defs
     id="defs2722" />
  <sodipodi:namedview
     inkscape:window-maximized="1"
     inkscape:window-y="-8"
     inkscape:window-x="1672"
     inkscape:window-height="1017"
     inkscape:window-width="1920"
     inkscape:object-paths="true"
     showgrid="false"
     inkscape:document-rotation="0"
     inkscape:current-layer="layer1"
     inkscape:document-units="mm"
     inkscape:cy="856.52649"
     inkscape:cx="1467.2711"
     inkscape:zoom="0.24748737"
     inkscape:pageshadow="2"
     inkscape:pageopacity="0.0"
     borderopacity="1.0"
     bordercolor="#666666"
     pagecolor="#ffffff"
     id="base" />
  <metadata
     id="metadata2725">
    <rdf:RDF>
      <cc:Work
         rdf:about="">
        <dc:format>image/svg+xml</dc:format>
        <dc:type
           rdf:resource="http://purl.org/dc/dcmitype/StillImage" />
        <dc:title></dc:title>
      </cc:Work>
    </rdf:RDF>
  </metadata>
  <g
     id="layer1"
     inkscape:groupmode="layer"
     inkscape:label="Layer 1">
    <path
       d="m 46.874127,0 c -2.36497,5.456279 -4.993464,11.083732 -7.653649,16.539636 v 4.83e-4 C 32.739417,29.832418 26.094099,42.06753 22.671862,48.245157 c -0.901912,1.337858 -1.69134,2.748202 -2.360168,4.216532 l -7.48e-4,10e-4 c -1.729886,3.79819 -2.625029,7.92342 -2.625043,12.09719 -5.9e-5,16.12023 13.067989,29.18828 29.188224,29.18822 16.120137,-8e-5 29.188034,-13.06809 29.187972,-29.18822 -1e-5,-4.17377 -0.895154,-8.299 -2.62504,-12.0974 l -2.51e-4,-2.5e-4 C 72.767837,50.993649 71.978159,49.582634 71.075891,48.244158 67.653577,42.06618 54.527777,16.540135 54.527777,16.540135 52.07365,11.159398 49.288145,5.530264 46.874127,0 Z m 15.211776,52.320519 a 11.301291,16.165139 19.325577 0 1 2.725056,0.45168 11.301291,16.165139 19.325577 0 1 5.314932,18.99433 11.301291,16.165139 19.325577 0 1 -16.014129,11.51427 11.301291,16.165139 19.325577 0 1 -5.314932,-18.99433 11.301291,16.165139 19.325577 0 1 13.289073,-11.96595 z"
       style="fill:#000000;stroke:none;stroke-width:7.23957;stroke-linecap:round;stroke-linejoin:round;paint-order:markers fill stroke"
       id="path3291" />
  </g>
</svg>
