<?xml version="1.0" encoding="UTF-8" standalone="no"?>
<svg
   xmlns:dc="http://purl.org/dc/elements/1.1/"
   xmlns:cc="http://creativecommons.org/ns#"
   xmlns:rdf="http://www.w3.org/1999/02/22-rdf-syntax-ns#"
   xmlns:svg="http://www.w3.org/2000/svg"
   xmlns="http://www.w3.org/2000/svg"
   xmlns:sodipodi="http://sodipodi.sourceforge.net/DTD/sodipodi-0.dtd"
   xmlns:inkscape="http://www.inkscape.org/namespaces/inkscape"
   width="146.504mm"
   height="146.504mm"
   viewBox="0 0 146.504 146.504"
   version="1.1"
   id="svg1501"
   inkscape:version="1.0 (4035a4fb49, 2020-05-01)"
   sodipodi:docname="stunned.svg">
  <defs
     id="defs1495" />
  <sodipodi:namedview
     id="base"
     pagecolor="#ffffff"
     bordercolor="#666666"
     borderopacity="1.0"
     inkscape:pageopacity="0.0"
     inkscape:pageshadow="2"
     inkscape:zoom="0.49497475"
     inkscape:cx="975.1544"
     inkscape:cy="262.4162"
     inkscape:document-units="mm"
     inkscape:current-layer="layer1"
     inkscape:document-rotation="0"
     showgrid="false"
     inkscape:window-width="1920"
     inkscape:window-height="1017"
     inkscape:window-x="1672"
     inkscape:window-y="-8"
     inkscape:window-maximized="1" />
  <metadata
     id="metadata1498">
    <rdf:RDF>
      <cc:Work
         rdf:about="">
        <dc:format>image/svg+xml</dc:format>
        <dc:type
           rdf:resource="http://purl.org/dc/dcmitype/StillImage" />
        <dc:title></dc:title>
      </cc:Work>
    </rdf:RDF>
  </metadata>
  <g
     inkscape:label="Layer 1"
     inkscape:groupmode="layer"
     id="layer1">
    <path
       id="path2066"
       style="fill:#000000;stroke-width:8.14321;stroke-linecap:round;stroke-linejoin:round;paint-order:markers stroke fill"
       inkscape:transform-center-x="0.83357769"
       inkscape:transform-center-y="-0.83356832"
       d="m 82.835547,30.521534 c -0.59997,0.101117 -1.32238,5.393229 -1.74833,5.827685 -0.42595,0.434456 -5.70283,1.261506 -5.79206,1.863355 -0.0892,0.601853 4.72049,2.924489 5.00205,3.463844 0.28157,0.539359 -0.56249,5.81325 -0.0176,6.0841 0.54481,0.270845 4.24021,-3.585759 4.84018,-3.686875 0.59996,-0.101116 5.35488,2.331477 5.78083,1.897021 0.42595,-0.43446 -2.09987,-5.14055 -2.01064,-5.7424 0.0892,-0.601849 3.87194,-4.372639 3.59037,-4.911998 -0.28157,-0.539356 -5.53788,0.408872 -6.0827,0.138025 -0.54482,-0.270849 -2.96206,-5.033873 -3.56203,-4.932757 z m -23.30316,1.963789 c -0.87664,0.08031 -4.59796,2.988588 -5.16813,3.004598 -0.60819,0.01708 -4.98071,-3.05019 -5.46271,-2.678889 -0.482,0.371303 1.36821,5.381732 1.19651,5.96543 -0.1717,0.583702 -4.44035,3.794321 -4.23617,4.367468 0.20418,0.573142 5.54135,0.361894 6.04342,0.705561 0.50207,0.343668 2.2365,5.395335 2.84469,5.378258 0.60819,-0.01708 2.05662,-5.15817 2.53862,-5.52947 0.482,-0.3713 5.82234,-0.459912 5.99404,-1.043613 0.1717,-0.583698 -4.27017,-3.549692 -4.47435,-4.122836 -0.20418,-0.573147 1.36193,-5.679555 0.85986,-6.023222 -0.0314,-0.02148 -0.0773,-0.02864 -0.13578,-0.02328 z m 60.690063,4.295087 c -0.60321,-0.07949 -2.84775,4.76707 -3.38248,5.057319 -0.53474,0.290248 -5.82182,-0.468329 -6.08382,0.0808 -0.26201,0.549124 3.65378,4.181328 3.76458,4.779582 0.1108,0.598254 -2.24432,5.392262 -1.80304,5.811133 0.44129,0.418871 5.10581,-2.182991 5.70902,-2.103499 0.60322,0.07949 4.43477,3.800942 4.96951,3.510694 0.53473,-0.290249 -0.49823,-5.530766 -0.23622,-6.079891 0.262,-0.549126 4.98521,-3.042892 4.8744,-3.641147 -0.1108,-0.598254 -5.41389,-1.2352 -5.85517,-1.654071 -0.44129,-0.41887 -1.35356,-5.681422 -1.95678,-5.760917 z m -88.337696,2.048795 c -0.711539,-0.04411 -4.318253,3.458048 -4.902459,3.536223 -0.603055,0.08069 -5.273055,-2.511746 -5.713505,-2.091998 -0.440448,0.419749 1.924431,5.208733 1.814823,5.807207 -0.10961,0.598473 -4.018145,4.238835 -3.755046,4.787437 0.263102,0.548604 5.548508,-0.22073 6.083819,0.06845 0.535313,0.289185 2.78953,5.131558 3.392587,5.050866 0.603052,-0.0807 1.504823,-5.345375 1.945273,-5.765124 0.44045,-0.41975 5.742202,-1.0671 5.851811,-1.665574 0.109606,-0.598476 -4.618601,-3.083006 -4.881699,-3.631607 -0.263099,-0.548602 0.759466,-5.790988 0.224152,-6.080173 -0.01673,-0.009 -0.0368,-0.01429 -0.05976,-0.01571 z M 136.64114,53.649361 c -0.80914,0.08929 -3.55409,6.000598 -4.21598,6.359872 -0.67241,0.364974 -7.32062,-0.588946 -7.65008,0.101555 -0.32946,0.690501 4.59452,5.258039 4.73385,6.010318 0.13933,0.752279 -2.82251,6.780268 -2.26762,7.306979 0.55491,0.526713 6.42055,-2.744901 7.17906,-2.644943 0.75852,0.09996 5.57637,4.779291 6.24878,4.414318 0.6724,-0.364977 -0.62656,-6.954531 -0.29709,-7.645032 0.32945,-0.690502 6.26859,-3.826437 6.12926,-4.578716 -0.13933,-0.75228 -6.80763,-1.553221 -7.36253,-2.079933 -0.55489,-0.526712 -1.70211,-7.144179 -2.46062,-7.244138 -0.0118,-0.0016 -0.0242,-0.0017 -0.037,-2.8e-4 z M 11.882158,55.291088 c -0.809137,0.08929 -3.5543576,6.000318 -4.2162536,6.359592 -0.672409,0.364974 -7.320623,-0.588946 -7.650084,0.101555 -0.32946,0.690502 4.594522,5.25804 4.73385,6.010318 0.139328,0.752279 -2.822226,6.780269 -2.267327,7.306979 0.554899,0.526712 6.420538,-2.744901 7.17905,-2.644943 0.7585126,0.09996 5.5760886,4.779574 6.2484976,4.414599 0.672403,-0.364976 -0.626272,-6.954532 -0.296813,-7.645032 0.329459,-0.690502 6.268594,-3.826437 6.129267,-4.578716 -0.139333,-0.75228 -6.80763,-1.553221 -7.362528,-2.079933 -0.554896,-0.526712 -1.702108,-7.144459 -2.460628,-7.244419 -0.01185,-0.0016 -0.02419,-0.0014 -0.03703,0 z m 98.038262,17.119754 c -0.0195,-0.0016 -0.0384,-0.0011 -0.0564,0.0017 -1.1477,0.181777 -2.62732,10.274592 -3.44898,11.096251 -0.82166,0.821659 -10.914753,2.301558 -11.096533,3.449256 -0.18178,1.147693 8.959813,5.674074 9.487343,6.709424 0.52754,1.035355 -1.18375,11.091647 -0.1484,11.619187 1.03535,0.52754 8.16488,-6.768072 9.31257,-6.949852 1.14769,-0.18178 10.18285,4.553422 11.00451,3.731762 0.82166,-0.82166 -3.91325,-9.856821 -3.73148,-11.004519 0.18178,-1.147693 7.47711,-8.277218 6.94957,-9.312569 -0.52754,-1.03535 -10.58382,0.675945 -11.61918,0.148407 -1.01917,-0.519294 -5.42099,-9.385476 -6.65303,-9.48903 z m -80.155155,3.458233 c -0.0175,-0.0015 -0.03417,-8.68e-4 -0.05022,0.0017 -1.027071,0.162672 -2.351498,9.194744 -3.086796,9.930043 -0.735299,0.735294 -9.767371,2.059444 -9.930041,3.086515 -0.162674,1.027065 8.018214,5.077615 8.490302,6.004145 0.472095,0.92653 -1.059505,9.925902 -0.132976,10.397992 0.926534,0.47208 7.306972,-6.056652 8.334042,-6.219332 1.027064,-0.16266 9.112551,4.074872 9.847841,3.339572 0.7353,-0.7353 -3.50223,-8.820781 -3.33956,-9.847846 0.16267,-1.027071 6.69141,-7.407514 6.21932,-8.334043 -0.47209,-0.92653 -9.471458,0.605068 -10.397986,0.132977 -0.912053,-0.464714 -4.851381,-8.399035 -5.95393,-8.491706 z m 38.705442,7.211875 c -0.0195,-0.0016 -0.0382,-0.0011 -0.0561,0.0017 -1.14769,0.181777 -2.62759,10.274876 -3.44925,11.096538 -0.82166,0.82166 -10.91447,2.30156 -11.09625,3.44925 -0.18178,1.1477 8.95981,5.673802 9.48734,6.709152 0.52754,1.03535 -1.18403,11.09164 -0.14868,11.61918 1.03535,0.52753 8.16515,-6.76779 9.31285,-6.94957 1.14769,-0.18178 10.18285,4.55314 11.00451,3.73148 0.82166,-0.82166 -3.91354,-9.85654 -3.73176,-11.00424 0.18178,-1.14769 7.47711,-8.277496 6.94957,-9.312851 -0.52754,-1.03535 -10.58354,0.675946 -11.6189,0.148407 -1.01917,-0.519292 -5.42127,-9.385474 -6.65332,-9.489029 z" />
  </g>
</svg>
