<?xml version="1.0" encoding="UTF-8" standalone="no"?>
<svg
   xmlns:dc="http://purl.org/dc/elements/1.1/"
   xmlns:cc="http://creativecommons.org/ns#"
   xmlns:rdf="http://www.w3.org/1999/02/22-rdf-syntax-ns#"
   xmlns:svg="http://www.w3.org/2000/svg"
   xmlns="http://www.w3.org/2000/svg"
   xmlns:sodipodi="http://sodipodi.sourceforge.net/DTD/sodipodi-0.dtd"
   xmlns:inkscape="http://www.inkscape.org/namespaces/inkscape"
   width="29.665001mm"
   height="32.317001mm"
   viewBox="0 0 29.665001 32.317001"
   version="1.1"
   id="svg8"
   inkscape:version="1.0 (4035a4fb49, 2020-05-01)"
   sodipodi:docname="safari-pinned-tab.svg">
  <defs
     id="defs2" />
  <sodipodi:namedview
     inkscape:snap-global="false"
     id="base"
     pagecolor="#ffffff"
     bordercolor="#666666"
     borderopacity="1.0"
     inkscape:pageopacity="0.0"
     inkscape:pageshadow="2"
     inkscape:zoom="2.8284271"
     inkscape:cx="79.810784"
     inkscape:cy="64.194831"
     inkscape:document-units="mm"
     inkscape:current-layer="layer1"
     showgrid="false"
     inkscape:snap-intersection-paths="true"
     inkscape:snap-smooth-nodes="true"
     inkscape:snap-midpoints="true"
     inkscape:window-width="1920"
     inkscape:window-height="1017"
     inkscape:window-x="1672"
     inkscape:window-y="-8"
     inkscape:window-maximized="1"
     inkscape:document-rotation="0" />
  <metadata
     id="metadata5">
    <rdf:RDF>
      <cc:Work
         rdf:about="">
        <dc:format>image/svg+xml</dc:format>
        <dc:type
           rdf:resource="http://purl.org/dc/dcmitype/StillImage" />
        <dc:title></dc:title>
      </cc:Work>
    </rdf:RDF>
  </metadata>
  <g
     inkscape:label="Layer 1"
     inkscape:groupmode="layer"
     id="layer1">
    <rect
       inkscape:export-ydpi="110.48"
       inkscape:export-xdpi="110.48"
       inkscape:export-filename="F:\projects\dungeons&amp;distancing\client\public\img\icons\mstile-150x150.png"
       y="-1.0847785"
       x="-2.4109635"
       height="34.48695"
       width="34.48695"
       id="rect891"
       style="fill:none;stroke-width:2.67098;stroke-linecap:round;paint-order:stroke markers fill" />
    <g
       id="g1080"
       style="fill:#214478"
       transform="matrix(0.14298807,0,0,0.14298807,59.683866,-2.599394)"
       inkscape:export-filename="F:\projects\dungeons&amp;distancing\client\public\img\icons\mstile-150x150.png"
       inkscape:export-xdpi="110.48"
       inkscape:export-ydpi="110.48">
      <path
         transform="matrix(-0.79422627,-0.11880352,-0.11880351,-0.93140876,-379.98202,175.30739)"
         inkscape:transform-center-y="12.730148"
         inkscape:transform-center-x="3.571096"
         d="m -105.18652,145.01485 c -1.90702,3.30307 -125.2279,3.30307 -127.13492,0 -1.90703,-3.30306 59.75341,-110.102069 63.56746,-110.102069 3.81405,0 65.47448,106.799009 63.56746,110.102069 z"
         inkscape:randomized="0"
         inkscape:rounded="0.03"
         inkscape:flatsided="true"
         sodipodi:arg2="1.5707963"
         sodipodi:arg1="0.52359878"
         sodipodi:r2="36.700691"
         sodipodi:r1="73.401382"
         sodipodi:cy="108.31416"
         sodipodi:cx="-168.75398"
         sodipodi:sides="3"
         id="path815-5"
         style="opacity:1;fill:#214478;fill-opacity:1;stroke:#ffffff;stroke-width:3.52178;stroke-linecap:square;stroke-linejoin:round;stroke-miterlimit:4;stroke-dasharray:none;stroke-opacity:1;paint-order:markers fill stroke"
         sodipodi:type="star" />
      <path
         sodipodi:nodetypes="cccc"
         inkscape:connector-curvature="0"
         id="path920"
         d="M -313.66841,52.991178 V 20.510417 c 0,0 69.02417,22.826674 101.0347,47.541416 -39.82384,-8.75505 -101.0347,-15.060655 -101.0347,-15.060655 z"
         style="fill:#214478;stroke:#ffffff;stroke-width:3;stroke-linecap:butt;stroke-linejoin:miter;stroke-miterlimit:4;stroke-dasharray:none;stroke-opacity:1" />
      <path
         transform="matrix(0.29422627,0.74722189,-0.7472219,0.56859124,-237.92895,158.98138)"
         inkscape:transform-center-y="12.677067"
         inkscape:transform-center-x="-3.6017423"
         d="m -105.18652,145.01485 c -1.90702,3.30307 -125.2279,3.30307 -127.13492,0 -1.90703,-3.30306 59.75341,-110.102069 63.56746,-110.102069 3.81405,0 65.47448,106.799009 63.56746,110.102069 z"
         inkscape:randomized="0"
         inkscape:rounded="0.03"
         inkscape:flatsided="true"
         sodipodi:arg2="1.5707963"
         sodipodi:arg1="0.52359878"
         sodipodi:r2="36.700691"
         sodipodi:r1="73.401382"
         sodipodi:cy="108.31416"
         sodipodi:cx="-168.75398"
         sodipodi:sides="3"
         id="path815-5-0"
         style="opacity:1;fill:#214478;fill-opacity:1;stroke:#ffffff;stroke-width:3.52178;stroke-linecap:square;stroke-linejoin:round;stroke-miterlimit:4;stroke-dasharray:none;stroke-opacity:1;paint-order:markers fill stroke"
         sodipodi:type="star" />
      <path
         transform="matrix(0.5,-0.62841836,0.86602542,0.36281753,-323.09423,44.122815)"
         inkscape:transform-center-y="13.277136"
         inkscape:transform-center-x="0.03065176"
         d="m -105.18652,145.01485 c -1.90702,3.30307 -125.2279,3.30307 -127.13492,0 -1.90703,-3.30306 59.75341,-110.102069 63.56746,-110.102069 3.81405,0 65.47448,106.799009 63.56746,110.102069 z"
         inkscape:randomized="0"
         inkscape:rounded="0.03"
         inkscape:flatsided="true"
         sodipodi:arg2="1.5707963"
         sodipodi:arg1="0.52359878"
         sodipodi:r2="36.700691"
         sodipodi:r1="73.401382"
         sodipodi:cy="108.31416"
         sodipodi:cx="-168.75398"
         sodipodi:sides="3"
         id="path815-5-0-5"
         style="opacity:1;fill:#214478;fill-opacity:1;stroke:#ffffff;stroke-width:3.52178;stroke-linecap:square;stroke-linejoin:round;stroke-miterlimit:4;stroke-dasharray:none;stroke-opacity:1;paint-order:markers fill stroke"
         sodipodi:type="star" />
      <path
         inkscape:transform-center-y="-18.350339"
         inkscape:transform-center-x="-1.1385757e-05"
         d="m -250.10093,162.83789 c -1.90703,3.30306 -125.2279,3.30306 -127.13493,0 -1.90702,-3.30306 59.75342,-110.102073 63.56746,-110.102073 3.81405,0 65.47449,106.799013 63.56747,110.102073 z"
         inkscape:randomized="0"
         inkscape:rounded="0.03"
         inkscape:flatsided="true"
         sodipodi:arg2="1.5707963"
         sodipodi:arg1="0.52359878"
         sodipodi:r2="36.700691"
         sodipodi:r1="73.401382"
         sodipodi:cy="126.1372"
         sodipodi:cx="-313.6684"
         sodipodi:sides="3"
         id="path815"
         style="opacity:1;fill:#214478;fill-opacity:1;stroke:#ffffff;stroke-width:3;stroke-linecap:square;stroke-linejoin:round;stroke-miterlimit:4;stroke-dasharray:none;stroke-opacity:1;paint-order:markers fill stroke"
         sodipodi:type="star" />
      <path
         sodipodi:nodetypes="cccc"
         inkscape:connector-curvature="0"
         id="path920-7"
         d="M -313.6684,52.735813 V 20.255052 c 0,0 -69.02417,22.826674 -101.0347,47.541416 39.82384,-8.755049 101.0347,-15.060655 101.0347,-15.060655 z"
         style="fill:#214478;stroke:#ffffff;stroke-width:3;stroke-linecap:butt;stroke-linejoin:miter;stroke-miterlimit:4;stroke-dasharray:none;stroke-opacity:1" />
      <path
         sodipodi:nodetypes="cccc"
         inkscape:connector-curvature="0"
         id="path920-2"
         d="m -250.10093,162.83789 28.12917,16.24038 c 0,0 -54.28057,48.36335 -91.68942,63.72791 27.49401,-30.11093 63.56025,-79.96829 63.56025,-79.96829 z"
         style="fill:#214478;stroke:#ffffff;stroke-width:3;stroke-linecap:butt;stroke-linejoin:miter;stroke-miterlimit:4;stroke-dasharray:none;stroke-opacity:1" />
      <path
         sodipodi:nodetypes="cccc"
         inkscape:connector-curvature="0"
         id="path920-2-4"
         d="m -377.23586,162.83789 -28.12917,16.24038 c 0,0 54.28057,48.36335 91.68942,63.72791 -27.49401,-30.11093 -63.56025,-79.96829 -63.56025,-79.96829 z"
         style="fill:#214478;stroke:#ffffff;stroke-width:3;stroke-linecap:butt;stroke-linejoin:miter;stroke-miterlimit:4;stroke-dasharray:none;stroke-opacity:1" />
      <path
         sodipodi:nodetypes="cccc"
         inkscape:connector-curvature="0"
         id="path920-2-4-3"
         d="m -250.10815,163.08076 28.12916,16.24039 c 0,0 14.74361,-71.19003 9.34528,-111.269317 -12.32982,38.865967 -37.47444,95.028927 -37.47444,95.028927 z"
         style="fill:#214478;stroke:#ffffff;stroke-width:3;stroke-linecap:butt;stroke-linejoin:miter;stroke-miterlimit:4;stroke-dasharray:none;stroke-opacity:1" />
      <path
         sodipodi:nodetypes="cccc"
         inkscape:connector-curvature="0"
         id="path920-2-4-3-9"
         d="m -377.23586,162.83789 -28.12916,16.24038 c 0,0 -14.74361,-71.19002 -9.34528,-111.269311 12.32982,38.865971 37.47444,95.028931 37.47444,95.028931 z"
         style="fill:#214478;stroke:#ffffff;stroke-width:3;stroke-linecap:butt;stroke-linejoin:miter;stroke-miterlimit:4;stroke-dasharray:none;stroke-opacity:1" />
    </g>
    <path
       style="fill:#ffffff;fill-opacity:1;stroke:none;stroke-width:0.105842;stroke-linecap:square;stroke-linejoin:miter;stroke-miterlimit:4;stroke-dasharray:none;stroke-opacity:1;paint-order:stroke markers fill"
       d="m 14.125326,8.325977 c -0.0434,-3.6e-4 -0.0808,0.016 -0.11404,0.0383 l -0.0339,-0.0147 0.007,0.0358 c -0.0498,0.0469 -0.0792,0.11465 -0.0653,0.18775 0.0388,0.20374 0.0275,0.32141 -6.5e-4,0.51676 -0.20706,-0.14312 -0.42383,-0.23982 -0.6416,-0.24438 -0.0259,-5.3e-4 -0.0518,4.3e-4 -0.0778,0.003 h -1.1e-4 c -0.0882,0.009 -0.15353,0.0708 -0.17688,0.14368 -0.0233,0.0729 -0.006,0.16106 0.0605,0.21974 h 1.1e-4 c 0.23179,0.2043997 0.3791,0.3801197 0.49879,0.5761597 -0.41359,-0.2102 -0.82851,-0.36004 -1.18446,-0.37723 h -1.1e-4 c -0.10063,-0.005 -0.17944,0.0605 -0.20691,0.14032 -0.0275,0.0798 -0.006,0.17981 0.0768,0.23795 0.0875,0.0618 0.20983,0.14627 0.34433,0.2457503 -0.0947,-0.0256 -0.1869,-0.0403 -0.27627,-0.0385 -0.0139,2.8e-4 -0.0279,10e-4 -0.0421,0.002 -0.0948,0.008 -0.16333,0.076 -0.1841,0.1541 -0.0208,0.0781 0.005,0.17115 0.0832,0.2251 h 1.1e-4 c 0.12305,0.0846 0.49427,0.38681 0.77422,0.68629 -0.0742,-0.0191 -0.14936,-0.0352 -0.2259,-0.0455 -0.10375,-0.014 -0.1896,0.0491 -0.22157,0.12982 -0.032,0.0807 -0.0125,0.18544 0.0727,0.24627 0.18589,0.13264 0.37616,0.27508 0.55899,0.4255 -0.0716,0.004 -0.144,0.0101 -0.22097,0.0327 -0.0863,0.0254 -0.13948,0.0994 -0.1482,0.17636 -0.009,0.077 0.0265,0.16112 0.10493,0.2052 0.1665,0.0935 0.43283,0.30263 0.61959,0.58324 -0.10196,-0.0125 -0.2053,-0.0261 -0.29787,-0.0255 -0.0679,4.9e-4 -0.13276,0.004 -0.1939,0.0117 -0.0991,0.012 -0.16576,0.0884 -0.18019,0.17092 -0.0144,0.0825 0.0224,0.17701 0.11152,0.2219 v 1.1e-4 c 0.13847,0.0697 0.39044,0.22812 0.62304,0.42406 -0.0111,0.0137 -0.0288,0.0293 -0.0356,0.0399 -0.0105,0.0166 -0.0175,0.0283 -0.0224,0.0375 -3e-5,4e-5 -5e-5,1.4e-4 -1.1e-4,1.4e-4 -0.0143,0.007 -0.0316,0.0158 -0.0532,0.026 -0.0264,0.0125 -0.0555,0.026 -0.0855,0.0427 -0.003,0.002 -0.0223,0.005 -0.0487,0.0227 -0.0263,0.0175 -0.0511,0.047 -0.076,0.0969 -0.0123,0.0246 -0.0125,0.0514 -0.0147,0.0777 -0.0575,0.036 -0.17687,0.10164 -0.29276,0.23987 -0.0716,0.0854 -0.10436,0.18254 -0.11508,0.25701 -0.009,0.0592 -0.012,0.10134 -0.0272,0.16362 -0.03,0.0441 -0.0582,0.0904 -0.0688,0.16045 -0.006,0.0371 0.003,0.0827 0.0225,0.12807 -0.008,0.011 -0.0175,0.0229 -0.024,0.0317 -0.006,0.008 -0.0106,0.0143 -0.014,0.0189 -0.002,0.002 -0.003,0.004 -0.004,0.005 -0.0824,0.091 -0.1027,0.20319 -0.10258,0.2932 1.4e-4,0.0897 0.0184,0.17053 0.0376,0.23943 -9.6e-4,-0.004 10e-4,0.009 10e-5,0.0276 -10e-4,0.0191 -0.004,0.0464 -0.01,0.082 -0.0113,0.0712 -0.0289,0.17403 -0.0219,0.29828 9.6e-4,0.0508 0.002,0.0921 0.0161,0.14352 0.004,0.0155 0.0195,0.0503 0.0473,0.0859 -0.041,0.10968 -0.0186,0.21878 0.0156,0.30583 0.003,0.007 0.005,0.0113 0.008,0.0176 -0.002,10e-4 -0.003,0.002 -0.005,0.003 -0.039,0.0306 -0.0685,0.0635 -0.0943,0.0946 -0.0136,0.0164 -0.0197,0.0221 -0.0336,0.0366 -0.0149,0.0156 -0.046,0.0494 -0.065,0.0987 -0.0166,0.043 -0.0228,0.0794 -0.0241,0.11448 -10e-4,0.0351 10e-4,0.068 1.4e-4,0.11576 -0.002,0.10608 0.008,0.16217 0.0118,0.18332 v 2.8e-4 c 1.4e-4,-0.004 -0.001,0.0164 -0.007,0.0495 -0.0294,0.18489 -0.0164,0.42282 0.0826,0.69322 0.0204,0.0633 0.0378,0.10637 0.0617,0.15158 l -0.004,0.008 v 0.005 c -0.0502,0.11573 -0.022,0.2266 -0.008,0.28237 0.0152,0.0594 0.0233,0.0889 0.0173,0.13821 -0.0119,0.0971 -0.0169,0.17902 0.0136,0.26257 0.0289,0.0794 0.0654,0.11564 0.0948,0.16165 1.4e-4,2.9e-4 4.9e-4,4.3e-4 4.9e-4,8.6e-4 v 1.1e-4 c 0.0672,0.10549 0.13023,0.23289 0.29987,0.51941 0.01,0.0161 0.0212,0.0309 0.0347,0.0439 0.0763,0.0735 0.13985,0.14738 0.23872,0.20437 0.01,0.006 0.0165,0.007 0.0248,0.0107 0.007,0.0242 0.0166,0.0576 0.0443,0.12383 0.012,0.0286 0.0108,0.028 0.016,0.057 0.005,0.0279 0.0135,0.0784 0.0346,0.14472 0.0396,0.12425 0.13943,0.19962 0.22346,0.23976 0.081,0.0387 0.15788,0.0581 0.22477,0.0796 0.0181,0.006 0.0369,0.009 0.0558,0.01 0.0907,0.003 0.16028,-0.009 0.16884,-0.0103 0.002,-2.8e-4 0.002,-4.2e-4 0.004,-5.7e-4 -10e-4,4e-5 0.005,0.002 0.0266,0.009 0.0167,0.006 0.0474,0.01 0.0769,0.0128 0.0323,0.036 0.0837,0.0872 0.17168,0.12364 0.11119,0.0461 0.24785,0.0441 0.40133,0.006 l 0.0266,0.005 v -0.009 -1.4e-4 c 0.004,-0.001 0.008,-5.7e-4 0.0117,-0.002 l -0.0117,0.002 c 0.0479,-0.002 0.1003,-0.005 0.14229,-0.006 0.021,-4.3e-4 0.0394,-0.001 0.0531,-0.001 0.0136,-4e-5 0.028,0.002 0.0191,1.1e-4 0.0933,0.0158 0.16664,-0.0101 0.22573,-0.0425 0.006,0.003 0.0109,0.007 0.0192,0.009 0.0487,0.0129 0.0817,0.016 0.10545,0.015 0.0238,-0.001 0.0401,-5.8e-4 0.0208,-0.004 0.0828,0.0134 0.14508,-0.0105 0.17568,-0.0239 0.0971,0.0345 0.19342,0.0432 0.27994,0.0364 0.0778,-0.006 0.17863,-0.0111 0.26803,-0.11464 0.0107,-0.0124 0.0183,-0.0289 0.0266,-0.0447 0.0156,-0.006 0.0313,-0.0112 0.0485,-0.0206 0.054,-0.0296 0.0953,-0.0596 0.16206,-0.10135 0.0289,-0.0181 0.0359,-0.0173 0.0638,-0.0164 0.0119,4.3e-4 0.0251,0.002 0.0423,0.005 4.3e-4,1.1e-4 0.0622,0.0178 0.13701,-0.004 0.0285,-0.008 0.05,-0.0241 0.0717,-0.0392 0.023,0.007 0.0457,0.0155 0.0716,0.0132 0.0405,-0.004 0.0705,-0.0175 0.0873,-0.0267 0.0642,-0.0351 0.0855,-0.0729 0.0872,-0.0748 h 1.1e-4 c 0.008,-0.01 0.0126,-0.014 0.017,-0.0185 0.06,-0.0265 0.0982,-0.0692 0.11431,-0.0917 0.0241,-0.0336 0.0385,-0.0616 0.0511,-0.0832 0.0251,-0.0431 0.0564,-0.073 0.0525,-0.0707 0.14043,-0.0826 0.20201,-0.2079 0.26205,-0.32415 0.0312,-0.0603 0.0579,-0.12123 0.0783,-0.1794 0.0193,-0.0553 0.0386,-0.11012 0.0371,-0.18594 -4.2e-4,-0.0272 -0.002,-0.0699 -0.0269,-0.11967 -0.003,-0.005 -0.007,-0.009 -0.0101,-0.0138 0.0216,-0.0122 0.0367,-0.0241 0.0396,-0.0264 0.006,-0.005 0.009,-0.007 0.0105,-0.008 7.2e-4,-4.3e-4 8.6e-4,-4.3e-4 4.3e-4,-4.3e-4 -1.4e-4,1.4e-4 -4.3e-4,2.8e-4 -8.6e-4,4.3e-4 -1.4e-4,1.4e-4 -4.3e-4,2.8e-4 -5.7e-4,4.3e-4 -4e-5,2e-5 -4e-5,4e-5 -1e-4,10e-5 0,0 -4.3e-4,-4.3e-4 -4.3e-4,-4.3e-4 0.0943,-0.0466 0.14549,-0.12453 0.17819,-0.18539 0.0333,-0.0619 0.0565,-0.12135 0.0833,-0.17888 0.0779,-0.16735 0.0824,-0.30093 0.11968,-0.43524 0.0325,-0.1169 0.0241,-0.22251 0.0127,-0.30646 -0.0113,-0.0831 -0.0241,-0.15045 -0.0242,-0.23716 0,-0.0633 -0.004,-0.12055 -0.0225,-0.18028 -0.009,-0.0288 -0.0272,-0.0518 -0.0435,-0.076 0.0275,-0.0445 0.0418,-0.0847 0.0467,-0.0973 1.4e-4,-4.3e-4 4e-5,-1.1e-4 1.4e-4,-4.3e-4 0.0756,-0.0793 0.0691,-0.15888 0.0736,-0.19554 0.007,-0.0571 0.009,-0.11619 0.0106,-0.1768 0.003,-0.12093 0.008,-0.25726 0.0197,-0.31636 0.0517,-0.25704 -0.0285,-0.4674 -0.0975,-0.69494 -0.0186,-0.0615 -0.0412,-0.11627 -0.0799,-0.16641 -0.032,-0.0415 -0.0835,-0.075 -0.14393,-0.0933 -0.001,-0.007 -0.003,-0.0138 -0.005,-0.0207 0.0351,-0.0284 0.0646,-0.0605 0.0773,-0.1011 0.0172,-0.0547 0.0132,-0.097 0.0107,-0.12408 -0.006,-0.0617 -0.0206,-0.11682 -0.0359,-0.17284 -0.0153,-0.0561 -0.0324,-0.11671 -0.046,-0.16761 -0.0136,-0.0509 -0.0238,-0.0966 -0.0246,-0.1045 -0.0157,-0.15661 -0.0913,-0.28943 -0.16198,-0.42482 -0.0361,-0.0691 -0.0728,-0.1341 -0.10518,-0.1873 -0.0301,-0.0495 -0.0456,-0.0845 -0.0972,-0.13562 -0.0597,-0.059 -0.12533,-0.0874 -0.19685,-0.1 -0.0336,-0.13257 -0.0894,-0.25964 -0.16138,-0.37204 -0.0741,-0.11582 -0.16555,-0.22275 -0.27826,-0.2976 0.0719,-0.0547 0.1458,-0.10925 0.22417,-0.15367 0.24678,-0.13987 0.46576,-0.21586 0.53251,-0.24175 0.0835,-0.0324 0.13031,-0.11019 0.13286,-0.18731 0.003,-0.0771 -0.0389,-0.15777 -0.12011,-0.19565 -0.0529,-0.0247 -0.0995,-0.0347 -0.16718,-0.0468 -0.0698,-0.0125 -0.15746,-0.0223 -0.25852,-0.0228 -0.0494,-3.2e-4 -0.10996,0.0122 -0.1651,0.0174 0.0428,-0.0357 0.081,-0.0712 0.12922,-0.10728 0.0747,-0.0558 0.0975,-0.14755 0.0756,-0.22406 -0.0218,-0.0765 -0.0896,-0.14239 -0.18247,-0.15039 -0.0606,-0.005 -0.12646,-0.008 -0.19477,-0.007 0.11586,-0.091 0.2273,-0.16461 0.31237,-0.19165 h 1.1e-4 c 0.10904,-0.0348 0.15737,-0.14096 0.14232,-0.23232 -0.0139,-0.0841 -0.0842,-0.15978 -0.18438,-0.17013 0.0354,-0.0381 0.0688,-0.0756 0.10728,-0.11412 0.14642,-0.14696 0.31336,-0.28582 0.45821,-0.35241 0.094,-0.0432 0.13307,-0.14082 0.11809,-0.22554 -5.7e-4,-0.004 -0.005,-0.007 -0.006,-0.0113 l 0.0113,-0.005 -0.0147,-10e-4 c -0.0216,-0.0769 -0.0838,-0.14595 -0.17891,-0.15366 -0.0304,-0.002 -0.0614,-0.004 -0.093,-0.004 -0.0407,-3.6e-4 -0.0855,0.009 -0.1279,0.0118 0.0315,-0.0485 0.0436,-0.10651 0.0315,-0.15955 -0.0198,-0.0864 -0.0981,-0.1632 -0.20579,-0.16182 -0.0679,9.2e-4 -0.13222,0.01 -0.19753,0.0162 0.12617,-0.19237 0.29187,-0.38437 0.40357,-0.43688 0.0872,-0.041 0.12734,-0.13032 0.11839,-0.21143 -0.009,-0.0811 -0.0676,-0.15939 -0.16157,-0.18044 h -1.1e-4 c -0.0517,-0.0115 -0.1039,-0.0165 -0.15558,-0.0163 -0.0422,1.9e-4 -0.0838,0.005 -0.1252,0.0115 0.0202,-0.048 0.0283,-0.0988 0.0125,-0.1454897 -0.0249,-0.0736 -0.0929,-0.135 -0.18312,-0.14117 -0.0162,-0.001 -0.0322,-0.002 -0.0479,-0.002 h -1.1e-4 c -0.14456,-0.002 -0.28354,0.035 -0.41807,0.0885 0.001,-0.0102 0.003,-0.0198 0.004,-0.0302 0.0208,-0.19177 0.0397,-0.40985 0.0604,-0.49401 0.0344,-0.14045 -0.0856,-0.2748 -0.22904,-0.25625 h -1.1e-4 c -0.19073,0.0247 -0.3844,0.1213 -0.55664,0.26063 -0.12397,0.10028 -0.23149,0.23094 -0.30551,0.3826 -0.039,-0.0303 -0.0774,-0.0607 -0.12227,-0.091 -0.0738,-0.0498 -0.17157,-0.0471 -0.24246,0.007 -0.007,0.006 -0.014,0.0123 -0.0212,0.0183 -0.0526,-0.0773 -0.11092,-0.16236 -0.19329,-0.26284 -0.12931,-0.15772 -0.27296,-0.32286 -0.46482,-0.40591 -0.0197,-0.009 -0.0411,-0.011 -0.0623,-0.0132 -0.006,-6.3e-4 -0.0123,-0.004 -0.0187,-0.004 z m -0.009,0.22494 c 0.0893,0.0653 0.18722,0.15766 0.27714,0.26735 0.1122,0.13688 0.20053,0.2695 0.24835,0.34436 -0.0937,0.1440197 -0.18155,0.3251297 -0.23848,0.4896897 -0.0773,-0.11381 -0.16837,-0.24578 -0.33378,-0.3931797 0.046,-0.3216 0.0742,-0.48345 0.0468,-0.70822 z m 1.96245,0.14934 c -0.0219,0.1296 -0.0363,0.28867 -0.0527,0.44 -0.01,0.0922 -0.0216,0.1777797 -0.0363,0.2402797 -0.007,0.0312 -0.0157,0.0568 -0.0234,0.0729 -0.008,0.0162 -0.015,0.0203 -0.0107,0.0182 -0.0667,0.0322 -0.15434,0.10261 -0.23249,0.16745 -0.0443,0.0367 -0.0545,0.0466 -0.0807,0.0697 -0.0483,-0.18893 -0.10151,-0.28517 -0.19997,-0.42509 0.0386,-0.1500097 0.14755,-0.2929197 0.28218,-0.4018197 0.11575,-0.0936 0.24385,-0.15209 0.35413,-0.18168 z m -2.70399,0.4126 c 0.24178,0.0533 0.56584,0.2675897 0.83605,0.5639097 0.26827,0.29419 0.46959,0.6530203 0.51294,0.9635703 -0.21906,-0.2093 -0.39127,-0.34405 -0.68135,-0.53798 -0.16178,-0.3832703 -0.34117,-0.6746903 -0.66764,-0.9895 z m 1.64547,0.0996 c 0.30149,0.2092197 0.4264,0.3709997 0.48162,0.6488797 -0.18354,0.2465003 -0.46433,0.5980003 -0.59826,0.9471303 -0.006,-0.006 -0.007,-0.006 -0.015,-0.0144 0.0116,-0.17757 0.005,-0.56494 -0.28398,-0.8755703 0.0208,-0.13557 0.0904,-0.28957 0.17716,-0.42335 0.0806,-0.12428 0.17082,-0.2240897 0.23848,-0.2826897 z m 1.56937,0.1687297 c -0.27597,0.25158 -0.66535,0.6602803 -0.73691,1.1948003 -0.18779,0.10019 -0.46426,0.25984 -0.70743,0.50771 -0.0357,-0.0506 -0.0706,-0.0973 -0.11289,-0.14109 0.012,-0.0708 0.0678,-0.20555 0.1637,-0.36342 0.10148,-0.1671 0.24232,-0.35948 0.40532,-0.54042 0.29363,-0.3259603 0.66052,-0.6077003 0.98821,-0.6575803 z m 0.39926,0.27542 c -0.23575,0.17752 -0.43903,0.4807003 -0.53651,0.7352703 -0.0857,0.0167 -0.19633,0.05 -0.29735,0.0847 -0.0604,0.0208 -0.0728,0.026 -0.11005,0.0399 0.0471,-0.19067 0.17714,-0.39377 0.35049,-0.5547203 0.18235,-0.16932 0.40368,-0.2844 0.59342,-0.30515 z m -4.37407,0.0354 c 0.35952,0.0726 0.80548,0.26256 1.22581,0.5160503 0.49748,0.30002 0.94975,0.67921 1.1732,1.00927 -0.22445,0.24705 -0.31994,0.38252 -0.37461,0.51173 -0.33773,-0.46498 -0.6551,-0.81125 -0.9988,-1.0635 -0.37247,-0.49875 -0.76437,-0.7933203 -1.0256,-0.9735503 z m -0.10274,0.5792503 c 0.12141,0.0272 0.25805,0.0724 0.41536,0.15367 0.234,0.12096 0.49348,0.29621 0.7423,0.50719 0.42956,0.36424 0.82518,0.83593 1.01362,1.31368 -0.2395,-0.25395 -0.71039,-0.71316 -1.18315,-0.92873 -0.1922,-0.39874 -0.69359,-0.8228 -0.98813,-1.04581 z m 4.28195,0.23257 c -0.17542,0.10325 -0.38094,0.23642 -0.59522,0.41459 -0.30423,0.25296 -0.58364,0.55558 -0.64932,0.86334 -0.31444,0.23163 -0.49821,0.42456 -0.6255,0.6106 -0.0748,-0.23194 -0.14567,-0.43403 -0.1508,-0.44739 0.0785,-0.2486 0.3438,-0.61354 0.73848,-0.9139 0.34415,-0.26192 0.78729,-0.46664 1.28236,-0.52724 z m 0.43177,0.2906 c -0.13122,0.0875 -0.25676,0.18957 -0.3669,0.30011 -0.15266,0.15322 -0.27961,0.30347 -0.36709,0.39083 -0.30421,0.0749 -0.44046,0.10522 -0.70204,0.20978 0.12311,-0.2705 0.34803,-0.48843 0.61324,-0.64076 0.27084,-0.15556 0.57324,-0.24097 0.82279,-0.25996 z m -4.28031,0.51805 c 0.43853,0.12269 0.8592,0.40492 1.18694,0.68591 0.19314,0.16557 0.35422,0.32976 0.46864,0.4576 0.0572,0.0639 0.10275,0.11876 0.13458,0.15983 0.0159,0.0205 0.0285,0.0377 0.037,0.0503 0.009,0.0126 0.0136,0.0238 0.0115,0.0183 0.004,0.0115 0.0134,0.0511 0.0212,0.10094 0.008,0.0499 0.0157,0.11218 0.022,0.17932 0.009,0.0968 0.01,0.19482 0.0102,0.28948 -0.15926,-0.12128 -0.35483,-0.17114 -0.51501,-0.16928 -0.13671,-0.80855 -0.78531,-1.34284 -1.37721,-1.77238 z m 3.70538,0.35743 c -0.1945,0.12276 -0.38996,0.30636 -0.56878,0.52169 -0.25345,0.30518 -0.47054,0.66711 -0.58699,0.98985 -0.0897,0.0916 -0.16123,0.20603 -0.20369,0.34054 -0.0899,0.0351 -0.16623,0.0558 -0.21854,0.0679 -10e-4,-0.0491 -0.005,-0.18062 -0.0175,-0.37964 -0.007,-0.11645 -0.017,-0.23829 -0.0295,-0.3427 -0.0108,-0.0903 -0.0242,-0.15623 -0.0425,-0.21099 0.43423,-0.77278 1.13926,-0.94474 1.66748,-0.98665 z m -3.43754,0.38659 c 0.15918,1.1e-4 0.2969,0.058 0.44981,0.12243 0.0703,0.0803 0.16742,0.16301 0.26421,0.31046 0.089,0.13561 0.1746,0.33022 0.22937,0.61507 -0.0124,-0.007 -0.0104,-0.007 -0.0245,-0.0145 -0.0652,-0.0348 -0.14507,-0.0699 -0.22338,-0.0883 -0.15946,-0.45418 -0.50955,-0.76208 -0.7723,-0.93368 0.025,-0.003 0.053,-0.0115 0.0767,-0.0115 z m 3.45036,0.19171 v 2e-5 c 0.0128,-10e-5 0.0235,10e-4 0.0361,10e-4 -0.25843,0.20744 -0.45387,0.41559 -0.59367,0.63346 -0.10262,0.0109 -0.21277,0.0482 -0.32292,0.10165 0.12763,-0.27078 0.27814,-0.52622 0.37852,-0.64448 0.1173,-0.0612 0.31935,-0.0908 0.502,-0.092 z m 0.33881,0.47183 c 0.0606,3.1e-4 0.10623,0.007 0.15287,0.0134 -0.10807,0.0441 -0.24498,0.10455 -0.40001,0.19242 -0.2271,0.12871 -0.46151,0.30527 -0.59618,0.52948 -1.5e-4,-0.002 -4.3e-4,-0.002 -5.8e-4,-0.004 -0.005,-0.0954 0.009,-0.25313 0.0813,-0.48351 0.26325,-0.19763 0.54839,-0.2484 0.76267,-0.24734 z m -3.77312,0.3186 c 0.39669,9.6e-4 0.93588,0.14339 1.18203,0.47963 -0.10246,0.0794 -0.19359,0.15582 -0.3069,0.2572 -0.25452,-0.32892 -0.61551,-0.58585 -0.87513,-0.73683 z m 2.78803,0.0318 c -0.0176,0.083 -0.0252,0.17344 -0.0247,0.27515 5.8e-4,0.12581 0.005,0.26376 4.3e-4,0.40045 -0.0958,0.0255 -0.22494,0.0422 -0.33949,0.0313 -0.0639,-0.006 -0.12172,-0.0202 -0.16303,-0.0412 -0.0367,-0.0187 -0.0572,-0.0412 -0.0685,-0.0689 0.0427,-0.18727 0.14776,-0.33898 0.27351,-0.44451 0.10541,-0.0885 0.22053,-0.13402 0.3218,-0.15228 z m -1.61771,0.22354 c 0.0933,4.9e-4 0.20786,0.0262 0.30567,0.0849 0.0908,0.0545 0.16407,0.13919 0.20448,0.25757 -0.0131,0.0173 -0.0283,0.0349 -0.061,0.0516 -0.0296,0.0151 -0.0711,0.028 -0.11117,0.0412 -0.0726,-0.19803 -0.22337,-0.3321 -0.34313,-0.43464 0.002,-10e-6 0.003,-4.8e-4 0.005,-4.8e-4 z m 1.98972,0.18004 c 0.10421,0.017 0.23275,0.12099 0.32891,0.27123 0.081,0.12652 0.13625,0.27912 0.14888,0.41695 -0.25184,-0.21021 -0.46546,-0.36068 -0.66677,-0.40869 0.0544,-0.12666 0.1171,-0.22276 0.18898,-0.27949 z m -1.87264,0.19449 c 0.0517,0.0729 0.0936,0.13423 0.11532,0.21878 l 0.009,0.0343 c -0.0459,-0.0314 -0.0966,-0.0574 -0.14748,-0.0778 -0.0472,-0.0189 -0.0931,-0.0321 -0.13713,-0.0414 0.0502,-0.0434 0.10523,-0.091 0.16054,-0.1339 z m 0.73735,0.0487 c 0.0133,0.023 0.0251,0.0488 0.0688,0.0952 0.0594,0.063 0.15087,0.12984 0.26394,0.1138 0.009,-3.2e-4 0.007,6.4e-4 0.0146,9.5e-4 l -0.0949,0.10146 c -0.0153,-0.001 -0.0291,-0.003 -0.0636,-0.003 -0.0492,-10e-6 -0.10328,-0.001 -0.15262,0.0246 -0.012,0.006 -0.0815,0.0262 -0.14516,0.0414 -0.0318,0.008 -0.0636,0.015 -0.0909,0.0224 -0.0203,0.005 -0.0356,0.0115 -0.0517,0.0183 0.0123,-0.0145 0.0264,-0.0292 0.0362,-0.0458 0.0173,-0.0294 0.0243,-0.0694 0.0167,-0.10909 -0.0102,-0.0535 -0.032,-0.14218 -0.043,-0.18774 0.0401,-0.0144 0.0895,-0.0311 0.14445,-0.0465 0.0522,-0.0147 0.0763,-0.0207 0.0971,-0.0261 z m -1.47479,0.0429 c 1.4e-4,0 0.003,-4.8e-4 0.0127,0.005 0.0405,0.0251 0.0791,0.0541 0.10518,0.0786 0.013,0.0122 0.0228,0.0234 0.0277,0.0304 4.8e-4,8e-4 8e-4,10e-4 0.001,0.002 -0.003,0.0119 -0.01,0.0381 -0.0198,0.0648 -0.013,0.0339 -0.0313,0.0719 -0.05,0.0993 -0.0318,0.0467 -0.0347,0.0525 -0.0414,0.0634 -0.0102,4.8e-4 -0.0238,0.002 -0.0304,4.8e-4 -0.012,-0.002 -0.025,-0.007 -0.0498,-0.031 -0.0616,-0.0585 -0.11567,-0.0939 -0.18802,-0.0975 -0.01,-4.8e-4 -0.0161,-0.004 -0.0256,-0.006 0.0158,-0.008 0.0321,-0.0164 0.0515,-0.0256 0.0263,-0.0124 0.0535,-0.0252 0.0775,-0.0381 0.024,-0.0129 0.0439,-0.0214 0.0635,-0.0469 0.0207,-0.0269 0.0305,-0.0539 0.0437,-0.0747 0.0132,-0.0207 0.0216,-0.0248 0.022,-0.0248 z m 1.05812,0.1136 c 0.0135,0.0529 0.0283,0.10847 0.0296,0.11741 -0.007,0.0121 -0.0212,0.0393 -0.0443,0.0602 -0.014,0.0127 -0.0254,0.0165 -0.0291,0.0164 -0.004,-10e-5 -0.012,1.5e-4 -0.0308,-0.028 -0.0268,-0.0401 -0.0645,-0.0729 -0.10458,-0.10277 l 0.0404,-0.0121 c 0.0522,-0.0157 0.0971,-0.0311 0.13885,-0.0511 z m 1.30334,0.0277 h 10e-5 c -0.001,10e-5 0.008,0.002 0.01,0.002 -0.013,0.003 -0.0237,0.01 -0.0326,0.0152 -0.009,0.006 -0.0165,0.0128 -0.0246,0.0195 -0.006,-0.0127 -0.0128,-0.0246 -0.0194,-0.0344 0.0212,-6.4e-4 0.0436,-8e-4 0.0668,-0.003 z m -0.23691,0.0298 c 0.0364,0.0597 0.0575,0.10717 0.0653,0.15739 0.006,0.0365 1.4e-4,0.0968 -0.002,0.14888 -0.0291,-0.0192 -0.0615,-0.0446 -0.0903,-0.0606 -0.0439,-0.0245 -0.10618,-0.062 -0.176,-0.10614 0.0293,-0.0442 0.0916,-0.11958 0.20316,-0.13953 z m -1.75401,0.0105 c 0.12996,0.007 0.20607,0.0527 0.25573,0.0938 -0.16618,0.0626 -0.29864,0.10043 -0.42214,0.15194 0.002,-0.0461 0.01,-0.0879 0.029,-0.12227 0.0263,-0.0477 0.0717,-0.0881 0.13745,-0.12348 z m 2.34652,0.13483 c 0.0945,0.0707 0.19619,0.15772 0.30925,0.26388 -0.0158,0.0431 -0.0317,0.0869 -0.0451,0.11516 -0.005,0.0108 -0.009,0.0158 -0.0129,0.023 -0.017,-0.009 -0.038,-0.0178 -0.0473,-0.0295 -0.0147,-0.0186 -0.0308,-0.0541 -0.0589,-0.11828 -0.0306,-0.0701 -0.0657,-0.10286 -0.0898,-0.12008 -0.0241,-0.0172 -0.0297,-0.0157 -0.0514,-0.0597 -0.0131,-0.0265 -0.0116,-0.0522 -0.004,-0.0745 z m -0.30602,8e-4 h 3e-5 c 0.001,-3e-5 0.008,3.1e-4 0.0249,0.0136 0.0172,0.0134 0.0418,0.0385 0.0728,0.0759 0.0733,0.0883 0.11655,0.13412 0.14377,0.16857 0.026,0.0329 0.0388,0.0571 0.0583,0.10865 4.3e-4,0.0191 10e-4,0.037 0.002,0.0435 -0.003,0.005 -0.029,0.0434 -0.091,0.16122 -0.066,0.12544 -0.0932,0.24079 -0.11205,0.31148 -0.003,0.0119 -0.003,0.0109 -0.006,0.0199 -0.006,-0.008 -0.019,-0.0207 -0.021,-0.0252 -0.002,-0.004 -0.002,-0.006 -0.002,-0.007 l 0.002,-0.0219 -0.0197,-0.0176 c -0.18282,-0.16376 -0.23387,-0.22474 -0.25797,-0.2554 -0.0241,-0.0307 -0.0379,-0.0467 -0.10726,-0.0845 -0.0191,-0.0104 -0.0235,-0.0179 -0.0258,-0.0242 -0.002,-0.006 -0.003,-0.0167 0.003,-0.035 0.009,-0.0273 0.0444,-0.074 0.0779,-0.11904 0.0344,0.0223 0.0671,0.0426 0.11133,0.0788 l 0.0786,0.0642 0.008,-0.10118 c 0.01,-0.12525 0.0133,-0.2139 0.006,-0.29927 0.0148,-0.0182 0.0294,-0.0358 0.039,-0.0444 0.0122,-0.0108 0.0166,-0.0112 0.0169,-0.0112 z m -2.72732,0.0404 c 8.1e-4,0.006 0.002,0.005 9.6e-4,0.0181 -0.004,0.073 -0.003,0.10193 -0.008,0.11412 -0.005,0.0122 -0.0256,0.0353 -0.0955,0.0929 -0.0668,0.0551 -0.0973,0.0643 -0.13242,0.0923 -0.0176,0.014 -0.034,0.0344 -0.0453,0.0586 -0.0112,0.0242 -0.0194,0.0524 -0.0294,0.0926 -0.0192,0.0774 -0.0356,0.13447 -0.0488,0.16138 -0.005,0.0107 -0.007,0.012 -0.008,0.0127 -0.0342,-0.01 -0.0583,-0.002 -0.081,0.003 -4.9e-4,1.1e-4 -4.9e-4,1.1e-4 -9.6e-4,1.4e-4 0.008,-0.0155 0.007,-0.0179 0.0253,-0.0452 l 0.005,-0.007 0.002,-0.008 c 0.0289,-0.10326 0.032,-0.17239 0.0389,-0.22086 0.007,-0.0485 0.0139,-0.0751 0.0568,-0.12635 0.0906,-0.10803 0.16856,-0.14632 0.2422,-0.19345 0.0206,-0.0132 0.0418,-0.0275 0.0599,-0.0376 0.01,-0.005 0.0111,-0.005 0.0173,-0.007 z m 1.16921,0.0428 c 0.0605,0.0425 0.10825,0.0674 0.13909,0.0815 -0.008,0.007 -0.004,0.004 -0.0175,0.0137 -0.0819,0.0578 -0.1643,0.1449 -0.23812,0.21722 -0.0369,0.0362 -0.0716,0.0686 -0.10018,0.0907 -0.0286,0.0221 -0.0527,0.0308 -0.0535,0.0309 -0.0473,0.003 -0.0813,0.004 -0.0924,-5.7e-4 -0.006,-0.002 -0.008,-0.003 -0.0124,-0.0111 -0.005,-0.008 -0.0111,-0.0242 -0.015,-0.0519 l -0.002,-0.016 -0.0107,-0.012 c -0.036,-0.0403 -0.0725,-0.10581 -0.12643,-0.16989 0.14886,-0.0476 0.30446,-0.0902 0.5294,-0.17256 z m 0.93715,0.0179 c 0.0854,0.055 0.142,0.0866 0.19302,0.11508 -0.0302,0.0546 -0.0477,0.10323 -0.0549,0.1359 -0.005,0.0214 -0.008,0.0362 -0.0116,0.044 -0.003,0.008 -0.005,0.0102 -0.0142,0.0164 -0.0207,0.0135 -0.036,0.0256 -0.045,0.0316 -4.3e-4,4.3e-4 -2.8e-4,1.4e-4 -7.1e-4,4.3e-4 -10e-4,-10e-4 -10e-4,-8.6e-4 -0.003,-0.003 -0.0101,-0.0101 -0.0266,-0.0309 -0.0486,-0.0631 l -0.008,-0.0121 -0.0133,-0.006 c -0.0416,-0.0191 -0.0796,-0.0691 -0.11508,-0.12703 -0.0242,-0.0395 -0.0487,-0.0791 -0.0786,-0.11423 5e-5,-10e-6 5e-5,10e-6 1.1e-4,0 0.0537,-0.01 0.13421,-0.0157 0.20057,-0.0179 z m 1.47295,0.0583 c 0.0287,0.008 0.0632,0.0181 0.0703,0.0252 1.4e-4,1.5e-4 0.029,0.0384 0.0578,0.0858 0.0288,0.0474 0.0634,0.10844 0.0969,0.17248 0.0669,0.12808 0.12822,0.27668 0.13354,0.32987 0.009,0.0887 0.0501,0.21077 0.0786,0.31493 0.0119,0.0434 0.0187,0.078 0.0231,0.10666 -0.001,-0.002 -0.002,-1.4e-4 -0.003,-0.002 -0.0152,-0.023 -0.0305,-0.0618 -0.0495,-0.10119 l -0.004,-0.007 -0.006,-0.006 c -0.0988,-0.10452 -0.1689,-0.16099 -0.22182,-0.20751 -0.0529,-0.0465 -0.0879,-0.0813 -0.13031,-0.15356 -0.0504,-0.086 -0.11035,-0.12475 -0.15463,-0.14309 -0.0221,-0.009 -0.0396,-0.0144 -0.0471,-0.0179 0,0 -3e-5,0 -3e-5,0 0,-0.004 1.1e-4,-0.0103 0.002,-0.018 0.004,-0.0181 0.0118,-0.0434 0.0215,-0.0716 0.0116,-0.0337 0.0253,-0.0734 0.0389,-0.11177 0.006,0.005 0.0116,0.01 0.0177,0.0151 l 0.0775,0.0665 0.01,-0.10173 c 0.005,-0.0565 -0.004,-0.1158 -0.0117,-0.17465 z m -1.93132,0.0368 c 0.0268,-10e-4 0.0594,0.0172 0.0675,0.0351 0.0271,0.0599 0.0595,0.17272 0.23603,0.27758 0.0872,0.0518 0.16596,0.084 0.20345,0.1083 0.0136,0.009 0.0194,0.0157 0.0213,0.0177 -8.6e-4,0.002 -0.003,0.005 -0.009,0.0131 -0.0413,0.0543 -0.046,0.089 -0.0521,0.10171 -0.006,0.0127 -0.0234,0.036 -0.11297,0.10121 -0.19157,0.13942 -0.28168,0.285 -0.3037,0.39986 -0.003,0.0162 -0.007,0.0179 -0.006,0.0173 5.8e-4,-4.2e-4 10e-4,4.3e-4 -0.007,4.3e-4 -0.0159,4.3e-4 -0.0511,-0.0111 -0.0962,-0.008 -0.002,1.4e-4 -0.002,1.1e-4 -0.002,1.1e-4 -5.8e-4,-10e-4 -0.001,-10e-4 -0.002,-0.004 -0.008,-0.0144 -0.0242,-0.0523 -0.0579,-0.0973 l -10e-4,-10e-4 -8.5e-4,-0.001 c -0.14298,-0.17041 -0.27132,-0.23183 -0.30969,-0.28573 -0.0324,-0.0455 -0.0843,-0.0963 -0.12252,-0.14221 -0.0191,-0.0229 -0.0343,-0.0446 -0.0401,-0.0571 -4.3e-4,-10e-4 -1.4e-4,-4.3e-4 -4.3e-4,-10e-4 0.026,-0.03 0.0705,-0.0858 0.12851,-0.14891 0.062,-0.0675 0.13586,-0.13601 0.18323,-0.16026 0.0593,-0.0303 0.10518,-0.0495 0.1456,-0.0703 0.0404,-0.0208 0.0768,-0.0449 0.10606,-0.0821 0.006,-0.008 0.0163,-0.0129 0.0324,-0.0134 z m -1.39198,0.0112 c 0.006,10e-6 0.0179,0.004 0.038,0.0205 0.0201,0.0165 0.0455,0.0433 0.0763,0.074 0.0561,0.0558 0.11576,0.0912 0.15738,0.12314 0.0416,0.0319 0.0616,0.0538 0.0657,0.0896 0.004,0.0331 -0.0152,0.0995 -0.0622,0.16286 -0.047,0.0634 -0.11901,0.12455 -0.20923,0.16078 -0.20712,0.0832 -0.26941,0.16591 -0.37661,0.32995 l -0.005,0.008 -0.002,0.009 c -0.009,0.0407 -0.0138,0.0446 -0.0212,0.0624 -0.006,-0.0148 -0.0117,-0.0224 -0.018,-0.0427 -0.0124,-0.0397 -0.024,-0.0866 -0.0336,-0.13111 -0.0106,-0.0494 -0.0238,-0.0817 -0.0345,-0.10397 -0.0107,-0.0223 -0.0157,-0.0307 -0.0177,-0.0398 -0.004,-0.0182 1.4e-4,-0.072 0.0466,-0.24741 0.045,-0.17027 0.0911,-0.22692 0.1397,-0.26588 0.0486,-0.039 0.11685,-0.0636 0.18235,-0.14732 0.0426,-0.0544 0.0658,-0.0625 0.0744,-0.0625 z m 2.91877,0.37904 c 0.017,-5.7e-4 0.067,0.0201 0.11733,0.0575 0.0503,0.0374 0.10302,0.0868 0.14543,0.12722 0.0729,0.0696 0.098,0.11895 0.10275,0.17005 0.005,0.0511 -0.0135,0.11315 -0.0497,0.19996 -0.0324,0.0778 -0.0585,0.17462 -0.0859,0.24835 -0.0137,0.0369 -0.028,0.0678 -0.0395,0.0844 -0.005,0.007 -0.008,0.0102 -0.01,0.0118 -0.0242,-0.001 -0.0439,0.008 -0.0612,0.0163 -0.004,-0.009 -0.004,-0.008 -0.009,-0.0229 l -0.003,-0.009 -0.006,-0.007 c -0.0485,-0.0606 -0.11849,-0.12992 -0.17535,-0.19581 -0.0284,-0.0329 -0.0534,-0.0649 -0.0699,-0.0919 -0.0165,-0.0271 -0.0227,-0.0491 -0.0226,-0.0564 0.001,-0.0678 -0.04,-0.10864 -0.0461,-0.11915 -0.003,-0.005 -0.003,-0.002 -0.002,-0.0123 10e-4,-0.01 0.009,-0.032 0.0302,-0.0673 0.0492,-0.0823 0.0815,-0.16855 0.11092,-0.23324 0.0147,-0.0323 0.0289,-0.0592 0.0414,-0.0762 0.0125,-0.017 0.0215,-0.0223 0.0265,-0.0236 0.001,-2.8e-4 0.003,-4.3e-4 0.005,-5.7e-4 z m -2.3815,0.15443 h 3e-5 c 10e-4,0.001 0.0157,0.004 0.0483,0.0324 0.0364,0.0313 0.0881,0.0847 0.15815,0.16537 0.11319,0.13032 0.20515,0.17465 0.26068,0.21184 0.0555,0.0372 0.0816,0.06 0.10881,0.19157 0.0131,0.0631 0.009,0.10212 -0.001,0.13058 -0.0108,0.0285 -0.0301,0.0503 -0.061,0.0752 -0.0617,0.0498 -0.16727,0.10329 -0.25761,0.22278 -0.0878,0.11612 -0.12712,0.22273 -0.15534,0.2677 -0.0141,0.0225 -0.0174,0.0219 -0.0175,0.0219 -1.4e-4,10e-6 -0.0197,-0.003 -0.0566,-0.0321 -0.0463,-0.0361 -0.0897,-0.0507 -0.12832,-0.0482 5.8e-4,-0.01 4.3e-4,-0.007 0.001,-0.0186 l 10e-4,-0.0153 -0.007,-0.0136 c -0.0688,-0.12986 -0.14067,-0.18555 -0.20041,-0.2173 -0.0597,-0.0318 -0.0938,-0.0386 -0.13034,-0.0894 -0.0506,-0.0702 -0.10376,-0.10228 -0.13821,-0.12662 -0.0344,-0.0243 -0.0511,-0.036 -0.0677,-0.0914 -0.0136,-0.0457 -4.9e-4,-0.11743 0.0318,-0.17967 0.0322,-0.0622 0.0841,-0.11212 0.11316,-0.12279 0.0671,-0.0246 0.17049,-0.0919 0.27228,-0.16431 0.0509,-0.0362 0.0996,-0.0733 0.13857,-0.10616 0.039,-0.0329 0.0667,-0.0536 0.0854,-0.0908 10e-4,-0.002 10e-4,-0.002 0.002,-0.003 z m 1.59422,0.007 c 0.001,4.3e-4 2.8e-4,-0.001 0.0128,0.01 0.0181,0.0159 0.0451,0.0467 0.0793,0.0964 0.0856,0.12448 0.158,0.16996 0.20284,0.19685 0.0448,0.0269 0.0531,0.0223 0.0716,0.0951 0.0376,0.14828 0.003,0.33944 -0.0666,0.46201 -0.0496,0.0877 -0.0537,0.20812 -0.062,0.30846 -0.004,0.0502 -0.009,0.0952 -0.0147,0.12183 -0.002,0.0101 -0.004,0.0135 -0.005,0.0162 -0.0236,0.003 -0.0465,0.007 -0.0658,0.0143 -0.0262,0.01 -0.0514,0.0186 -0.0716,0.0213 -0.0203,0.003 -0.0327,0.001 -0.0466,-0.008 -0.0138,-0.009 -0.0325,-0.031 -0.0495,-0.0801 l -10e-4,-0.004 -0.002,-0.003 c -0.044,-0.0844 -0.099,-0.12142 -0.14404,-0.15599 -0.045,-0.0346 -0.0866,-0.0696 -0.13893,-0.17336 -0.0593,-0.11758 -0.12367,-0.17557 -0.15503,-0.21643 -0.0157,-0.0204 -0.0232,-0.0344 -0.0266,-0.0543 -0.003,-0.0199 -0.002,-0.0489 0.01,-0.0954 0.0275,-0.10375 0.0366,-0.15281 0.0465,-0.17205 0.005,-0.01 0.009,-0.0148 0.0228,-0.0255 0.0137,-0.0107 0.0365,-0.0251 0.0707,-0.0457 0.0711,-0.0428 0.14163,-0.0926 0.19797,-0.13824 0.0282,-0.0228 0.0528,-0.0445 0.0725,-0.0644 0.0198,-0.02 0.0349,-0.0352 0.0456,-0.0604 0.008,-0.0189 0.0123,-0.0349 0.0173,-0.0452 z m -2.80479,0.14596 c 0.002,-1.1e-4 0.006,0.002 0.0175,0.0202 0.0159,0.0241 0.0367,0.074 0.0558,0.15427 0.0498,0.20991 0.10179,0.30712 0.11852,0.35763 0.008,0.0252 0.009,0.0332 0.004,0.0506 -0.005,0.0174 -0.0203,0.0468 -0.0522,0.0939 -0.0607,0.0898 -0.11634,0.1263 -0.16737,0.15211 -0.0506,0.0256 -0.10408,0.0368 -0.145,0.0877 0,-1.1e-4 0,-1.1e-4 0,-1.5e-4 v -0.001 l -10e-5,-10e-4 c -0.006,-0.0941 0.007,-0.17388 0.0189,-0.24886 0.0119,-0.075 0.0239,-0.14683 0.003,-0.2207 -0.0159,-0.0569 -0.0279,-0.1176 -0.028,-0.16936 -4e-5,-0.0518 0.0113,-0.0916 0.0354,-0.11793 0.028,-0.0306 0.0531,-0.0714 0.0801,-0.10509 0.0271,-0.0337 0.056,-0.0514 0.0577,-0.0515 3.2e-4,-3e-5 4.9e-4,-2.9e-4 0.001,-2.9e-4 z m 4.11647,0.20883 c 4.3e-4,-5.8e-4 -2.9e-4,5.7e-4 4e-5,5.7e-4 4.3e-4,10e-6 0.0202,0.007 0.0458,0.0296 0.0256,0.023 0.0569,0.0584 0.0915,0.10023 0.12375,0.14996 0.156,0.308 0.12731,0.41563 -0.0141,0.053 -0.0412,0.0863 -0.08,0.13434 -0.0387,0.048 -0.0869,0.10873 -0.12459,0.20464 -0.04,0.10182 -0.0298,0.19516 -0.0208,0.2572 0.002,0.0113 0.001,0.0137 0.003,0.0227 l -0.002,-0.003 c -0.11727,-0.15313 -0.23023,-0.29203 -0.23232,-0.41478 -10e-4,-0.0818 -0.0176,-0.12002 -0.0209,-0.13909 -0.003,-0.0191 -0.003,-0.0388 0.0287,-0.12712 0.0321,-0.0888 0.0647,-0.16043 0.0911,-0.21817 0.0264,-0.0577 0.0476,-0.0989 0.055,-0.14221 0.01,-0.0563 0.0222,-0.0927 0.0319,-0.1091 0.005,-0.008 0.006,-0.0109 0.007,-0.0115 z m -0.75904,0.28638 c 0.0118,0.009 0.0228,0.0172 0.0401,0.0333 0.0929,0.0865 0.18515,0.1746 0.24974,0.26284 0.0646,0.0882 0.10014,0.17345 0.0919,0.25937 -0.0102,0.10663 -0.007,0.16753 -0.009,0.2141 -0.003,0.0466 -0.01,0.0818 -0.0454,0.15826 -0.0411,0.0886 -0.0604,0.18824 -0.0792,0.269 -0.009,0.0404 -0.0187,0.076 -0.0285,0.1011 -0.01,0.0251 -0.0207,0.0367 -0.0221,0.0376 -0.0355,0.0218 -0.0502,0.0531 -0.0632,0.0789 -0.005,0.01 -0.006,0.0119 -0.0104,0.0201 -0.01,-0.0147 -0.0184,-0.0239 -0.0377,-0.0676 l -0.003,-0.007 -0.005,-0.006 c -0.10938,-0.12436 -0.16208,-0.17218 -0.1809,-0.19892 -0.009,-0.0134 -0.0123,-0.0204 -0.0165,-0.0401 -0.004,-0.0197 -0.008,-0.051 -0.0132,-0.0998 -0.0221,-0.19224 -0.0295,-0.38452 0.007,-0.47219 0.0432,-0.10469 0.12826,-0.24098 0.13433,-0.39906 0.002,-0.0532 -0.005,-0.10522 -0.008,-0.14335 z m -1.29782,0.0667 c 0.003,10e-4 10e-4,1.5e-4 0.0106,0.006 0.0131,0.008 0.0381,0.0386 0.0618,0.0804 0.0236,0.0418 0.0477,0.0941 0.0721,0.14639 0.0243,0.0523 0.0487,0.10433 0.0755,0.1482 0.0268,0.0439 0.0535,0.0839 0.10414,0.10015 0.0308,0.01 0.0968,0.0614 0.14847,0.12582 0.0517,0.0644 0.0923,0.1428 0.0997,0.1913 0.006,0.0389 0.0182,0.067 0.0264,0.0847 0.008,0.0177 0.01,0.021 0.009,0.0251 -1.1e-4,0.008 -0.0185,0.0586 -0.115,0.19192 -0.10196,0.1409 -0.1699,0.29734 -0.22442,0.42047 -0.0272,0.0616 -0.0513,0.1149 -0.0727,0.15203 -0.0213,0.0371 -0.0419,0.0535 -0.0423,0.0537 -0.0746,0.0259 -0.0973,0.0979 -0.11046,0.13253 -0.002,0.005 -10e-5,0.002 -0.002,0.006 -0.053,-0.0295 -0.10344,-0.0332 -0.12687,-0.0405 -0.0125,-0.004 -0.0165,-0.007 -0.0209,-0.0121 -0.004,-0.005 -0.0108,-0.0178 -0.014,-0.0464 -0.004,-0.0324 -0.003,-0.0499 -0.002,-0.0568 8.6e-4,-0.007 -10e-4,-8.6e-4 0.002,-0.006 0.003,-0.005 0.0121,-0.0286 0.011,-0.0473 -10e-4,-0.0187 -0.006,-0.0356 -0.0147,-0.0635 -0.0862,-0.30503 -0.17016,-0.42261 -0.30351,-0.5798 -0.0681,-0.0803 -0.12114,-0.13166 -0.1462,-0.17281 -0.0251,-0.0411 -0.0314,-0.0693 -0.0101,-0.14109 0.0194,-0.065 0.0743,-0.13057 0.15167,-0.20319 0.0774,-0.0726 0.17498,-0.15171 0.2696,-0.24974 0.0794,-0.0823 0.11884,-0.1564 0.14272,-0.20544 0.01,-0.02 0.0156,-0.0314 0.0204,-0.0399 z m -1.68599,0.08 c 0.003,0.002 0.006,0.005 0.0124,0.0117 0.10584,0.11835 0.15478,0.22506 0.31504,0.30799 0.0725,0.0375 0.13953,0.0782 0.17489,0.12123 0.0354,0.043 0.0478,0.0812 0.0157,0.15594 -0.0386,0.0898 -0.0564,0.13595 -0.08,0.16657 -0.0236,0.0306 -0.0588,0.0559 -0.14517,0.10335 -0.18365,0.10093 -0.19906,0.18165 -0.21375,0.1986 -0.0206,0.0237 -0.0259,0.0432 -0.0377,0.0669 -0.0118,0.0237 -0.0256,0.0485 -0.0398,0.0656 -0.0143,0.0172 -0.0265,0.0248 -0.038,0.0265 -0.0113,0.002 -0.0295,-4.3e-4 -0.062,-0.0248 -0.0573,-0.0562 -0.0984,-0.0754 -0.129,-0.0968 -0.0312,-0.0218 -0.0623,-0.05 -0.12251,-0.14492 -0.0616,-0.0972 -0.10696,-0.17667 -0.13095,-0.23768 -0.024,-0.061 -0.0252,-0.0988 -0.0145,-0.12298 0.002,-0.004 0.022,-0.0288 0.0533,-0.0545 0.0313,-0.0256 0.0725,-0.055 0.11499,-0.0856 0.085,-0.0612 0.17539,-0.11972 0.21687,-0.19882 0.0284,-0.0541 0.048,-0.12501 0.0703,-0.18219 0.0112,-0.0286 0.023,-0.0533 0.0326,-0.0672 0.003,-0.005 0.006,-0.007 0.007,-0.009 z m 4.19529,0.14713 c 0.001,0.001 0.003,0.003 0.006,0.007 0.01,0.0123 0.0236,0.039 0.0368,0.0826 0.0712,0.23502 0.12708,0.39006 0.0914,0.56763 -0.0213,0.10592 -0.0216,0.24306 -0.0248,0.36075 -0.002,0.0588 -0.004,0.11266 -0.009,0.1521 -0.005,0.0395 -0.0213,0.0636 -0.0105,0.054 -0.0279,0.0248 -0.0373,0.0532 -0.047,0.0778 -0.01,0.0245 -0.0185,0.0466 -0.0252,0.0566 -0.003,0.004 -0.003,0.006 -0.003,0.006 -1.4e-4,-1.4e-4 -4.3e-4,-4.3e-4 -0.001,-4.3e-4 -0.004,-2.8e-4 -0.0282,-0.0102 -0.0637,-0.0396 -0.007,-0.009 -0.0233,-0.0378 -0.0368,-0.0772 -0.014,-0.0406 -0.0271,-0.091 -0.0378,-0.14229 -0.0215,-0.1026 -0.0327,-0.21435 -0.0297,-0.25114 0.003,-0.0407 -0.008,-0.0776 -0.0211,-0.11732 -0.0128,-0.0397 -0.0286,-0.0815 -0.041,-0.12279 -0.0249,-0.0825 -0.0332,-0.15483 0.001,-0.20361 0.0511,-0.0721 0.0956,-0.14324 0.12868,-0.20527 0.0331,-0.062 0.0561,-0.11027 0.0597,-0.15878 1.4e-4,-0.002 0.007,-0.0229 0.0156,-0.0354 0.005,-0.007 0.009,-0.01 0.0109,-0.0113 z m -4.85946,0.12977 c -4.8e-4,5.7e-4 -0.002,0.003 -0.002,0.003 -8e-4,10e-4 -0.002,0.002 -0.002,0.002 l -4.9e-4,-4.3e-4 c 8e-4,-10e-4 0.002,-0.003 0.005,-0.005 z m 4.21006,0.40948 c 0.0165,0.0241 0.0357,0.054 0.0641,0.1084 0.0653,0.12526 0.14045,0.18078 0.18643,0.22442 0.046,0.0436 0.069,0.0686 0.0701,0.18036 5.7e-4,0.0627 0.004,0.1066 0.006,0.13657 10e-4,0.03 -1.4e-4,0.0426 -0.004,0.0519 -0.007,0.0185 -0.0467,0.0541 -0.16381,0.15247 -0.1164,0.0978 -0.17579,0.1461 -0.21454,0.18435 -0.0388,0.0383 -0.0564,0.0704 -0.0747,0.11229 v 1.1e-4 c -0.008,0.018 -0.0135,0.0366 -0.0193,0.055 -0.002,-0.007 -0.002,-0.004 -0.005,-0.0118 -0.035,-0.12011 -0.0846,-0.17894 -0.11716,-0.21334 -0.0163,-0.0172 -0.0257,-0.0275 -0.0298,-0.0353 -0.004,-0.008 -0.007,-0.0154 -0.006,-0.039 0.004,-0.0673 -0.005,-0.11039 -0.006,-0.1398 -4.3e-4,-0.0294 0.002,-0.0507 0.0352,-0.10458 l 10e-4,-0.002 0.001,-0.002 c 0.0978,-0.19164 0.14197,-0.22487 0.21279,-0.39646 0.0364,-0.0881 0.0505,-0.16004 0.0572,-0.21299 0.004,-0.0304 0.004,-0.0337 0.006,-0.0489 z m -2.78975,0.0132 c -1.4e-4,10e-6 0.005,-4.3e-4 0.0207,0.0118 0.0155,0.0123 0.0379,0.0362 0.0656,0.0731 0.0829,0.11067 0.1227,0.18354 0.16521,0.24801 0.0425,0.0645 0.0895,0.12025 0.17525,0.18012 0.0666,0.0465 0.1226,0.13756 0.15358,0.24705 0.031,0.1095 0.0372,0.23595 0.0138,0.34713 -0.0137,0.0651 -0.0137,0.10945 -0.008,0.14202 0.005,0.0273 0.0102,0.038 0.0118,0.04 -0.001,0.002 -0.002,0.003 -0.008,0.009 -0.0172,0.0185 -0.054,0.0518 -0.11683,0.10712 -0.13253,0.1167 -0.19114,0.22833 -0.22389,0.30758 -0.0164,0.0396 -0.0272,0.0713 -0.0352,0.0873 -0.003,0.007 -0.005,0.009 -0.006,0.01 -0.0365,0.005 -0.0583,0.011 -0.0569,0.0111 -1.4e-4,-2.8e-4 -0.009,-0.003 -0.0381,-0.0152 -0.0469,-0.0448 -0.0997,-0.05 -0.12708,-0.0529 -0.0291,-0.003 -0.0472,-0.003 -0.10398,-0.0614 -0.0643,-0.0663 -0.0983,-0.0929 -0.12235,-0.11298 -0.024,-0.02 -0.0387,-0.033 -0.0797,-0.0863 -0.0448,-0.0582 -0.0691,-0.078 -0.0816,-0.0968 -0.0125,-0.0188 -0.0246,-0.0495 -0.0473,-0.14396 -0.0255,-0.10629 -0.0764,-0.18497 -0.10614,-0.26533 -0.0297,-0.0804 -0.0437,-0.16187 -0.003,-0.29259 0.0414,-0.13258 0.0934,-0.19411 0.15859,-0.25242 0.0652,-0.0583 0.14734,-0.11205 0.23032,-0.21326 0.0542,-0.0661 0.0914,-0.1297 0.12071,-0.17317 0.0147,-0.0217 0.0275,-0.0382 0.0366,-0.0468 0.009,-0.009 0.0114,-0.008 0.0112,-0.008 z m 1.8486,0.089 h 3e-5 c 0.005,0.006 0.0129,0.02 0.0204,0.0452 0.0229,0.0774 0.0755,0.18968 0.13622,0.29666 0.0607,0.10699 0.12341,0.20452 0.1901,0.2547 0.0322,0.0242 0.0666,0.0904 0.0901,0.1611 0.0235,0.0708 0.0374,0.14064 0.0541,0.18626 0.0226,0.0616 0.0736,0.0866 0.10658,0.11396 0.033,0.0273 0.0505,0.0452 0.0497,0.0849 -10e-4,0.0719 0.0183,0.15802 0.0281,0.237 0.005,0.0395 0.007,0.0766 0.005,0.10493 -0.002,0.0284 -0.009,0.0458 -0.0153,0.0525 -0.076,0.0857 -0.0978,0.14701 -0.15895,0.19181 -0.0489,0.0359 -0.0708,0.0828 -0.0894,0.11429 -0.0186,0.0315 -0.0285,0.0459 -0.0562,0.0539 -0.0632,0.0184 -0.10141,0.0625 -0.12946,0.084 -0.014,0.0108 -0.0241,0.0154 -0.0284,0.0161 -0.004,7.2e-4 -0.006,0.002 -0.0186,-0.007 -0.0395,-0.0276 -0.0648,-0.0538 -0.0995,-0.0739 -0.0174,-0.01 -0.0401,-0.0187 -0.0656,-0.0166 -0.0255,0.002 -0.0483,0.0144 -0.067,0.0304 -0.0342,0.0291 -0.0464,0.0628 -0.0528,0.0805 -4e-5,-1.4e-4 10e-4,0.002 -0.001,-0.003 -0.007,-0.0161 -0.0195,-0.0588 -0.0481,-0.12079 l -2.9e-4,-4.3e-4 -2.8e-4,-4.3e-4 c -0.042,-0.0861 -0.0572,-0.12932 -0.0807,-0.17289 -0.0235,-0.0436 -0.0538,-0.0816 -0.11664,-0.14613 -0.12592,-0.12928 -0.24658,-0.22962 -0.29128,-0.37264 -0.0134,-0.0428 -0.0285,-0.069 -0.043,-0.0878 0.0118,-0.0161 0.0276,-0.0372 0.0551,-0.0782 0.0688,-0.10281 0.0997,-0.21952 0.13589,-0.31849 0.0361,-0.099 0.075,-0.17608 0.14732,-0.21846 0.1979,-0.11592 0.24268,-0.31471 0.29224,-0.41735 0.0138,-0.0285 0.0288,-0.051 0.0408,-0.0637 0.01,-0.0103 0.0117,-0.01 0.0112,-0.0101 z m -3.13665,0.23839 c 10e-5,4.2e-4 1.4e-4,5.7e-4 0.002,0.004 0.006,0.008 0.0161,0.0289 0.0238,0.0649 0.0211,0.0978 0.0665,0.15594 0.0845,0.20128 0.0179,0.0453 0.0236,0.0812 -0.0296,0.18116 -0.0551,0.10354 -0.0849,0.12858 -0.11038,0.15519 -0.0128,0.0133 -0.0284,0.032 -0.0359,0.0568 -0.008,0.0248 -0.008,0.0496 -0.005,0.0838 0.004,0.0678 0.0175,0.15651 0.0258,0.23136 0.004,0.0374 0.007,0.0714 0.007,0.095 1.1e-4,0.0102 -4.9e-4,0.0179 -8e-4,0.0226 -0.0161,0.0185 -0.0131,0.0293 -0.0157,0.0417 -6.4e-4,0.004 -10e-4,0.008 -0.002,0.0115 -0.007,-0.0173 -0.007,-0.013 -0.0144,-0.0357 l -4.8e-4,-0.001 -4.9e-4,-0.001 c -0.0862,-0.23306 -0.0937,-0.42704 -0.0715,-0.56711 0.006,-0.0383 0.009,-0.0623 0.01,-0.082 6.4e-4,-0.0197 -0.002,-0.0357 -0.004,-0.0474 -0.004,-0.0234 -0.01,-0.0412 -0.008,-0.13972 0.002,-0.10145 0.005,-0.13735 0.006,-0.14117 6.4e-4,-0.002 8e-4,-0.002 0.0101,-0.0121 0.009,-0.01 0.0254,-0.0257 0.0462,-0.0509 0.019,-0.023 0.0383,-0.043 0.0541,-0.0554 0.0156,-0.0123 0.0268,-0.0151 0.0273,-0.0152 z m 0.39298,0.3661 c 0.007,0.0199 0.0144,0.047 0.0306,0.0752 0.0279,0.0487 -0.008,-0.003 0.0697,0.10928 0.0237,0.0343 0.0285,0.11541 0.0343,0.20508 0.006,0.0897 0.0172,0.19503 0.10215,0.26077 0.0552,0.0427 0.066,0.0736 0.0689,0.11149 0.003,0.0379 -0.009,0.0854 -0.0147,0.14232 -0.008,0.0799 -0.071,0.1509 -0.16789,0.25893 l -0.008,0.009 -0.003,0.012 c -0.0212,0.0762 -0.0421,0.12726 -0.0594,0.15791 -0.009,0.0157 -0.009,0.0136 -0.0148,0.0192 -0.002,-0.0305 -0.0117,-0.056 -0.0262,-0.0851 -0.0164,-0.033 -0.0379,-0.0688 -0.0613,-0.10474 -0.0468,-0.0719 -0.10046,-0.1431 -0.13486,-0.18375 -0.0505,-0.0597 -0.0389,-0.11039 -0.0321,-0.17396 0.005,-0.0491 -0.007,-0.10651 -0.0147,-0.17707 -0.008,-0.0706 -0.0139,-0.14807 -0.007,-0.20213 0.0152,-0.11061 0.0764,-0.16706 0.11724,-0.24151 0.0337,-0.0614 0.08,-0.15157 0.12099,-0.19305 z m 4.09099,0.22105 h 3e-5 c 0.002,0.001 4.3e-4,1.5e-4 0.003,0.002 0.0196,0.0119 0.0482,0.0314 0.087,0.058 0.0839,0.0576 0.14487,0.0763 0.1665,0.0927 0.0108,0.008 0.0151,0.0129 0.0209,0.0311 0.006,0.0182 0.0102,0.0505 0.0102,0.10135 1.1e-4,0.11222 0.0165,0.19866 0.0264,0.27203 0.01,0.0734 0.0138,0.1321 -0.006,0.20155 -0.0454,0.16347 -0.0502,0.27734 -0.10485,0.3949 -0.0305,0.0655 -0.0538,0.12329 -0.0765,0.16545 -0.0227,0.0422 -0.0433,0.0658 -0.0641,0.0758 -0.007,0.003 -0.009,0.006 -0.0152,0.01 -0.003,-0.019 -0.006,-0.0347 -0.0104,-0.0692 l -8.5e-4,-0.007 -0.002,-0.006 c -0.0752,-0.1929 -0.084,-0.27382 -0.1404,-0.37321 -0.0318,-0.056 -0.077,-0.0911 -0.11637,-0.12331 -0.0393,-0.0322 -0.0734,-0.0614 -0.0975,-0.10346 -0.0367,-0.0641 -0.0859,-0.0904 -0.0906,-0.0959 -4.2e-4,-5.7e-4 -8.5e-4,-5.7e-4 -10e-4,-4.3e-4 1.4e-4,-4.3e-4 4.3e-4,-0.002 8.6e-4,-0.005 0.001,-0.0102 0.008,-0.0352 0.0261,-0.0749 0.0443,-0.0961 0.0343,-0.17393 0.0322,-0.21878 -10e-4,-0.0224 1.4e-4,-0.0348 0.004,-0.0441 0.004,-0.009 0.0123,-0.0209 0.0399,-0.0381 0.0628,-0.0391 0.12493,-0.0662 0.17916,-0.0969 0.0542,-0.0306 0.10639,-0.0687 0.12435,-0.13302 0.002,-0.008 0.003,-0.009 0.005,-0.0152 z m -2.27761,0.37245 c 4.3e-4,2.9e-4 0.001,10e-4 0.004,0.004 0.006,0.005 0.0146,0.0174 0.0241,0.0344 0.0191,0.0341 0.0399,0.0852 0.0733,0.13285 0.0974,0.1392 0.27602,0.2647 0.45846,0.5256 0.088,0.12578 0.10087,0.21356 0.0854,0.28729 -0.0154,0.0737 -0.0644,0.13916 -0.12055,0.205 -0.11604,0.13618 -0.2101,0.27088 -0.24405,0.41 -0.006,0.0188 -0.0118,0.0291 -0.0157,0.0336 -0.004,0.005 -0.006,0.006 -0.0142,0.008 -0.0169,0.004 -0.0617,0.002 -0.13083,-0.005 -4e-5,0 -0.005,-10e-4 -0.0156,-0.0118 -0.0103,-0.0106 -0.0234,-0.029 -0.0368,-0.0517 -0.0268,-0.0453 -0.0554,-0.10642 -0.0912,-0.16086 -0.0358,-0.0544 -0.0812,-0.10871 -0.15246,-0.11923 -0.0712,-0.0105 -0.14384,0.0303 -0.21851,0.11688 -0.0666,0.0772 -0.11467,0.11051 -0.1319,0.11647 -0.002,5.8e-4 -0.002,4.3e-4 -0.003,8.6e-4 -4.3e-4,-8.6e-4 -5.7e-4,-0.001 -0.001,-0.003 -0.006,-0.0132 -0.0115,-0.0493 -0.0115,-0.0853 -4e-5,-0.036 0.003,-0.0724 0.005,-0.0959 0.005,-0.0545 -0.006,-0.1029 -0.0231,-0.15946 -0.0175,-0.0566 -0.0427,-0.12435 -0.0739,-0.22904 -0.0294,-0.0987 -0.024,-0.1469 2.9e-4,-0.20689 0.0243,-0.06 0.0744,-0.1321 0.13283,-0.24862 0.0537,-0.10714 0.0901,-0.1356 0.14726,-0.17724 0.0571,-0.0416 0.13514,-0.0935 0.24001,-0.22201 0.0665,-0.0815 0.10858,-0.0994 0.11204,-0.0995 8.6e-4,-3e-5 8.6e-4,-4.3e-4 10e-4,-1.1e-4 z m -2.24462,0.13762 c -4e-5,2.9e-4 -5e-5,8.6e-4 -1.1e-4,0.001 -4.9e-4,0.002 -0.001,0.002 1.1e-4,-0.001 z m -0.1357,0.1343 c -1.1e-4,4.3e-4 -3.2e-4,0.002 -4.9e-4,0.003 l -10e-5,-2e-5 c 1.4e-4,-0.001 1.4e-4,-0.002 4.8e-4,-0.003 z m 4.13843,0.17103 c 0.0311,0.051 0.083,0.10713 0.1383,0.16978 0.0576,0.0653 0.11565,0.13484 0.141,0.1828 0.0332,0.0628 0.0759,0.1197 0.10546,0.17223 0.0295,0.0525 0.0441,0.0967 0.0364,0.13726 -0.0216,0.11408 -0.0511,0.18978 -0.0937,0.22712 -0.0385,0.0338 -0.0708,0.0817 -0.1077,0.12911 -0.0369,0.0474 -0.0772,0.0929 -0.11248,0.11568 -0.0505,0.0326 -0.0951,0.0666 -0.11896,0.0717 -0.0119,0.003 -0.0166,0.003 -0.0286,-0.005 -0.012,-0.008 -0.031,-0.028 -0.052,-0.0686 -0.0318,-0.0666 -0.0898,-0.17286 -0.15227,-0.27383 -0.0629,-0.10169 -0.12395,-0.19435 -0.18375,-0.24239 -0.0448,-0.036 -0.0765,-0.0671 -0.0807,-0.0764 -0.002,-0.005 -0.002,-5.7e-4 -2.8e-4,-0.005 0.002,-0.004 0.0103,-0.0168 0.0316,-0.0335 0.10707,-0.084 0.19759,-0.19104 0.29152,-0.27255 0.0474,-0.0412 0.0728,-0.0574 0.0978,-0.0806 0.025,-0.0231 0.0439,-0.0521 0.0645,-0.0984 0.009,-0.021 0.0166,-0.0355 0.0237,-0.0491 z m -3.09777,5.8e-4 c 0.0228,0.0234 0.0248,0.0277 0.0567,0.0571 0.0756,0.0699 0.16135,0.14622 0.25146,0.16728 0.0655,0.0153 0.1016,0.0233 0.12854,0.0512 0.0269,0.028 0.0548,0.0891 0.075,0.22513 0.0216,0.14584 0.0614,0.25938 0.0825,0.35423 0.0211,0.0949 0.0254,0.16651 -0.0141,0.24947 -0.093,0.1952 -0.0852,0.23689 -0.10657,0.30534 -0.011,0.0353 -0.0282,0.0782 -0.0431,0.11812 -0.0112,0.0298 -0.0175,0.0559 -0.0228,0.0831 -0.007,-0.0153 -0.011,-0.0179 -0.02,-0.0413 l -0.005,-0.0123 -0.0101,-0.009 c -0.0823,-0.0708 -0.13197,-0.0939 -0.17289,-0.10536 -0.0409,-0.0114 -0.062,-0.0111 -0.1287,-0.0507 -0.0353,-0.0209 -0.0563,-0.0351 -0.0677,-0.046 -0.0114,-0.0109 -0.016,-0.018 -0.0232,-0.0386 -0.0142,-0.0412 -0.0274,-0.13003 -0.0737,-0.30594 -0.0469,-0.17805 -0.0956,-0.27288 -0.12307,-0.33749 -0.0274,-0.0646 -0.036,-0.0907 -0.0155,-0.17509 0.0221,-0.0911 0.0337,-0.12305 0.0512,-0.15331 0.0175,-0.0303 0.0465,-0.0652 0.0991,-0.14803 0.047,-0.0741 0.0691,-0.13684 0.0818,-0.18835 z m -0.88155,0.049 c -0.001,0.001 0.002,0.002 0.0219,0.0205 0.0246,0.0238 0.0586,0.0614 0.10286,0.10598 0.0504,0.0508 0.0806,0.13627 0.10734,0.2199 0.0134,0.0418 0.0261,0.0827 0.0437,0.11959 0.0176,0.0369 0.0412,0.0728 0.0823,0.0922 0.0278,0.0131 0.0681,0.0606 0.10075,0.1261 0.0327,0.0654 0.0599,0.14611 0.0786,0.21835 0.0203,0.0784 0.0502,0.16204 0.074,0.23276 0.0119,0.0354 0.0222,0.0675 0.0289,0.093 0.007,0.0254 0.008,0.0459 0.008,0.0467 -4.9e-4,0.004 -0.007,0.014 -0.0239,0.021 -0.0172,0.007 -0.0384,0.006 -0.0479,4.3e-4 -0.0422,-0.0243 -0.10519,-0.0866 -0.18307,-0.16182 -0.16176,-0.27378 -0.22359,-0.39954 -0.30028,-0.51993 -0.0395,-0.0619 -0.0622,-0.0891 -0.0704,-0.11169 -0.008,-0.0226 -0.0103,-0.055 3.2e-4,-0.14144 0.0121,-0.099 -0.009,-0.1768 -0.0234,-0.23448 -0.0147,-0.0577 -0.0209,-0.0878 -0.006,-0.11724 0.003,-0.006 0.004,-0.007 0.006,-0.01 z m 3.18366,0.40434 c 2e-5,2e-5 1.5e-4,1.4e-4 1.5e-4,1.4e-4 l -0.0468,0.0116 0.0493,-0.008 c 4.3e-4,5.7e-4 0.002,0.003 0.003,0.004 -10e-4,0.009 -0.012,0.0144 -0.021,0.0196 l -0.0132,-0.001 c -0.009,-0.007 -0.018,-0.0143 -0.018,-0.0143 0,0 0,-3e-5 0,-3e-5 a 0.02364468,0.02364468 0 0 1 -2.8e-4,-0.002 z m -0.009,0.0748 c 0.0175,0.0244 0.026,0.0383 0.0618,0.0814 0.0585,0.0703 0.12893,0.14726 0.20221,0.18306 0.0519,0.0253 0.12632,0.11402 0.18618,0.23716 0.0596,0.12259 0.10506,0.27683 0.10926,0.42917 0.004,0.15527 -0.0119,0.24457 -0.0305,0.29369 -0.0185,0.0487 -0.0378,0.0562 -0.0402,0.0569 -0.005,0.001 -10e-4,-10e-5 -0.0258,-0.004 -0.0185,-0.003 -0.0433,-0.006 -0.0722,-0.007 -0.0577,-0.002 -0.13367,0.008 -0.21074,0.056 -0.0721,0.0451 -0.11453,0.0749 -0.1488,0.0937 -0.0328,0.018 -0.0587,0.0262 -0.10155,0.0312 -0.0112,-8.6e-4 -0.0364,-0.0101 -0.0757,-0.0288 -0.0384,-0.0184 -0.0843,-0.043 -0.12818,-0.0677 -0.0876,-0.0492 -0.171,-0.10022 -0.17117,-0.10031 l 0.004,0.002 c 0,0 -0.0557,-0.0337 -0.1019,-0.0962 -0.0459,-0.062 -0.0818,-0.14969 -0.0433,-0.26416 0.0413,-0.1228 0.0952,-0.2439 0.15019,-0.34034 0.0553,-0.0969 0.11191,-0.16685 0.15159,-0.18957 0.0554,-0.0318 0.11284,-0.0892 0.1639,-0.15159 0.0511,-0.0625 0.0927,-0.12553 0.11065,-0.17793 0.007,-0.0194 0.007,-0.0239 0.0107,-0.0364 z m -0.0834,0.067 0.0199,0.0506 -0.0591,0.0186 0.009,-0.0199 c 0.0117,-0.0173 0.022,-0.0339 0.0307,-0.0493 z m 1.55749,0.18714 0.004,0.008 c -0.001,-0.002 -0.005,-0.008 -0.005,-0.008 1.4e-4,-10e-5 2.8e-4,-1.4e-4 4.3e-4,-2.8e-4 z m -2.65566,0.28299 c 0,0 10e-4,0.002 10e-4,0.003 -10e-5,-1.4e-4 -4.3e-4,-1.4e-4 -4.3e-4,-4.3e-4 z m 0.0224,0.0326 c 0.004,0.006 0.007,0.009 0.0141,0.0176 0.0265,0.0307 0.0724,0.0784 0.15203,0.15036 0.0789,0.0713 0.13639,0.12453 0.1736,0.18455 0.037,0.0597 0.0563,0.12768 0.0564,0.2362 1.4e-4,0.11184 -0.005,0.15759 -0.009,0.18575 -0.005,0.0283 -0.0114,0.0455 -0.0132,0.0911 -10e-4,0.0269 -0.0305,0.0674 -0.0741,0.10015 -0.0441,0.0331 -0.0911,0.0495 -0.11002,0.0463 -0.0771,-0.0131 -0.18621,-0.001 -0.27977,0.004 1.1e-4,1e-5 10e-4,1.5e-4 0.002,2.9e-4 -10e-4,1.1e-4 -0.004,2.9e-4 -0.007,4.3e-4 0.002,-2.9e-4 0.005,-5.7e-4 0.005,-8.6e-4 -0.001,4e-5 -0.002,10e-6 -0.003,1.1e-4 l -0.007,4.3e-4 -0.004,10e-4 -0.002,5.7e-4 h -10e-5 -1.1e-4 c -0.14522,0.0455 -0.23347,0.0375 -0.2894,0.0143 -0.0571,-0.0237 -0.0859,-0.0632 -0.11524,-0.0966 -0.0178,-0.0203 -0.032,-0.0751 -0.0387,-0.1403 -0.006,-0.0641 -0.007,-0.13355 -0.008,-0.18178 -4.3e-4,-0.017 0.006,-0.0531 0.019,-0.0967 0.0128,-0.0432 0.0313,-0.0931 0.0527,-0.14073 0.0215,-0.0477 0.046,-0.0931 0.0701,-0.12698 0.0247,-0.0347 0.0463,-0.0531 0.0593,-0.0569 0.0607,-0.0177 0.15016,-0.0685 0.23267,-0.11672 0.0676,-0.0395 0.10604,-0.064 0.12496,-0.076 z m 2.35331,0.0139 c -0.0143,0.0364 -0.0294,0.074 -0.0495,0.11297 -0.052,0.10072 -0.12593,0.19737 -0.16233,0.21878 -0.0734,0.0432 -0.11522,0.11176 -0.14588,0.16442 -0.0153,0.0263 -0.0281,0.0493 -0.0374,0.0623 -0.004,0.006 -0.007,0.008 -0.008,0.009 -0.0287,0.005 -0.0466,0.0202 -0.0622,0.0342 0.002,-0.0277 0.006,-0.0624 0.008,-0.11899 0.0166,-0.0513 0.0323,-0.10591 0.052,-0.14853 0.0204,-0.0443 0.0432,-0.0711 0.0668,-0.0798 0.0503,-0.0186 0.11833,-0.0543 0.18332,-0.099 0.0636,-0.0437 0.12314,-0.093 0.15487,-0.15531 z m -3.63229,0.43669 c 0.0708,0.005 0.17378,0.0163 0.25382,0.0611 0.1318,0.0738 0.18166,0.15865 0.23552,0.22988 0.0233,0.0309 0.0684,0.0963 0.0925,0.14388 -0.0409,-0.01 -0.0809,-0.0193 -0.10813,-0.0162 -0.0352,0.004 -0.0639,0.0101 -0.12375,0.009 -0.071,-0.0226 -0.13709,-0.0413 -0.18411,-0.0637 -0.0491,-0.0234 -0.0754,-0.0465 -0.0871,-0.0832 -0.0163,-0.0511 -0.0208,-0.0803 -0.0264,-0.11169 -0.006,-0.0314 -0.0128,-0.0654 -0.0321,-0.11161 -0.0152,-0.0363 -0.0131,-0.0355 -0.0203,-0.0569 z m 1.83274,0.31288 c 10e-4,5.8e-4 4.3e-4,-1.1e-4 0.003,0.001 0.10752,0.0661 0.19239,0.13616 0.32352,0.18939 0.0441,0.0179 0.0723,0.0264 0.10311,0.0366 -0.0138,0.004 -0.0132,0.007 -0.0311,0.009 -0.0523,0.004 -0.11697,-0.002 -0.17344,-0.0224 -0.0733,-0.0264 -0.12863,-0.018 -0.16129,-0.004 -0.0327,0.0144 -0.0309,0.0205 -0.0585,0.016 -0.0417,-0.007 -0.0651,-0.005 -0.0798,-0.004 5.7e-4,-0.004 10e-4,-0.005 0.002,-0.009 0.0374,-0.0523 0.045,-0.11498 0.0567,-0.16261 0.006,-0.0233 0.0118,-0.0409 0.0164,-0.0502 z m 0.52341,0.34311 v 3e-5 2e-5 l -4.3e-4,-2e-5 c 1.5e-4,10e-6 4.3e-4,-5e-5 4.3e-4,-3e-5 z m -0.092,0.0114 c 4.3e-4,1.4e-4 0.004,0.001 0.004,0.001 4.3e-4,1.4e-4 5.7e-4,4.3e-4 10e-4,4.3e-4 l -2.9e-4,4.2e-4 c -10e-4,-4.2e-4 -0.003,-0.001 -0.005,-0.003 z m -1.04461,0.12113 0.0101,0.0471 -4.3e-4,10e-5 -0.0106,-0.0472 c 2.9e-4,-2e-5 4.3e-4,-4e-5 8.6e-4,-4e-5 z m -0.008,4.3e-4 0.0105,0.0493 -0.004,4.3e-4 -0.0121,-0.0121 v -0.0375 c 0.002,-10e-5 0.004,-1.4e-4 0.005,-2.8e-4 z m -0.008,4.2e-4 -0.008,0.006 -2.8e-4,-0.004 c 0.003,-5.7e-4 0.005,-10e-4 0.008,-0.002 z"
       id="path831-5-4-4-1-3-5-9-7-3"
       inkscape:connector-curvature="0"
       inkscape:export-filename="F:\projects\dungeons&amp;distancing\client\public\img\icons\mstile-150x150.png"
       inkscape:export-xdpi="110.48"
       inkscape:export-ydpi="110.48" />
    <flowRoot
       xml:space="preserve"
       id="flowRoot994"
       style="font-style:normal;font-weight:normal;font-size:40px;line-height:1.25;font-family:sans-serif;letter-spacing:0px;word-spacing:0px;fill:#000000;fill-opacity:1;stroke:none"
       transform="matrix(0.09985976,0.17296217,-0.13309869,0.07684457,340.11191,455.57314)"
       inkscape:export-filename="F:\projects\dungeons&amp;distancing\client\public\img\icons\mstile-150x150.png"
       inkscape:export-xdpi="110.48"
       inkscape:export-ydpi="110.48"><flowRegion
         id="flowRegion996"><rect
           id="rect998"
           width="726"
           height="428"
           x="-2744"
           y="318.51968" /></flowRegion><flowPara
         id="flowPara1000"
         style="font-style:normal;font-variant:normal;font-weight:normal;font-stretch:normal;font-family:'Palatino Linotype';-inkscape-font-specification:'Palatino Linotype';fill:#ffffff">14</flowPara></flowRoot>
    <flowRoot
       xml:space="preserve"
       id="flowRoot994-1"
       style="font-style:normal;font-variant:normal;font-weight:normal;font-stretch:normal;font-size:40px;line-height:1.25;font-family:'Palatino Linotype';-inkscape-font-specification:'Palatino Linotype';letter-spacing:0px;word-spacing:0px;fill:#000000;fill-opacity:1;stroke:none"
       transform="matrix(0.09985975,-0.17296217,0.13309869,0.07684456,234.18538,-488.61559)"
       inkscape:export-filename="F:\projects\dungeons&amp;distancing\client\public\img\icons\mstile-150x150.png"
       inkscape:export-xdpi="110.48"
       inkscape:export-ydpi="110.48"><flowRegion
         id="flowRegion996-6"
         style="font-style:normal;font-variant:normal;font-weight:normal;font-stretch:normal;font-family:'Palatino Linotype';-inkscape-font-specification:'Palatino Linotype'"><rect
           id="rect998-0"
           width="726"
           height="428"
           x="-2744"
           y="318.51968"
           style="font-style:normal;font-variant:normal;font-weight:normal;font-stretch:normal;font-family:'Palatino Linotype';-inkscape-font-specification:'Palatino Linotype'" /></flowRegion><flowPara
         id="flowPara1000-8"
         style="font-style:normal;font-variant:normal;font-weight:normal;font-stretch:normal;font-family:'Palatino Linotype';-inkscape-font-specification:'Palatino Linotype';fill:#ffffff">2</flowPara></flowRoot>
    <flowRoot
       xml:space="preserve"
       id="flowRoot994-1-3"
       style="font-style:normal;font-variant:normal;font-weight:normal;font-stretch:normal;font-size:40px;line-height:1.25;font-family:'Palatino Linotype';-inkscape-font-specification:'Palatino Linotype';letter-spacing:0px;word-spacing:0px;fill:#000000;fill-opacity:1;stroke:none"
       transform="matrix(-0.19971952,0,0,-0.15368914,-531.22405,77.445237)"
       inkscape:export-filename="F:\projects\dungeons&amp;distancing\client\public\img\icons\mstile-150x150.png"
       inkscape:export-xdpi="110.48"
       inkscape:export-ydpi="110.48"><flowRegion
         id="flowRegion996-6-3"
         style="font-style:normal;font-variant:normal;font-weight:normal;font-stretch:normal;font-family:'Palatino Linotype';-inkscape-font-specification:'Palatino Linotype'"><rect
           id="rect998-0-3"
           width="726"
           height="428"
           x="-2744"
           y="318.51968"
           style="font-style:normal;font-variant:normal;font-weight:normal;font-stretch:normal;font-family:'Palatino Linotype';-inkscape-font-specification:'Palatino Linotype'" /></flowRegion><flowPara
         id="flowPara1000-8-3"
         style="font-style:normal;font-variant:normal;font-weight:normal;font-stretch:normal;font-family:'Palatino Linotype';-inkscape-font-specification:'Palatino Linotype';fill:#ffffff">8</flowPara></flowRoot>
  </g>
</svg>
